<svg xmlns="http://www.w3.org/2000/svg" xmlns:xlink="http://www.w3.org/1999/xlink" version="1.1" width="1000" height="1000" viewBox="0 0 1000 1000" xml:space="preserve">
<desc>Created with Fabric.js 3.5.0</desc>
<defs>
</defs>
<rect x="0" y="0" width="100%" height="100%" fill="#ffffff"/>
<g transform="matrix(3.8393 0 0 3.8393 500.0028 500.0028)" id="938712">
<g style="" vector-effect="non-scaling-stroke">
		<g transform="matrix(1 0 0 1 24.4 -53)" id="Layer_1">
<polygon style="stroke: none; stroke-width: 1; stroke-dasharray: none; stroke-linecap: butt; stroke-dashoffset: 0; stroke-linejoin: miter; stroke-miterlimit: 4; is-custom-font: none; font-file-url: none; fill: rgb(44,31,103); fill-rule: nonzero; opacity: 1;" points="0,-46.7 -37.1,46.7 -2.2,46.7 37.1,-46.7 "/>
</g>
		<g transform="matrix(1 0 0 1 4.0015 43.75)" id="Layer_1">
<path style="stroke: none; stroke-width: 1; stroke-dasharray: none; stroke-linecap: butt; stroke-dashoffset: 0; stroke-linejoin: miter; stroke-miterlimit: 4; is-custom-font: none; font-file-url: none; fill: rgb(255,139,0); fill-rule: nonzero; opacity: 1;" transform=" translate(-132.9015, -172.65)" d="M 158.1 136.1 V 125 c 0 -4.5 -3.7 -8.2 -8.2 -8.2 h -33.8 c -4.5 0 -8.2 3.7 -8.2 8.2 v 11.1 c -14.7 8.6 -24.6 24.6 -24.6 42.8 c 0 27.4 22.2 49.6 49.6 49.6 s 49.6 -22.2 49.6 -49.6 C 182.7 160.7 172.8 144.7 158.1 136.1 z M 113.7 133.2 V 125 c 0 -1.3 1.1 -2.4 2.4 -2.4 h 33.8 c 1.3 0 2.4 1.1 2.4 2.4 v 8.2 c -5.9 -2.5 -12.4 -3.9 -19.3 -3.9 C 126.2 129.3 119.7 130.7 113.7 133.2 z" stroke-linecap="round"/>
</g>
		<g transform="matrix(1 0 0 1 4.1002 50.1)" id="Layer_1">
<path style="stroke: none; stroke-width: 1; stroke-dasharray: none; stroke-linecap: butt; stroke-dashoffset: 0; stroke-linejoin: miter; stroke-miterlimit: 4; is-custom-font: none; font-file-url: none; fill: rgb(255,207,3); fill-rule: nonzero; opacity: 1;" transform=" translate(-133.0002, -179)" d="M 133 219.3 c -22.2 0 -40.3 -18.1 -40.3 -40.3 c 0 -22.2 18.1 -40.3 40.3 -40.3 c 22.2 0 40.3 18.1 40.3 40.3 C 173.4 201.2 155.3 219.3 133 219.3 z" stroke-linecap="round"/>
</g>
		<g transform="matrix(1 0 0 1 -2.25 80.75)" id="Layer_1">
<path style="stroke: none; stroke-width: 1; stroke-dasharray: none; stroke-linecap: butt; stroke-dashoffset: 0; stroke-linejoin: miter; stroke-miterlimit: 4; is-custom-font: none; font-file-url: none; fill: rgb(255,255,3); fill-rule: nonzero; opacity: 1;" transform=" translate(-126.65, -209.65)" d="M 127.6 208.5 c 1.7 1.4 2.2 3.6 2.2 3.6 s -2.3 0.1 -4.1 -1.3 c -1.7 -1.4 -2.2 -3.6 -2.2 -3.6 S 125.9 207.1 127.6 208.5 z" stroke-linecap="round"/>
</g>
		<g transform="matrix(1 0 0 1 -2.9 84.5)" id="Layer_1">
<path style="stroke: none; stroke-width: 1; stroke-dasharray: none; stroke-linecap: butt; stroke-dashoffset: 0; stroke-linejoin: miter; stroke-miterlimit: 4; is-custom-font: none; font-file-url: none; fill: rgb(255,255,3); fill-rule: nonzero; opacity: 1;" transform=" translate(-126, -213.4)" d="M 125.5 212 c 2.1 -0.7 4.3 0.1 4.3 0.1 s -1.2 2 -3.3 2.7 s -4.3 -0.1 -4.3 -0.1 S 123.4 212.8 125.5 212 z" stroke-linecap="round"/>
</g>
		<g transform="matrix(1 0 0 1 -9.05 78.85)" id="Layer_1">
<path style="stroke: none; stroke-width: 1; stroke-dasharray: none; stroke-linecap: butt; stroke-dashoffset: 0; stroke-linejoin: miter; stroke-miterlimit: 4; is-custom-font: none; font-file-url: none; fill: rgb(255,255,3); fill-rule: nonzero; opacity: 1;" transform=" translate(-119.85, -207.75)" d="M 120.9 206.7 c 1.5 1.6 1.7 3.9 1.7 3.9 s -2.3 -0.3 -3.8 -1.8 c -1.5 -1.6 -1.7 -3.9 -1.7 -3.9 S 119.4 205.1 120.9 206.7 z" stroke-linecap="round"/>
</g>
		<g transform="matrix(1 0 0 1 -10.3 82.45)" id="Layer_1">
<path style="stroke: none; stroke-width: 1; stroke-dasharray: none; stroke-linecap: butt; stroke-dashoffset: 0; stroke-linejoin: miter; stroke-miterlimit: 4; is-custom-font: none; font-file-url: none; fill: rgb(255,255,3); fill-rule: nonzero; opacity: 1;" transform=" translate(-118.6, -211.35)" d="M 118.3 209.9 c 2.2 -0.4 4.2 0.7 4.2 0.7 s -1.5 1.8 -3.6 2.2 c -2.2 0.4 -4.2 -0.7 -4.2 -0.7 S 116.1 210.3 118.3 209.9 z" stroke-linecap="round"/>
</g>
		<g transform="matrix(1 0 0 1 -14.55 75.95)" id="Layer_1">
<path style="stroke: none; stroke-width: 1; stroke-dasharray: none; stroke-linecap: butt; stroke-dashoffset: 0; stroke-linejoin: miter; stroke-miterlimit: 4; is-custom-font: none; font-file-url: none; fill: rgb(255,255,3); fill-rule: nonzero; opacity: 1;" transform=" translate(-114.35, -204.85)" d="M 115.6 204 c 1.2 1.8 1 4.1 1 4.1 s -2.3 -0.6 -3.5 -2.4 c -1.2 -1.8 -1 -4.1 -1 -4.1 S 114.3 202.2 115.6 204 z" stroke-linecap="round"/>
</g>
		<g transform="matrix(1 0 0 1 -16.3 79.35)" id="Layer_1">
<path style="stroke: none; stroke-width: 1; stroke-dasharray: none; stroke-linecap: butt; stroke-dashoffset: 0; stroke-linejoin: miter; stroke-miterlimit: 4; is-custom-font: none; font-file-url: none; fill: rgb(255,255,3); fill-rule: nonzero; opacity: 1;" transform=" translate(-112.6, -208.25)" d="M 112.5 206.8 c 2.2 -0.1 4.1 1.3 4.1 1.3 s -1.7 1.6 -3.9 1.6 c -2.2 0.1 -4.1 -1.3 -4.1 -1.3 S 110.3 206.9 112.5 206.8 z" stroke-linecap="round"/>
</g>
		<g transform="matrix(1 0 0 1 -19.7 71.6)" id="Layer_1">
<path style="stroke: none; stroke-width: 1; stroke-dasharray: none; stroke-linecap: butt; stroke-dashoffset: 0; stroke-linejoin: miter; stroke-miterlimit: 4; is-custom-font: none; font-file-url: none; fill: rgb(255,255,3); fill-rule: nonzero; opacity: 1;" transform=" translate(-109.2, -200.5)" d="M 110.6 200 c 0.8 2 0 4.2 0 4.2 s -2 -1.1 -2.8 -3.2 c -0.8 -2 0 -4.2 0 -4.2 S 109.8 198 110.6 200 z" stroke-linecap="round"/>
</g>
		<g transform="matrix(1 0 0 1 -22.2 74.55)" id="Layer_1">
<path style="stroke: none; stroke-width: 1; stroke-dasharray: none; stroke-linecap: butt; stroke-dashoffset: 0; stroke-linejoin: miter; stroke-miterlimit: 4; is-custom-font: none; font-file-url: none; fill: rgb(255,255,3); fill-rule: nonzero; opacity: 1;" transform=" translate(-106.7, -203.45)" d="M 107 202 c 2.2 0.4 3.6 2.2 3.6 2.2 s -2.1 1.1 -4.2 0.7 c -2.2 -0.4 -3.6 -2.2 -3.6 -2.2 S 104.8 201.6 107 202 z" stroke-linecap="round"/>
</g>
		<g transform="matrix(1 0 0 1 -23.5 66.7)" id="Layer_1">
<path style="stroke: none; stroke-width: 1; stroke-dasharray: none; stroke-linecap: butt; stroke-dashoffset: 0; stroke-linejoin: miter; stroke-miterlimit: 4; is-custom-font: none; font-file-url: none; fill: rgb(255,255,3); fill-rule: nonzero; opacity: 1;" transform=" translate(-105.4, -195.6)" d="M 106.9 195.4 c 0.3 2.2 -1 4.1 -1 4.1 s -1.7 -1.6 -2 -3.7 c -0.3 -2.2 1 -4.1 1 -4.1 S 106.6 193.2 106.9 195.4 z" stroke-linecap="round"/>
</g>
		<g transform="matrix(1 0 0 1 -26.75 68.95)" id="Layer_1">
<path style="stroke: none; stroke-width: 1; stroke-dasharray: none; stroke-linecap: butt; stroke-dashoffset: 0; stroke-linejoin: miter; stroke-miterlimit: 4; is-custom-font: none; font-file-url: none; fill: rgb(255,255,3); fill-rule: nonzero; opacity: 1;" transform=" translate(-102.15, -197.85)" d="M 102.8 196.5 c 2 0.9 3 3 3 3 s -2.3 0.6 -4.3 -0.3 c -2 -0.9 -3 -3 -3 -3 S 100.8 195.6 102.8 196.5 z" stroke-linecap="round"/>
</g>
		<g transform="matrix(1 0 0 1 -26.7071 60.55)" id="Layer_1">
<path style="stroke: none; stroke-width: 1; stroke-dasharray: none; stroke-linecap: butt; stroke-dashoffset: 0; stroke-linejoin: miter; stroke-miterlimit: 4; is-custom-font: none; font-file-url: none; fill: rgb(255,255,3); fill-rule: nonzero; opacity: 1;" transform=" translate(-102.193, -189.45)" d="M 103.7 189.6 c -0.2 2.2 -1.8 3.8 -1.8 3.8 s -1.4 -1.9 -1.2 -4.1 c 0.2 -2.2 1.8 -3.8 1.8 -3.8 S 103.8 187.4 103.7 189.6 z" stroke-linecap="round"/>
</g>
		<g transform="matrix(1 0 0 1 -30.3 62.05)" id="Layer_1">
<path style="stroke: none; stroke-width: 1; stroke-dasharray: none; stroke-linecap: butt; stroke-dashoffset: 0; stroke-linejoin: miter; stroke-miterlimit: 4; is-custom-font: none; font-file-url: none; fill: rgb(255,255,3); fill-rule: nonzero; opacity: 1;" transform=" translate(-98.6, -190.95)" d="M 99.5 189.8 c 1.8 1.3 2.3 3.5 2.3 3.5 s -2.3 0.1 -4.1 -1.2 c -1.8 -1.3 -2.3 -3.5 -2.3 -3.5 S 97.7 188.5 99.5 189.8 z" stroke-linecap="round"/>
</g>
		<g transform="matrix(1 0 0 1 -28.35 54.75)" id="Layer_1">
<path style="stroke: none; stroke-width: 1; stroke-dasharray: none; stroke-linecap: butt; stroke-dashoffset: 0; stroke-linejoin: miter; stroke-miterlimit: 4; is-custom-font: none; font-file-url: none; fill: rgb(255,255,3); fill-rule: nonzero; opacity: 1;" transform=" translate(-100.55, -183.65)" d="M 102 184 c -0.5 2.1 -2.4 3.5 -2.4 3.5 s -1 -2.1 -0.5 -4.2 c 0.5 -2.1 2.4 -3.5 2.4 -3.5 S 102.5 181.9 102 184 z" stroke-linecap="round"/>
</g>
		<g transform="matrix(1 0 0 1 -32.1 55.75)" id="Layer_1">
<path style="stroke: none; stroke-width: 1; stroke-dasharray: none; stroke-linecap: butt; stroke-dashoffset: 0; stroke-linejoin: miter; stroke-miterlimit: 4; is-custom-font: none; font-file-url: none; fill: rgb(255,255,3); fill-rule: nonzero; opacity: 1;" transform=" translate(-96.8, -184.65)" d="M 97.9 183.6 c 1.5 1.6 1.7 3.9 1.7 3.9 s -2.3 -0.2 -3.9 -1.8 c -1.5 -1.6 -1.7 -3.9 -1.7 -3.9 S 96.3 182.1 97.9 183.6 z" stroke-linecap="round"/>
</g>
		<g transform="matrix(1 0 0 1 -28.4308 48.2)" id="Layer_1">
<path style="stroke: none; stroke-width: 1; stroke-dasharray: none; stroke-linecap: butt; stroke-dashoffset: 0; stroke-linejoin: miter; stroke-miterlimit: 4; is-custom-font: none; font-file-url: none; fill: rgb(255,255,3); fill-rule: nonzero; opacity: 1;" transform=" translate(-100.4692, -177.1)" d="M 101.8 177.8 c -1 1.9 -3.2 2.8 -3.2 2.8 s -0.5 -2.3 0.5 -4.2 c 1 -1.9 3.2 -2.8 3.2 -2.8 S 102.9 175.9 101.8 177.8 z" stroke-linecap="round"/>
</g>
		<g transform="matrix(1 0 0 1 -32.3 48.25)" id="Layer_1">
<path style="stroke: none; stroke-width: 1; stroke-dasharray: none; stroke-linecap: butt; stroke-dashoffset: 0; stroke-linejoin: miter; stroke-miterlimit: 4; is-custom-font: none; font-file-url: none; fill: rgb(255,255,3); fill-rule: nonzero; opacity: 1;" transform=" translate(-96.6, -177.15)" d="M 97.9 176.4 c 1.1 1.9 0.7 4.2 0.7 4.2 s -2.2 -0.8 -3.3 -2.7 c -1.1 -1.9 -0.7 -4.2 -0.7 -4.2 S 96.8 174.6 97.9 176.4 z" stroke-linecap="round"/>
</g>
		<g transform="matrix(1 0 0 1 -27.15 41.65)" id="Layer_1">
<path style="stroke: none; stroke-width: 1; stroke-dasharray: none; stroke-linecap: butt; stroke-dashoffset: 0; stroke-linejoin: miter; stroke-miterlimit: 4; is-custom-font: none; font-file-url: none; fill: rgb(255,255,3); fill-rule: nonzero; opacity: 1;" transform=" translate(-101.75, -170.55)" d="M 102.9 171.5 c -1.5 1.6 -3.8 2 -3.8 2 s 0.1 -2.3 1.5 -3.9 c 1.5 -1.6 3.8 -2 3.8 -2 S 104.4 169.9 102.9 171.5 z" stroke-linecap="round"/>
</g>
		<g transform="matrix(1 0 0 1 -30.95 40.8)" id="Layer_1">
<path style="stroke: none; stroke-width: 1; stroke-dasharray: none; stroke-linecap: butt; stroke-dashoffset: 0; stroke-linejoin: miter; stroke-miterlimit: 4; is-custom-font: none; font-file-url: none; fill: rgb(255,255,3); fill-rule: nonzero; opacity: 1;" transform=" translate(-97.95, -169.7)" d="M 99.4 169.3 c 0.6 2.1 -0.3 4.2 -0.3 4.2 s -2 -1.3 -2.6 -3.4 c -0.6 -2.1 0.3 -4.2 0.3 -4.2 S 98.8 167.2 99.4 169.3 z" stroke-linecap="round"/>
</g>
		<g transform="matrix(1 0 0 1 -24.55 36.3)" id="Layer_1">
<path style="stroke: none; stroke-width: 1; stroke-dasharray: none; stroke-linecap: butt; stroke-dashoffset: 0; stroke-linejoin: miter; stroke-miterlimit: 4; is-custom-font: none; font-file-url: none; fill: rgb(255,255,3); fill-rule: nonzero; opacity: 1;" transform=" translate(-104.35, -165.2)" d="M 105.2 166.4 c -1.8 1.3 -4.1 1.1 -4.1 1.1 s 0.6 -2.2 2.4 -3.5 c 1.8 -1.3 4.1 -1.1 4.1 -1.1 S 107 165.1 105.2 166.4 z" stroke-linecap="round"/>
</g>
		<g transform="matrix(1 0 0 1 -28.1 34.6)" id="Layer_1">
<path style="stroke: none; stroke-width: 1; stroke-dasharray: none; stroke-linecap: butt; stroke-dashoffset: 0; stroke-linejoin: miter; stroke-miterlimit: 4; is-custom-font: none; font-file-url: none; fill: rgb(255,255,3); fill-rule: nonzero; opacity: 1;" transform=" translate(-100.8, -163.5)" d="M 102.3 163.4 c 0.1 2.2 -1.3 4 -1.3 4 s -1.6 -1.7 -1.7 -3.8 c -0.1 -2.2 1.3 -4 1.3 -4 S 102.2 161.3 102.3 163.4 z" stroke-linecap="round"/>
</g>
		<g transform="matrix(1 0 0 1 -21.6 31.45)" id="Layer_1">
<path style="stroke: none; stroke-width: 1; stroke-dasharray: none; stroke-linecap: butt; stroke-dashoffset: 0; stroke-linejoin: miter; stroke-miterlimit: 4; is-custom-font: none; font-file-url: none; fill: rgb(255,255,3); fill-rule: nonzero; opacity: 1;" transform=" translate(-107.3, -160.35)" d="M 108 161.7 c -2 1 -4.3 0.4 -4.3 0.4 s 0.9 -2.1 2.9 -3.1 c 2 -1 4.3 -0.4 4.3 -0.4 S 110 160.8 108 161.7 z" stroke-linecap="round"/>
</g>
		<g transform="matrix(1 0 0 1 -24.7 29.35)" id="Layer_1">
<path style="stroke: none; stroke-width: 1; stroke-dasharray: none; stroke-linecap: butt; stroke-dashoffset: 0; stroke-linejoin: miter; stroke-miterlimit: 4; is-custom-font: none; font-file-url: none; fill: rgb(255,255,3); fill-rule: nonzero; opacity: 1;" transform=" translate(-104.2, -158.25)" d="M 105.7 158.4 c -0.2 2.2 -1.9 3.8 -1.9 3.8 s -1.3 -1.9 -1.1 -4.1 c 0.2 -2.2 1.9 -3.8 1.9 -3.8 S 105.9 156.2 105.7 158.4 z" stroke-linecap="round"/>
</g>
		<g transform="matrix(1 0 0 1 11.65 80.4508)" id="Layer_1">
<path style="stroke: none; stroke-width: 1; stroke-dasharray: none; stroke-linecap: butt; stroke-dashoffset: 0; stroke-linejoin: miter; stroke-miterlimit: 4; is-custom-font: none; font-file-url: none; fill: rgb(255,255,3); fill-rule: nonzero; opacity: 1;" transform=" translate(-140.55, -209.3508)" d="M 139.6 208.2 c -1.7 1.4 -2.2 3.6 -2.2 3.6 s 2.3 0.1 4.1 -1.3 s 2.2 -3.6 2.2 -3.6 S 141.4 206.9 139.6 208.2 z" stroke-linecap="round"/>
</g>
		<g transform="matrix(1 0 0 1 12.3 84.2)" id="Layer_1">
<path style="stroke: none; stroke-width: 1; stroke-dasharray: none; stroke-linecap: butt; stroke-dashoffset: 0; stroke-linejoin: miter; stroke-miterlimit: 4; is-custom-font: none; font-file-url: none; fill: rgb(255,255,3); fill-rule: nonzero; opacity: 1;" transform=" translate(-141.2, -213.1)" d="M 141.7 211.7 c -2.1 -0.7 -4.3 0.1 -4.3 0.1 s 1.2 2 3.3 2.7 c 2.1 0.7 4.3 -0.1 4.3 -0.1 S 143.8 212.5 141.7 211.7 z" stroke-linecap="round"/>
</g>
		<g transform="matrix(1 0 0 1 17.65 78.85)" id="Layer_1">
<path style="stroke: none; stroke-width: 1; stroke-dasharray: none; stroke-linecap: butt; stroke-dashoffset: 0; stroke-linejoin: miter; stroke-miterlimit: 4; is-custom-font: none; font-file-url: none; fill: rgb(255,255,3); fill-rule: nonzero; opacity: 1;" transform=" translate(-146.55, -207.75)" d="M 145.5 206.7 c -1.5 1.6 -1.7 3.9 -1.7 3.9 s 2.3 -0.3 3.8 -1.8 c 1.5 -1.6 1.7 -3.9 1.7 -3.9 S 147 205.1 145.5 206.7 z" stroke-linecap="round"/>
</g>
		<g transform="matrix(1 0 0 1 18.9 82.45)" id="Layer_1">
<path style="stroke: none; stroke-width: 1; stroke-dasharray: none; stroke-linecap: butt; stroke-dashoffset: 0; stroke-linejoin: miter; stroke-miterlimit: 4; is-custom-font: none; font-file-url: none; fill: rgb(255,255,3); fill-rule: nonzero; opacity: 1;" transform=" translate(-147.8, -211.35)" d="M 148.1 209.9 c -2.2 -0.4 -4.2 0.7 -4.2 0.7 s 1.5 1.8 3.6 2.2 c 2.2 0.4 4.2 -0.7 4.2 -0.7 S 150.3 210.3 148.1 209.9 z" stroke-linecap="round"/>
</g>
		<g transform="matrix(1 0 0 1 23.15 75.75)" id="Layer_1">
<path style="stroke: none; stroke-width: 1; stroke-dasharray: none; stroke-linecap: butt; stroke-dashoffset: 0; stroke-linejoin: miter; stroke-miterlimit: 4; is-custom-font: none; font-file-url: none; fill: rgb(255,255,3); fill-rule: nonzero; opacity: 1;" transform=" translate(-152.05, -204.65)" d="M 150.8 203.8 c -1.2 1.8 -1 4.1 -1 4.1 s 2.3 -0.6 3.5 -2.4 c 1.2 -1.8 1 -4.1 1 -4.1 S 152.1 202 150.8 203.8 z" stroke-linecap="round"/>
</g>
		<g transform="matrix(1 0 0 1 24.9 79.15)" id="Layer_1">
<path style="stroke: none; stroke-width: 1; stroke-dasharray: none; stroke-linecap: butt; stroke-dashoffset: 0; stroke-linejoin: miter; stroke-miterlimit: 4; is-custom-font: none; font-file-url: none; fill: rgb(255,255,3); fill-rule: nonzero; opacity: 1;" transform=" translate(-153.8, -208.05)" d="M 153.9 206.6 c -2.2 -0.1 -4.1 1.3 -4.1 1.3 s 1.7 1.6 3.9 1.6 c 2.2 0.1 4.1 -1.3 4.1 -1.3 S 156.1 206.7 153.9 206.6 z" stroke-linecap="round"/>
</g>
		<g transform="matrix(1 0 0 1 28.1 71.5)" id="Layer_1">
<path style="stroke: none; stroke-width: 1; stroke-dasharray: none; stroke-linecap: butt; stroke-dashoffset: 0; stroke-linejoin: miter; stroke-miterlimit: 4; is-custom-font: none; font-file-url: none; fill: rgb(255,255,3); fill-rule: nonzero; opacity: 1;" transform=" translate(-157, -200.4)" d="M 155.6 199.9 c -0.8 2 0 4.2 0 4.2 s 2 -1.1 2.8 -3.2 c 0.8 -2 0 -4.2 0 -4.2 S 156.4 197.9 155.6 199.9 z" stroke-linecap="round"/>
</g>
		<g transform="matrix(1 0 0 1 30.7 74.45)" id="Layer_1">
<path style="stroke: none; stroke-width: 1; stroke-dasharray: none; stroke-linecap: butt; stroke-dashoffset: 0; stroke-linejoin: miter; stroke-miterlimit: 4; is-custom-font: none; font-file-url: none; fill: rgb(255,255,3); fill-rule: nonzero; opacity: 1;" transform=" translate(-159.6, -203.35)" d="M 159.3 201.9 c -2.2 0.4 -3.6 2.2 -3.6 2.2 s 2.1 1.1 4.2 0.7 c 2.2 -0.4 3.6 -2.2 3.6 -2.2 S 161.4 201.5 159.3 201.9 z" stroke-linecap="round"/>
</g>
		<g transform="matrix(1 0 0 1 32.2 66.3)" id="Layer_1">
<path style="stroke: none; stroke-width: 1; stroke-dasharray: none; stroke-linecap: butt; stroke-dashoffset: 0; stroke-linejoin: miter; stroke-miterlimit: 4; is-custom-font: none; font-file-url: none; fill: rgb(255,255,3); fill-rule: nonzero; opacity: 1;" transform=" translate(-161.1, -195.2)" d="M 159.6 195 c -0.3 2.2 1 4.1 1 4.1 s 1.7 -1.6 2 -3.7 c 0.3 -2.2 -1 -4.1 -1 -4.1 S 159.8 192.8 159.6 195 z" stroke-linecap="round"/>
</g>
		<g transform="matrix(1 0 0 1 35.35 68.5289)" id="Layer_1">
<path style="stroke: none; stroke-width: 1; stroke-dasharray: none; stroke-linecap: butt; stroke-dashoffset: 0; stroke-linejoin: miter; stroke-miterlimit: 4; is-custom-font: none; font-file-url: none; fill: rgb(255,255,3); fill-rule: nonzero; opacity: 1;" transform=" translate(-164.25, -197.4289)" d="M 163.6 196.1 c -2 0.9 -3 3 -3 3 s 2.3 0.6 4.3 -0.3 c 2 -0.9 3 -3 3 -3 S 165.6 195.1 163.6 196.1 z" stroke-linecap="round"/>
</g>
		<g transform="matrix(1 0 0 1 35 60.45)" id="Layer_1">
<path style="stroke: none; stroke-width: 1; stroke-dasharray: none; stroke-linecap: butt; stroke-dashoffset: 0; stroke-linejoin: miter; stroke-miterlimit: 4; is-custom-font: none; font-file-url: none; fill: rgb(255,255,3); fill-rule: nonzero; opacity: 1;" transform=" translate(-163.9, -189.35)" d="M 162.4 189.5 c 0.2 2.2 1.8 3.8 1.8 3.8 s 1.4 -1.9 1.2 -4.1 c -0.2 -2.2 -1.8 -3.8 -1.8 -3.8 S 162.2 187.3 162.4 189.5 z" stroke-linecap="round"/>
</g>
		<g transform="matrix(1 0 0 1 38.6 61.95)" id="Layer_1">
<path style="stroke: none; stroke-width: 1; stroke-dasharray: none; stroke-linecap: butt; stroke-dashoffset: 0; stroke-linejoin: miter; stroke-miterlimit: 4; is-custom-font: none; font-file-url: none; fill: rgb(255,255,3); fill-rule: nonzero; opacity: 1;" transform=" translate(-167.5, -190.85)" d="M 166.6 189.7 c -1.8 1.3 -2.3 3.5 -2.3 3.5 s 2.3 0.1 4.1 -1.2 c 1.8 -1.3 2.3 -3.5 2.3 -3.5 S 168.3 188.4 166.6 189.7 z" stroke-linecap="round"/>
</g>
		<g transform="matrix(1 0 0 1 36.6304 54.65)" id="Layer_1">
<path style="stroke: none; stroke-width: 1; stroke-dasharray: none; stroke-linecap: butt; stroke-dashoffset: 0; stroke-linejoin: miter; stroke-miterlimit: 4; is-custom-font: none; font-file-url: none; fill: rgb(255,255,3); fill-rule: nonzero; opacity: 1;" transform=" translate(-165.5305, -183.55)" d="M 164.1 183.9 c 0.5 2.1 2.4 3.5 2.4 3.5 s 1 -2.1 0.5 -4.2 c -0.5 -2.1 -2.4 -3.5 -2.4 -3.5 S 163.5 181.8 164.1 183.9 z" stroke-linecap="round"/>
</g>
		<g transform="matrix(1 0 0 1 40.4 55.65)" id="Layer_1">
<path style="stroke: none; stroke-width: 1; stroke-dasharray: none; stroke-linecap: butt; stroke-dashoffset: 0; stroke-linejoin: miter; stroke-miterlimit: 4; is-custom-font: none; font-file-url: none; fill: rgb(255,255,3); fill-rule: nonzero; opacity: 1;" transform=" translate(-169.3, -184.55)" d="M 168.2 183.5 c -1.5 1.6 -1.7 3.9 -1.7 3.9 s 2.3 -0.2 3.9 -1.8 c 1.5 -1.6 1.7 -3.9 1.7 -3.9 S 169.7 181.9 168.2 183.5 z" stroke-linecap="round"/>
</g>
		<g transform="matrix(1 0 0 1 36.65 48.3)" id="Layer_1">
<path style="stroke: none; stroke-width: 1; stroke-dasharray: none; stroke-linecap: butt; stroke-dashoffset: 0; stroke-linejoin: miter; stroke-miterlimit: 4; is-custom-font: none; font-file-url: none; fill: rgb(255,255,3); fill-rule: nonzero; opacity: 1;" transform=" translate(-165.55, -177.2)" d="M 164.2 177.9 c 1 1.9 3.2 2.8 3.2 2.8 s 0.5 -2.3 -0.5 -4.2 c -1 -1.9 -3.2 -2.8 -3.2 -2.8 S 163.2 176 164.2 177.9 z" stroke-linecap="round"/>
</g>
		<g transform="matrix(1 0 0 1 40.5 48.35)" id="Layer_1">
<path style="stroke: none; stroke-width: 1; stroke-dasharray: none; stroke-linecap: butt; stroke-dashoffset: 0; stroke-linejoin: miter; stroke-miterlimit: 4; is-custom-font: none; font-file-url: none; fill: rgb(255,255,3); fill-rule: nonzero; opacity: 1;" transform=" translate(-169.4, -177.25)" d="M 168.1 176.5 c -1.1 1.9 -0.7 4.2 -0.7 4.2 s 2.2 -0.8 3.3 -2.7 c 1.1 -1.9 0.7 -4.2 0.7 -4.2 S 169.2 174.7 168.1 176.5 z" stroke-linecap="round"/>
</g>
		<g transform="matrix(1 0 0 1 35.35 41.75)" id="Layer_1">
<path style="stroke: none; stroke-width: 1; stroke-dasharray: none; stroke-linecap: butt; stroke-dashoffset: 0; stroke-linejoin: miter; stroke-miterlimit: 4; is-custom-font: none; font-file-url: none; fill: rgb(255,255,3); fill-rule: nonzero; opacity: 1;" transform=" translate(-164.25, -170.65)" d="M 163.1 171.6 c 1.5 1.6 3.8 2 3.8 2 s -0.1 -2.3 -1.5 -3.9 s -3.8 -2 -3.8 -2 S 161.6 170 163.1 171.6 z" stroke-linecap="round"/>
</g>
		<g transform="matrix(1 0 0 1 39.0499 40.9)" id="Layer_1">
<path style="stroke: none; stroke-width: 1; stroke-dasharray: none; stroke-linecap: butt; stroke-dashoffset: 0; stroke-linejoin: miter; stroke-miterlimit: 4; is-custom-font: none; font-file-url: none; fill: rgb(255,255,3); fill-rule: nonzero; opacity: 1;" transform=" translate(-167.95, -169.8)" d="M 166.5 169.4 c -0.6 2.1 0.3 4.2 0.3 4.2 s 2 -1.3 2.6 -3.4 c 0.6 -2.1 -0.3 -4.2 -0.3 -4.2 S 167.2 167.3 166.5 169.4 z" stroke-linecap="round"/>
</g>
		<g transform="matrix(1 0 0 1 32.85 36.5)" id="Layer_1">
<path style="stroke: none; stroke-width: 1; stroke-dasharray: none; stroke-linecap: butt; stroke-dashoffset: 0; stroke-linejoin: miter; stroke-miterlimit: 4; is-custom-font: none; font-file-url: none; fill: rgb(255,255,3); fill-rule: nonzero; opacity: 1;" transform=" translate(-161.75, -165.4)" d="M 160.9 166.6 c 1.8 1.3 4.1 1.1 4.1 1.1 s -0.6 -2.2 -2.4 -3.5 c -1.8 -1.3 -4.1 -1.1 -4.1 -1.1 S 159.1 165.3 160.9 166.6 z" stroke-linecap="round"/>
</g>
		<g transform="matrix(1 0 0 1 36.3 34.8)" id="Layer_1">
<path style="stroke: none; stroke-width: 1; stroke-dasharray: none; stroke-linecap: butt; stroke-dashoffset: 0; stroke-linejoin: miter; stroke-miterlimit: 4; is-custom-font: none; font-file-url: none; fill: rgb(255,255,3); fill-rule: nonzero; opacity: 1;" transform=" translate(-165.2, -163.7)" d="M 163.7 163.6 c -0.1 2.2 1.3 4 1.3 4 s 1.6 -1.7 1.7 -3.8 c 0.1 -2.2 -1.3 -4 -1.3 -4 S 163.9 161.4 163.7 163.6 z" stroke-linecap="round"/>
</g>
		<g transform="matrix(1 0 0 1 29.7 31.75)" id="Layer_1">
<path style="stroke: none; stroke-width: 1; stroke-dasharray: none; stroke-linecap: butt; stroke-dashoffset: 0; stroke-linejoin: miter; stroke-miterlimit: 4; is-custom-font: none; font-file-url: none; fill: rgb(255,255,3); fill-rule: nonzero; opacity: 1;" transform=" translate(-158.6, -160.65)" d="M 157.9 162 c 2 1 4.3 0.4 4.3 0.4 s -0.9 -2.1 -2.9 -3.1 c -2 -1 -4.3 -0.4 -4.3 -0.4 S 155.9 161 157.9 162 z" stroke-linecap="round"/>
</g>
		<g transform="matrix(1 0 0 1 32.8 29.55)" id="Layer_1">
<path style="stroke: none; stroke-width: 1; stroke-dasharray: none; stroke-linecap: butt; stroke-dashoffset: 0; stroke-linejoin: miter; stroke-miterlimit: 4; is-custom-font: none; font-file-url: none; fill: rgb(255,255,3); fill-rule: nonzero; opacity: 1;" transform=" translate(-161.7, -158.45)" d="M 160.2 158.6 c 0.2 2.2 1.9 3.8 1.9 3.8 s 1.3 -1.9 1.1 -4.1 c -0.2 -2.2 -1.9 -3.8 -1.9 -3.8 S 160 156.4 160.2 158.6 z" stroke-linecap="round"/>
</g>
		<g transform="matrix(1 0 0 1 4.0008 55)" id="Layer_1">
<path style="stroke: none; stroke-width: 1; stroke-dasharray: none; stroke-linecap: butt; stroke-dashoffset: 0; stroke-linejoin: miter; stroke-miterlimit: 4; is-custom-font: none; font-file-url: none; fill: rgb(255,255,3); fill-rule: nonzero; opacity: 1;" transform=" translate(-132.9008, -183.9)" d="M 156.3 155.3 c -0.1 0.1 -0.2 0.2 -0.3 0.3 c 0 0 -0.1 0 -0.1 0.1 c 6.9 5.9 11.3 14.5 11.3 24 c 0 17.8 -15.3 32.3 -34.2 32.3 c -18.8 0 -34.2 -14.5 -34.2 -32.3 c 0 -9.1 4 -17.3 10.4 -23.2 c -0.2 -0.1 -0.4 -0.1 -0.6 -0.2 c -6.4 6 -10.4 14.2 -10.4 23.4 c 0 18.1 15.6 32.8 34.7 32.8 c 19.1 0 34.7 -14.7 34.7 -32.8 C 167.7 170 163.3 161.3 156.3 155.3 z" stroke-linecap="round"/>
</g>
		<g transform="matrix(1 0 0 1 -16.6 27.25)" id="Layer_1">
<path style="stroke: none; stroke-width: 1; stroke-dasharray: none; stroke-linecap: butt; stroke-dashoffset: 0; stroke-linejoin: miter; stroke-miterlimit: 4; is-custom-font: none; font-file-url: none; fill: rgb(255,255,3); fill-rule: nonzero; opacity: 1;" transform=" translate(-112.3, -156.15)" d="M 112.6 157.6 c -2.2 0.5 -4.2 -0.6 -4.2 -0.6 s 1.4 -1.8 3.6 -2.3 c 2.2 -0.5 4.2 0.6 4.2 0.6 S 114.8 157.2 112.6 157.6 z" stroke-linecap="round"/>
</g>
		<g transform="matrix(1 0 0 1 -19.15 24.4)" id="Layer_1">
<path style="stroke: none; stroke-width: 1; stroke-dasharray: none; stroke-linecap: butt; stroke-dashoffset: 0; stroke-linejoin: miter; stroke-miterlimit: 4; is-custom-font: none; font-file-url: none; fill: rgb(255,255,3); fill-rule: nonzero; opacity: 1;" transform=" translate(-109.75, -153.3)" d="M 111.2 153.8 c -0.7 2 -2.8 3.2 -2.8 3.2 s -0.8 -2.2 -0.1 -4.2 c 0.7 -2 2.8 -3.2 2.8 -3.2 S 111.9 151.8 111.2 153.8 z" stroke-linecap="round"/>
</g>
		<g transform="matrix(1 0 0 1 24.9 27.25)" id="Layer_1">
<path style="stroke: none; stroke-width: 1; stroke-dasharray: none; stroke-linecap: butt; stroke-dashoffset: 0; stroke-linejoin: miter; stroke-miterlimit: 4; is-custom-font: none; font-file-url: none; fill: rgb(255,255,3); fill-rule: nonzero; opacity: 1;" transform=" translate(-153.8, -156.15)" d="M 153.5 157.6 c 2.2 0.5 4.2 -0.6 4.2 -0.6 s -1.4 -1.8 -3.6 -2.3 c -2.2 -0.5 -4.2 0.6 -4.2 0.6 S 151.3 157.2 153.5 157.6 z" stroke-linecap="round"/>
</g>
		<g transform="matrix(1 0 0 1 27.5279 24.4)" id="Layer_1">
<path style="stroke: none; stroke-width: 1; stroke-dasharray: none; stroke-linecap: butt; stroke-dashoffset: 0; stroke-linejoin: miter; stroke-miterlimit: 4; is-custom-font: none; font-file-url: none; fill: rgb(255,255,3); fill-rule: nonzero; opacity: 1;" transform=" translate(-156.4279, -153.3)" d="M 155 153.8 c 0.7 2 2.8 3.2 2.8 3.2 s 0.8 -2.2 0.1 -4.2 c -0.7 -2 -2.8 -3.2 -2.8 -3.2 S 154.2 151.8 155 153.8 z" stroke-linecap="round"/>
</g>
		<g transform="matrix(1 0 0 1 5.2 45.4)" id="Layer_1">
<polygon style="stroke: none; stroke-width: 1; stroke-dasharray: none; stroke-linecap: butt; stroke-dashoffset: 0; stroke-linejoin: miter; stroke-miterlimit: 4; is-custom-font: none; font-file-url: none; fill: rgb(255,255,3); fill-rule: nonzero; opacity: 1;" points="13.7,21.3 -0.1,15.5 -14,21.2 -12.8,6.3 -22.4,-5.2 -7.8,-8.6 0.1,-21.3 7.9,-8.6 22.4,-5 12.6,6.4 "/>
</g>
		<g transform="matrix(1 0 0 1 -19.05 -52)" id="Layer_1">
<polygon style="stroke: none; stroke-width: 1; stroke-dasharray: none; stroke-linecap: butt; stroke-dashoffset: 0; stroke-linejoin: miter; stroke-miterlimit: 4; is-custom-font: none; font-file-url: none; fill: rgb(0,77,162); fill-rule: nonzero; opacity: 1;" points="-42.45,-47.7 -1.85,-47.7 42.45,47.7 3.95,47.7 "/>
</g>
</g>
</g>
</svg>