<svg xmlns="http://www.w3.org/2000/svg" xmlns:xlink="http://www.w3.org/1999/xlink" version="1.1" width="1000" height="1000" viewBox="0 0 1000 1000" xml:space="preserve">
<desc>Created with Fabric.js 3.5.0</desc>
<defs>
</defs>
<rect x="0" y="0" width="100%" height="100%" fill="#ffffff"/>
<g transform="matrix(3.7882 0 0 3.7882 499.9949 499.9949)" id="864225">
<g style="" vector-effect="non-scaling-stroke">
		<g transform="matrix(1 0 0 1 -3.1376 -93.4321)" id="Layer_1">
<path style="stroke: none; stroke-width: 1; stroke-dasharray: none; stroke-linecap: butt; stroke-dashoffset: 0; stroke-linejoin: miter; stroke-miterlimit: 4; is-custom-font: none; font-file-url: none; fill: rgb(255,249,223); fill-rule: nonzero; opacity: 1;" transform=" translate(-125.7624, -35.4679)" d="M 126.9 34.3 c -0.9 -0.9 -1.9 -1.4 -3.2 -1.6 c -0.5 -0.1 -0.9 0.6 -0.6 1 c 0.6 0.8 1.4 1.5 2 2.3 c 0.8 0.8 1.3 1.8 2.4 2.2 c 0.5 0.2 0.9 -0.3 1 -0.7 C 128.7 36.3 127.8 35.1 126.9 34.3 z" stroke-linecap="round"/>
</g>
		<g transform="matrix(1 0 0 1 0.6885 -78.373)" id="Layer_1">
<path style="stroke: none; stroke-width: 1; stroke-dasharray: none; stroke-linecap: butt; stroke-dashoffset: 0; stroke-linejoin: miter; stroke-miterlimit: 4; is-custom-font: none; font-file-url: none; fill: rgb(255,249,223); fill-rule: nonzero; opacity: 1;" transform=" translate(-129.5885, -50.527)" d="M 130.9 51.1 c -0.1 -3.2 -0.3 -6.4 -1.2 -9.4 c -0.2 -0.7 -1.2 -0.5 -1.2 0.2 c -0.2 3.1 0 6.2 0 9.3 c 0 2.7 -0.8 5.6 0.2 8.1 c 0.2 0.5 0.9 0.7 1.2 0.2 C 131.4 57 130.9 53.9 130.9 51.1 z" stroke-linecap="round"/>
</g>
		<g transform="matrix(1 0 0 1 -25.8501 -0.1)" id="Layer_1">
<path style="stroke: none; stroke-width: 1; stroke-dasharray: none; stroke-linecap: butt; stroke-dashoffset: 0; stroke-linejoin: miter; stroke-miterlimit: 4; is-custom-font: none; font-file-url: none; fill: rgb(253,234,81); fill-rule: nonzero; opacity: 1;" transform=" translate(-103.0499, -128.8)" d="M 135.6 216.3 c -4 -2.1 -6.3 -5.5 -6.5 -9.4 c -0.1 -3.5 1.6 -6.8 4.6 -8.7 c 1.6 -1 5.3 -2 10.1 -2.8 c -2.8 -0.6 -5.1 -1.4 -6.7 -2.2 c -4.5 -2.4 -7.2 -6.2 -7.3 -10.6 c -0.1 -4 1.8 -7.6 5.2 -9.8 c 1.8 -1.2 6.4 -2.3 12.2 -3.3 c -4.1 -0.8 -7.4 -1.8 -9.5 -2.9 c -4.8 -2.5 -7.7 -6.7 -7.8 -11.3 c -0.2 -4.2 1.9 -8.2 5.6 -10.5 c 1.8 -1.2 6.3 -2.3 12.1 -3.3 c -2.7 -0.7 -5 -1.4 -6.5 -2.3 c -4.5 -2.5 -7.1 -6.6 -7.3 -11.2 c -0.2 -4.3 1.8 -8.2 5.3 -10.5 c 0.1 0 0.1 -0.1 0.2 -0.1 c -6.3 -3.8 -10.5 -8.5 -12.4 -14.1 c -2.8 -8.5 -0.9 -16.1 1.1 -24.1 c 1.8 -7.1 3.6 -14.4 2.1 -22.6 c -2.7 -14.4 -7.5 -21.4 -14.7 -21.4 c -1.2 0 -2.4 0.2 -3.7 0.5 c -4 1.1 -4.6 7.9 -5.5 17.2 c -1 10.5 -2.3 24.8 -9.6 38 c -6.8 12.3 -12.2 18.3 -17.1 23.7 c -5.2 5.8 -9.7 10.9 -15.1 22.2 c -10.1 21.5 -12.1 60.8 10.8 75.5 c 13.7 8.8 34.4 10.1 45.5 10.1 c 10.5 0 20.7 -1.1 28.2 -3 C 143.1 218.7 138.2 217.6 135.6 216.3 z M 118.1 151.1 c -6.1 7.4 -6.8 17.8 -6.6 27.9 c 0.1 7.3 0.5 15.7 3.6 23.3 c 0.2 0.5 0 1.1 -0.6 1.3 c -0.1 0.1 -0.3 0.1 -0.4 0.1 c -0.4 0 -0.8 -0.2 -1 -0.6 c -3.2 -7.9 -3.6 -16.5 -3.7 -24 c -0.2 -10.5 0.6 -21.4 7.1 -29.3 c 0.4 -0.4 1 -0.5 1.4 -0.1 C 118.4 150 118.5 150.6 118.1 151.1 z M 123.7 133.4 c -11.6 16.7 -29.4 29.4 -48.9 34.9 c -0.1 0 -0.2 0 -0.3 0 c -0.4 0 -0.9 -0.3 -1 -0.7 c -0.2 -0.5 0.2 -1.1 0.7 -1.3 c 19.1 -5.4 36.5 -17.8 47.7 -34.1 c 0.3 -0.5 1 -0.6 1.4 -0.3 C 123.9 132.3 124 133 123.7 133.4 z" stroke-linecap="round"/>
</g>
		<g transform="matrix(1 0 0 1 29.9855 78.65)" id="Layer_1">
<path style="stroke: none; stroke-width: 1; stroke-dasharray: none; stroke-linecap: butt; stroke-dashoffset: 0; stroke-linejoin: miter; stroke-miterlimit: 4; is-custom-font: none; font-file-url: none; fill: rgb(253,234,81); fill-rule: nonzero; opacity: 1;" transform=" translate(-158.8855, -207.55)" d="M 172.1 198.2 c -7 0 -15.1 -0.6 -22 -1.6 c -7.5 0.9 -13.5 2.2 -15.3 3.3 c -2.4 1.5 -3.8 4.1 -3.7 6.9 c 0.1 3.1 2.1 5.9 5.4 7.6 c 4.3 2.3 17.7 4.1 29.8 4.1 c 6.9 0 12 -0.6 13.7 -1.7 c 3.2 -2 6.1 -7.4 6.6 -12.3 c 0.3 -2.9 -0.3 -5.1 -1.6 -6.4 c -0.3 -0.2 -0.6 -0.5 -1 -0.7 C 180.4 198 175.9 198.2 172.1 198.2 C 172.1 198.2 172.1 198.2 172.1 198.2 z" stroke-linecap="round"/>
</g>
		<g transform="matrix(1 0 0 1 34.6351 54.55)" id="Layer_1">
<path style="stroke: none; stroke-width: 1; stroke-dasharray: none; stroke-linecap: butt; stroke-dashoffset: 0; stroke-linejoin: miter; stroke-miterlimit: 4; is-custom-font: none; font-file-url: none; fill: rgb(253,234,81); fill-rule: nonzero; opacity: 1;" transform=" translate(-163.5351, -183.45)" d="M 190 170.9 c -4 1 -9.9 1.2 -14.7 1.2 c 0 0 0 0 0 0 c -6.7 0 -14.4 -0.5 -21.2 -1.4 c -8.8 1.1 -16 2.6 -18.1 3.9 c -2.8 1.8 -4.4 4.7 -4.3 8 c 0.1 3.6 2.4 6.8 6.2 8.8 c 5.6 2.9 22.1 4.8 34.1 4.8 c 8 0 13.7 -0.7 15.7 -2 c 3.7 -2.3 7 -8.5 7.6 -14.1 c 0.3 -3.3 -0.3 -6 -1.9 -7.5 C 192.9 171.9 191.7 171.3 190 170.9 z" stroke-linecap="round"/>
</g>
		<g transform="matrix(1 0 0 1 37.2932 27.2)" id="Layer_1">
<path style="stroke: none; stroke-width: 1; stroke-dasharray: none; stroke-linecap: butt; stroke-dashoffset: 0; stroke-linejoin: miter; stroke-miterlimit: 4; is-custom-font: none; font-file-url: none; fill: rgb(253,234,81); fill-rule: nonzero; opacity: 1;" transform=" translate(-166.1932, -156.1)" d="M 193 142.2 c -3.5 2 -12.1 2.4 -17 2.4 c -7.2 0 -15.6 -0.6 -22.7 -1.8 c -8.3 1.1 -14.9 2.6 -16.9 3.9 c -3 1.9 -4.8 5.1 -4.6 8.6 c 0.1 3.9 2.6 7.4 6.7 9.6 c 6 3.2 23.8 5.1 36.8 5.1 c 8.6 0 14.8 -0.8 17 -2.2 c 4 -2.5 7.6 -9.2 8.2 -15.3 c 0.4 -3.6 -0.4 -6.5 -2.1 -8.1 C 197.5 143.6 195.6 142.8 193 142.2 z" stroke-linecap="round"/>
</g>
		<g transform="matrix(1 0 0 1 0.0244 -0.05)" id="Layer_1">
<path style="stroke: none; stroke-width: 1; stroke-dasharray: none; stroke-linecap: butt; stroke-dashoffset: 0; stroke-linejoin: miter; stroke-miterlimit: 4; is-custom-font: none; font-file-url: none; fill: rgb(215,144,84); fill-rule: nonzero; opacity: 1;" transform=" translate(-128.9244, -128.85)" d="M 199.9 143 c -1 -1 -2.6 -1.8 -4.9 -2.4 c 3.5 -3.4 6.3 -9.5 6.9 -15.3 c 0.4 -4.3 -0.4 -7.7 -2.5 -9.9 c -2.6 -2.6 -9.3 -4 -20 -4 c -13.5 0 -30.7 2.3 -37.9 4.8 c -6.6 -3.7 -11 -8.3 -12.8 -13.6 c -2.6 -7.9 -0.8 -15.2 1.2 -22.9 c 1.8 -7.3 3.8 -14.8 2.1 -23.5 c -2.9 -15.5 -8.3 -23 -16.7 -23 c -1.3 0 -2.8 0.2 -4.2 0.6 c -5.4 1.4 -6.1 8.8 -7 19 c -1 10.9 -2.3 24.4 -9.4 37.2 c -6.7 12 -11.8 17.8 -16.8 23.3 c -5.1 5.7 -9.9 11.1 -15.4 22.7 C 52 158.3 50.1 198.9 74 214.1 c 14.2 9.1 35.3 10.4 46.6 10.4 c 0 0 0 0 0 0 c 13 0 25.5 -1.8 33.5 -4.5 c 4.2 0.4 8.4 0.6 12.3 0.6 c 0 0 0 0 0 0 c 5.3 0 12.1 -0.4 14.8 -2 c 3.7 -2.4 7 -8.3 7.6 -13.8 c 0.4 -3.4 -0.4 -6.2 -2.1 -7.9 c 0.9 -0.3 1.7 -0.6 2.3 -1 c 4.2 -2.7 7.9 -9.4 8.6 -15.6 c 0.4 -4 -0.5 -7.2 -2.6 -9.2 c -0.5 -0.5 -1.1 -0.9 -1.9 -1.3 c 0.1 -0.1 0.3 -0.1 0.4 -0.2 c 4.5 -2.9 8.5 -10.1 9.2 -16.8 C 203 148.5 202.1 145.1 199.9 143 z M 200.5 152.6 c -0.6 6 -4.2 12.7 -8.2 15.3 c -2.2 1.4 -8.4 2.2 -17 2.2 c -13 0 -30.8 -2 -36.8 -5.1 c -4.1 -2.2 -6.6 -5.7 -6.7 -9.6 c -0.1 -3.5 1.6 -6.7 4.6 -8.6 c 2.1 -1.3 8.6 -2.8 16.9 -3.9 c 7 1.2 15.5 1.8 22.7 1.8 c 4.9 0 13.5 -0.3 17 -2.4 c 2.6 0.6 4.5 1.3 5.5 2.3 C 200.2 146.1 200.9 149 200.5 152.6 z M 195.5 180 c -0.6 5.6 -3.9 11.8 -7.6 14.1 c -2 1.3 -7.8 2 -15.7 2 c -12.1 0 -28.6 -1.8 -34.1 -4.8 c -3.8 -2 -6.1 -5.2 -6.2 -8.8 c -0.1 -3.2 1.5 -6.2 4.3 -8 c 2.1 -1.3 9.3 -2.8 18.1 -3.9 c 6.9 0.9 14.6 1.4 21.2 1.4 c 0 0 0 0 0 0 c 4.8 0 10.6 -0.2 14.7 -1.2 c 1.6 0.5 2.9 1 3.5 1.7 C 195.1 174.1 195.8 176.7 195.5 180 z M 185 198.1 c 1.4 1.3 1.9 3.6 1.6 6.4 c -0.5 4.9 -3.4 10.2 -6.6 12.3 c -1.7 1.1 -6.9 1.7 -13.7 1.7 c -12.1 0 -25.5 -1.9 -29.8 -4.1 c -3.3 -1.7 -5.3 -4.5 -5.4 -7.6 c -0.1 -2.8 1.3 -5.3 3.7 -6.9 c 1.8 -1.1 7.8 -2.4 15.3 -3.3 c 6.9 1 15.1 1.6 22 1.6 c 0 0 0 0 0 0 c 3.8 0 8.3 -0.2 11.8 -0.8 C 184.4 197.7 184.8 197.9 185 198.1 z M 75.1 212.4 c -22.9 -14.6 -20.9 -53.9 -10.8 -75.5 c 5.3 -11.3 9.8 -16.3 15.1 -22.2 c 4.8 -5.4 10.3 -11.5 17.1 -23.7 c 7.3 -13.2 8.6 -27.6 9.6 -38 c 0.9 -9.4 1.5 -16.2 5.5 -17.2 c 1.3 -0.3 2.5 -0.5 3.7 -0.5 c 7.2 0 12 7 14.7 21.4 c 1.5 8.3 -0.3 15.6 -2.1 22.6 c -2 8 -4 15.6 -1.1 24.1 c 1.8 5.5 6 10.2 12.4 14.1 c -0.1 0 -0.2 0.1 -0.2 0.1 c -3.5 2.3 -5.4 6.3 -5.3 10.5 c 0.2 4.6 2.9 8.7 7.3 11.2 c 1.5 0.9 3.8 1.6 6.5 2.3 c -5.8 1 -10.3 2.2 -12.1 3.3 c -3.7 2.3 -5.8 6.2 -5.6 10.5 c 0.2 4.7 3 8.8 7.8 11.3 c 2.1 1.1 5.5 2.1 9.5 2.9 c -5.8 0.9 -10.3 2.1 -12.2 3.3 c -3.4 2.2 -5.4 5.8 -5.2 9.8 c 0.2 4.4 2.8 8.2 7.3 10.6 c 1.6 0.8 3.9 1.6 6.7 2.2 c -4.8 0.8 -8.5 1.8 -10.1 2.8 c -3 1.9 -4.8 5.2 -4.6 8.7 c 0.1 3.9 2.5 7.3 6.5 9.4 c 2.6 1.4 7.6 2.5 13.2 3.2 c -7.5 1.9 -17.7 3 -28.2 3 C 109.5 222.5 88.9 221.2 75.1 212.4 z M 197.9 116.9 c 1.6 1.7 2.3 4.6 1.9 8.2 c -0.6 6 -4 12.7 -7.7 15.2 c -2 1.4 -8.1 2.2 -16.2 2.2 c -12.1 0 -28.5 -1.9 -34 -5 c -3.8 -2.1 -6.1 -5.6 -6.3 -9.5 c -0.1 -3.6 1.5 -6.8 4.4 -8.8 c 3.7 -2.5 23 -5.7 39.3 -5.7 C 189.2 113.6 195.8 114.8 197.9 116.9 z" stroke-linecap="round"/>
</g>
		<g transform="matrix(1 0 0 1 38.853 -0.7512)" id="Layer_1">
<path style="stroke: none; stroke-width: 1; stroke-dasharray: none; stroke-linecap: butt; stroke-dashoffset: 0; stroke-linejoin: miter; stroke-miterlimit: 4; is-custom-font: none; font-file-url: none; fill: rgb(253,234,81); fill-rule: nonzero; opacity: 1;" transform=" translate(-167.753, -128.1489)" d="M 140 119.3 c -2.9 1.9 -4.5 5.2 -4.4 8.8 c 0.2 3.9 2.4 7.4 6.3 9.5 c 5.5 3.1 22 5 34 5 c 8.1 0 14.1 -0.8 16.2 -2.2 c 3.7 -2.5 7.1 -9.2 7.7 -15.2 c 0.4 -3.6 -0.3 -6.6 -1.9 -8.2 c -2.1 -2.2 -8.7 -3.3 -18.6 -3.3 C 163 113.6 143.8 116.8 140 119.3 z" stroke-linecap="round"/>
</g>
		<g transform="matrix(1 0 0 1 -30.1419 21.2266)" id="Layer_1">
<path style="stroke: none; stroke-width: 1; stroke-dasharray: none; stroke-linecap: butt; stroke-dashoffset: 0; stroke-linejoin: miter; stroke-miterlimit: 4; is-custom-font: none; font-file-url: none; fill: rgb(215,144,84); fill-rule: nonzero; opacity: 1;" transform=" translate(-98.7581, -150.1266)" d="M 122 132.3 c -11.3 16.3 -28.7 28.7 -47.7 34.1 c -0.5 0.2 -0.9 0.7 -0.7 1.3 c 0.1 0.5 0.5 0.7 1 0.7 c 0.1 0 0.2 0 0.3 0 c 19.5 -5.5 37.3 -18.2 48.9 -34.9 c 0.3 -0.5 0.2 -1.1 -0.3 -1.4 C 123 131.7 122.3 131.8 122 132.3 z" stroke-linecap="round"/>
</g>
		<g transform="matrix(1 0 0 1 -14.9359 47.5727)" id="Layer_1">
<path style="stroke: none; stroke-width: 1; stroke-dasharray: none; stroke-linecap: butt; stroke-dashoffset: 0; stroke-linejoin: miter; stroke-miterlimit: 4; is-custom-font: none; font-file-url: none; fill: rgb(215,144,84); fill-rule: nonzero; opacity: 1;" transform=" translate(-113.9641, -176.4727)" d="M 116.6 149.7 c -6.5 7.9 -7.3 18.8 -7.1 29.3 c 0.1 7.5 0.5 16.2 3.7 24 c 0.2 0.4 0.5 0.6 1 0.6 c 0.1 0 0.3 0 0.4 -0.1 c 0.5 -0.2 0.8 -0.8 0.6 -1.3 c -3.1 -7.5 -3.5 -16 -3.6 -23.3 c -0.2 -10.1 0.5 -20.6 6.6 -27.9 c 0.4 -0.4 0.3 -1.1 -0.1 -1.4 C 117.6 149.2 116.9 149.3 116.6 149.7 z" stroke-linecap="round"/>
</g>
		<g transform="matrix(1 0 0 1 38.2446 3.45)" id="Layer_1">
<path style="stroke: none; stroke-width: 1; stroke-dasharray: none; stroke-linecap: butt; stroke-dashoffset: 0; stroke-linejoin: miter; stroke-miterlimit: 4; is-custom-font: none; font-file-url: none; fill: rgb(252,206,37); fill-rule: nonzero; opacity: 1;" transform=" translate(-167.1446, -132.35)" d="M 198.5 131.1 c -3.7 1.8 -7.7 3.1 -11.7 3.8 c -10.5 1.8 -21.2 -0.2 -31.7 -2.2 c -4.4 -0.9 -9 -1.8 -12.7 -4.3 c -2.2 -1.5 -4.1 -3.8 -5 -6.3 c -1.1 1.7 -1.7 3.8 -1.6 6 c 0.2 3.9 2.4 7.4 6.3 9.5 c 5.5 3.1 22 5 34 5 c 8.1 0 14.1 -0.8 16.2 -2.2 C 194.7 138.7 197 135.1 198.5 131.1 z" stroke-linecap="round"/>
</g>
		<g transform="matrix(1 0 0 1 36.1 31.9)" id="Layer_1">
<path style="stroke: none; stroke-width: 1; stroke-dasharray: none; stroke-linecap: butt; stroke-dashoffset: 0; stroke-linejoin: miter; stroke-miterlimit: 4; is-custom-font: none; font-file-url: none; fill: rgb(252,206,37); fill-rule: nonzero; opacity: 1;" transform=" translate(-165, -160.8)" d="M 179.9 163.7 c -9.1 0.3 -18.1 -0.9 -27.1 -2.2 c -4.5 -0.6 -9.1 -1.3 -13.1 -3.3 c -3 -1.5 -5.7 -3.8 -7.2 -6.7 c -0.5 1.2 -0.7 2.6 -0.7 3.9 c 0.1 3.9 2.6 7.4 6.7 9.6 c 6 3.2 23.8 5.1 36.8 5.1 c 8.6 0 14.8 -0.8 17 -2.2 c 2.3 -1.4 4.4 -4.2 5.9 -7.4 C 192.4 162.5 186.1 163.5 179.9 163.7 z" stroke-linecap="round"/>
</g>
		<g transform="matrix(1 0 0 1 34.0367 59.05)" id="Layer_1">
<path style="stroke: none; stroke-width: 1; stroke-dasharray: none; stroke-linecap: butt; stroke-dashoffset: 0; stroke-linejoin: miter; stroke-miterlimit: 4; is-custom-font: none; font-file-url: none; fill: rgb(252,206,37); fill-rule: nonzero; opacity: 1;" transform=" translate(-162.9367, -187.95)" d="M 141.9 185.3 c -3.7 -0.9 -7.7 -2.6 -9.8 -5.5 c -0.2 0.9 -0.4 1.8 -0.3 2.7 c 0.1 3.6 2.4 6.8 6.2 8.8 c 5.6 2.9 22.1 4.8 34.1 4.8 c 8 0 13.7 -0.7 15.7 -2 c 2.5 -1.6 4.9 -4.9 6.3 -8.7 C 177.1 189.7 159 189.7 141.9 185.3 z" stroke-linecap="round"/>
</g>
		<g transform="matrix(1 0 0 1 28.95 82.75)" id="Layer_1">
<path style="stroke: none; stroke-width: 1; stroke-dasharray: none; stroke-linecap: butt; stroke-dashoffset: 0; stroke-linejoin: miter; stroke-miterlimit: 4; is-custom-font: none; font-file-url: none; fill: rgb(252,206,37); fill-rule: nonzero; opacity: 1;" transform=" translate(-157.85, -211.65)" d="M 184.6 211.2 c -4.7 1.1 -9.7 1.5 -14.5 1.5 c -9.2 0 -18.4 -1.6 -27.5 -3.2 c -4 -0.7 -8.6 -1.9 -11.3 -4.6 c -0.1 0.6 -0.2 1.2 -0.2 1.8 c 0.1 3.1 2.1 5.9 5.4 7.6 c 4.3 2.3 17.7 4.1 29.8 4.1 c 6.9 0 12 -0.6 13.7 -1.7 C 181.8 215.8 183.4 213.7 184.6 211.2 z" stroke-linecap="round"/>
</g>
		<g transform="matrix(1 0 0 1 -40.05 -40.65)" id="Layer_1">
<path style="stroke: none; stroke-width: 1; stroke-dasharray: none; stroke-linecap: butt; stroke-dashoffset: 0; stroke-linejoin: miter; stroke-miterlimit: 4; is-custom-font: none; font-file-url: none; fill: rgb(252,204,36); fill-rule: nonzero; opacity: 1;" transform=" translate(-88.85, -88.25)" d="M 64.3 137 c -0.6 1.3 -1.2 2.7 -1.8 4.1 c 4.8 -6.1 9.9 -12 15.8 -17.1 c 3 -2.7 6.2 -5.1 9.1 -7.8 c 15.1 -13.7 24.6 -33.2 26 -53.5 c 0.6 -8.5 -0.2 -17.2 1.4 -25.6 c 0.1 -0.6 0.2 -1.1 0.4 -1.7 c -1.1 0 -2.4 0.2 -3.7 0.5 c -4 1.1 -4.6 7.9 -5.5 17.2 c -1 10.5 -2.3 24.8 -9.6 38 c -6.8 12.3 -12.2 18.3 -17.1 23.7 C 74.2 120.6 69.7 125.7 64.3 137 z" stroke-linecap="round"/>
</g>
		<g transform="matrix(1 0 0 1 -25.878 33.75)" id="Layer_1">
<path style="stroke: none; stroke-width: 1; stroke-dasharray: none; stroke-linecap: butt; stroke-dashoffset: 0; stroke-linejoin: miter; stroke-miterlimit: 4; is-custom-font: none; font-file-url: none; fill: rgb(252,204,36); fill-rule: nonzero; opacity: 1;" transform=" translate(-103.0221, -162.65)" d="M 75.1 212.4 c 13.7 8.8 34.4 10.1 45.5 10.1 c 10.5 0 20.7 -1.1 28.2 -3 c -5.7 -0.8 -10.6 -1.8 -13.2 -3.2 c -4 -2.1 -6.3 -5.5 -6.5 -9.4 c -0.1 -3.5 1.6 -6.8 4.6 -8.7 c 1.6 -1 5.3 -2 10.1 -2.8 c -2.8 -0.6 -5.1 -1.4 -6.7 -2.2 c -4.5 -2.4 -7.2 -6.2 -7.3 -10.6 c -0.1 -4 1.8 -7.6 5.2 -9.8 c 1.8 -1.2 6.4 -2.3 12.2 -3.3 c -4.1 -0.8 -7.4 -1.8 -9.5 -2.9 c -4.8 -2.5 -7.7 -6.7 -7.8 -11.3 c -0.2 -4.2 1.9 -8.2 5.6 -10.5 c 1.8 -1.2 6.3 -2.3 12.1 -3.3 c -2.7 -0.7 -5 -1.4 -6.5 -2.3 c -4.5 -2.5 -7.1 -6.6 -7.3 -11.2 c -0.2 -4.3 1.8 -8.2 5.3 -10.5 c 0.1 0 0.1 -0.1 0.2 -0.1 c -6.3 -3.8 -10.5 -8.5 -12.4 -14.1 c -0.1 -0.2 -0.1 -0.3 -0.2 -0.5 c -2.4 4 -2.7 9.4 -3.7 14.1 c -2.6 12.1 -11.4 21.8 -20.6 30 c -7.1 6.3 -14.8 12.1 -23.5 15.8 c -6.8 2.9 -14.2 4.5 -21.5 4 C 56.3 184.8 60.9 203.3 75.1 212.4 z M 118.1 151.1 c -6.1 7.4 -6.8 17.8 -6.6 27.9 c 0.1 7.3 0.5 15.7 3.6 23.3 c 0.2 0.5 0 1.1 -0.6 1.3 c -0.1 0.1 -0.3 0.1 -0.4 0.1 c -0.4 0 -0.8 -0.2 -1 -0.6 c -3.2 -7.9 -3.6 -16.5 -3.7 -24 c -0.2 -10.5 0.6 -21.4 7.1 -29.3 c 0.4 -0.4 1 -0.5 1.4 -0.1 C 118.4 150 118.5 150.6 118.1 151.1 z M 74.3 166.3 c 19.1 -5.4 36.5 -17.8 47.7 -34.1 c 0.3 -0.5 1 -0.6 1.4 -0.3 c 0.5 0.3 0.6 1 0.3 1.4 c -11.6 16.7 -29.4 29.4 -48.9 34.9 c -0.1 0 -0.2 0 -0.3 0 c -0.4 0 -0.9 -0.3 -1 -0.7 C 73.4 167.1 73.7 166.5 74.3 166.3 z" stroke-linecap="round"/>
</g>
		<g transform="matrix(1 0 0 1 -36.9765 55.1698)" id="Layer_1">
<path style="stroke: none; stroke-width: 1; stroke-dasharray: none; stroke-linecap: butt; stroke-dashoffset: 0; stroke-linejoin: miter; stroke-miterlimit: 4; is-custom-font: none; font-file-url: none; fill: rgb(253,234,81); fill-rule: nonzero; opacity: 1;" transform=" translate(-91.9235, -184.0699)" d="M 100.8 160.2 c 1 -0.4 2.2 -0.5 3 0.2 c 0.4 0.4 0.6 1 0.8 1.5 c 1.6 6.1 -0.3 12.6 -0.7 18.9 c -0.3 4.4 0.2 8.9 1.5 13.2 c 0.6 2 1.3 4.1 1.2 6.1 c -0.3 4.3 -4.4 7.6 -8.6 8.1 c -4.3 0.4 -8.5 -1.5 -11.7 -4.3 c -7.3 -6.2 -10.7 -16.6 -8.3 -25.9 c 0.3 -1.1 0.6 -2.2 1.3 -3.2 c 2.1 -3.3 6.4 -4.1 9.7 -6.1 C 93.1 166.3 96.2 161.9 100.8 160.2 z" stroke-linecap="round"/>
</g>
		<g transform="matrix(1 0 0 1 37.9093 -10.9185)" id="Layer_1">
<path style="stroke: none; stroke-width: 1; stroke-dasharray: none; stroke-linecap: butt; stroke-dashoffset: 0; stroke-linejoin: miter; stroke-miterlimit: 4; is-custom-font: none; font-file-url: none; fill: rgb(255,249,223); fill-rule: nonzero; opacity: 1;" transform=" translate(-166.8093, -117.9815)" d="M 176.6 116.9 c -2.5 -1 -20.5 -1.9 -20 2.3 c 0 0.4 0.3 0.7 0.7 0.7 c 0.1 0 0.1 0 0.2 0 c 0.4 0 0.7 -0.4 0.6 -0.7 c 0.4 1 8.5 -0.6 9.8 -0.7 c 3 -0.1 5.9 0.3 8.8 -0.4 C 177.2 117.9 177.1 117.1 176.6 116.9 z" stroke-linecap="round"/>
</g>
		<g transform="matrix(1 0 0 1 54.45 -10.8)" id="Layer_1">
<path style="stroke: none; stroke-width: 1; stroke-dasharray: none; stroke-linecap: butt; stroke-dashoffset: 0; stroke-linejoin: miter; stroke-miterlimit: 4; is-custom-font: none; font-file-url: none; fill: rgb(255,249,223); fill-rule: nonzero; opacity: 1;" transform=" translate(-183.35, -118.1)" d="M 186.1 117.4 c -1.5 -1 -4 -0.8 -5.5 0.1 c -0.4 0.3 -0.4 0.9 0 1.2 c 1.5 0.9 4.1 1.1 5.5 0.1 C 186.5 118.3 186.5 117.7 186.1 117.4 z" stroke-linecap="round"/>
</g>
		<g transform="matrix(1 0 0 1 25.4638 19.0499)" id="Layer_1">
<path style="stroke: none; stroke-width: 1; stroke-dasharray: none; stroke-linecap: butt; stroke-dashoffset: 0; stroke-linejoin: miter; stroke-miterlimit: 4; is-custom-font: none; font-file-url: none; fill: rgb(255,249,223); fill-rule: nonzero; opacity: 1;" transform=" translate(-154.3638, -147.9499)" d="M 160.1 147.6 c -3.1 -1.7 -8.5 -1.1 -11.4 0.8 c -0.4 0.3 -0.3 0.9 0.2 0.9 c 1.8 0 3.6 -0.4 5.4 -0.6 c 1.9 -0.2 3.8 0 5.6 -0.5 C 160.3 148.2 160.4 147.8 160.1 147.6 z" stroke-linecap="round"/>
</g>
		<g transform="matrix(1 0 0 1 26.506 47.7892)" id="Layer_1">
<path style="stroke: none; stroke-width: 1; stroke-dasharray: none; stroke-linecap: butt; stroke-dashoffset: 0; stroke-linejoin: miter; stroke-miterlimit: 4; is-custom-font: none; font-file-url: none; fill: rgb(255,249,223); fill-rule: nonzero; opacity: 1;" transform=" translate(-155.406, -176.6892)" d="M 163.6 175.3 c -4.2 -2.4 -11.8 0.3 -16 1.8 c -1.2 0.4 -0.7 2.2 0.5 1.9 c 2.8 -0.8 5.6 -1.4 8.5 -1.7 c 2.4 -0.3 4.8 0.1 7 -1 C 164 176 164 175.4 163.6 175.3 z" stroke-linecap="round"/>
</g>
		<g transform="matrix(1 0 0 1 39.7125 47.5722)" id="Layer_1">
<path style="stroke: none; stroke-width: 1; stroke-dasharray: none; stroke-linecap: butt; stroke-dashoffset: 0; stroke-linejoin: miter; stroke-miterlimit: 4; is-custom-font: none; font-file-url: none; fill: rgb(255,249,223); fill-rule: nonzero; opacity: 1;" transform=" translate(-168.6125, -176.4722)" d="M 170.8 176 c -0.6 -0.3 -1 -0.4 -1.7 -0.4 c -0.8 0 -1.5 0.1 -2.3 0.2 c -0.8 0.1 -0.8 1.2 0 1.3 c 0.7 0.1 1.4 0.1 2 0.2 c 0.3 0 0.8 0.1 1.1 0 c 0.3 -0.1 0.6 -0.3 0.9 -0.4 C 171.1 176.6 171.1 176.1 170.8 176 z" stroke-linecap="round"/>
</g>
		<g transform="matrix(1 0 0 1 25.3986 71.0696)" id="Layer_1">
<path style="stroke: none; stroke-width: 1; stroke-dasharray: none; stroke-linecap: butt; stroke-dashoffset: 0; stroke-linejoin: miter; stroke-miterlimit: 4; is-custom-font: none; font-file-url: none; fill: rgb(255,249,223); fill-rule: nonzero; opacity: 1;" transform=" translate(-154.2986, -199.9696)" d="M 159.6 199.2 c -3 -1.5 -7.5 -0.2 -10.4 0.8 c -0.9 0.3 -0.5 1.6 0.4 1.4 c 1.8 -0.4 3.6 -0.7 5.5 -0.8 c 1.5 -0.1 3 0.2 4.5 -0.3 C 159.9 200.2 160.1 199.4 159.6 199.2 z" stroke-linecap="round"/>
</g>
		<g transform="matrix(1 0 0 1 36.353 72.1479)" id="Layer_1">
<path style="stroke: none; stroke-width: 1; stroke-dasharray: none; stroke-linecap: butt; stroke-dashoffset: 0; stroke-linejoin: miter; stroke-miterlimit: 4; is-custom-font: none; font-file-url: none; fill: rgb(255,249,223); fill-rule: nonzero; opacity: 1;" transform=" translate(-165.2531, -201.0479)" d="M 166.9 201.1 c -0.8 -0.6 -2 -0.6 -2.9 -0.7 c -0.6 -0.1 -0.8 1 -0.1 1.1 c 1 0.1 2.1 0.4 3 0 C 167.1 201.4 167.1 201.2 166.9 201.1 z" stroke-linecap="round"/>
</g>
		<g transform="matrix(1 0 0 1 -33.1334 16.8321)" id="Layer_1">
<path style="stroke: none; stroke-width: 1; stroke-dasharray: none; stroke-linecap: butt; stroke-dashoffset: 0; stroke-linejoin: miter; stroke-miterlimit: 4; is-custom-font: none; font-file-url: none; fill: rgb(253,157,38); fill-rule: nonzero; opacity: 1;" transform=" translate(-95.7666, -145.7321)" d="M 102 138.8 c -2.4 1.5 -4 4.1 -6 6.2 c -2.4 2.5 -4.9 4.7 -7.3 7.2 c -0.3 0.3 0.1 0.7 0.4 0.5 c 2.8 -1.5 5.3 -3.5 7.7 -5.6 c 2.3 -2 5.2 -4.6 6.1 -7.5 C 103.1 139 102.5 138.5 102 138.8 z" stroke-linecap="round"/>
</g>
		<g transform="matrix(1 0 0 1 -22.1845 3.3184)" id="Layer_1">
<path style="stroke: none; stroke-width: 1; stroke-dasharray: none; stroke-linecap: butt; stroke-dashoffset: 0; stroke-linejoin: miter; stroke-miterlimit: 4; is-custom-font: none; font-file-url: none; fill: rgb(253,157,38); fill-rule: nonzero; opacity: 1;" transform=" translate(-106.7155, -132.2185)" d="M 108.9 130 c -0.1 -0.5 -0.5 -1 -1.1 -0.8 c -0.8 0.3 -1.5 1 -2 1.7 c -0.5 0.8 -1.2 1.9 -1.3 2.9 c -0.1 0.9 0.7 1.9 1.7 1.3 c 0.7 -0.5 1.3 -1.4 1.8 -2.1 C 108.5 132.1 109.1 131 108.9 130 z" stroke-linecap="round"/>
</g>
		<g transform="matrix(1 0 0 1 -43.3164 67.3545)" id="Layer_1">
<path style="stroke: none; stroke-width: 1; stroke-dasharray: none; stroke-linecap: butt; stroke-dashoffset: 0; stroke-linejoin: miter; stroke-miterlimit: 4; is-custom-font: none; font-file-url: none; fill: rgb(253,157,38); fill-rule: nonzero; opacity: 1;" transform=" translate(-85.5836, -196.2545)" d="M 91 203.4 c -1.8 -2.3 -3.8 -4.4 -5.5 -6.8 c -1.7 -2.5 -2.6 -5.3 -3.8 -7.9 c -0.4 -0.8 -1.7 -0.4 -1.6 0.4 c 0.5 5.8 4.8 12.7 10.1 15.1 C 90.6 204.4 91.3 203.9 91 203.4 z" stroke-linecap="round"/>
</g>
		<g transform="matrix(1 0 0 1 -32.737 76.9759)" id="Layer_1">
<path style="stroke: none; stroke-width: 1; stroke-dasharray: none; stroke-linecap: butt; stroke-dashoffset: 0; stroke-linejoin: miter; stroke-miterlimit: 4; is-custom-font: none; font-file-url: none; fill: rgb(253,157,38); fill-rule: nonzero; opacity: 1;" transform=" translate(-96.163, -205.8759)" d="M 99.3 206 c -1 -0.4 -1.9 -0.8 -3 -1 c -1 -0.1 -2.1 -0.2 -3.1 0 c -0.5 0.1 -0.6 0.9 -0.1 1.1 c 0.9 0.4 1.8 0.6 2.7 0.7 c 1.2 0.2 2.2 -0.1 3.4 -0.2 C 99.6 206.6 99.7 206.1 99.3 206 z" stroke-linecap="round"/>
</g>
</g>
</g>
</svg>