<svg xmlns="http://www.w3.org/2000/svg" xmlns:xlink="http://www.w3.org/1999/xlink" version="1.1" width="1000" height="1000" viewBox="0 0 1000 1000" xml:space="preserve">
<desc>Created with Fabric.js 3.5.0</desc>
<defs>
</defs>
<rect x="0" y="0" width="100%" height="100%" fill="#ffffff"/>
<g transform="matrix(1.8311 0 0 1.8311 500.0052 500.0062)" id="39491">
<radialGradient id="SVGID_342" gradientUnits="userSpaceOnUse" gradientTransform="matrix(1 0 0 1 0 0)" cx="169.33" cy="201.41" r="186.06" fx="169.33" fy="201.41">
<stop offset="0%" style="stop-color:rgb(253,210,88);stop-opacity: 1"/>
<stop offset="100%" style="stop-color:rgb(238,170,38);stop-opacity: 1"/>
</radialGradient>
<path style="stroke: none; stroke-width: 1; stroke-dasharray: none; stroke-linecap: butt; stroke-dashoffset: 0; stroke-linejoin: miter; stroke-miterlimit: 4; is-custom-font: none; font-file-url: none; fill: url(#SVGID_342); fill-rule: nonzero; opacity: 1;" vector-effect="non-scaling-stroke" transform=" translate(-169.3083, -201.4174)" d="M 171.59 402.83 h -4.72 c -14.31 -6 -29 -11.29 -42.86 -18.21 C 74.68 360 38.62 322.86 18.9 270.77 C 5.54 235.5 0.88 198.67 0.18 161.32 c -0.54 -28.83 0.27 -57.69 0.48 -86.53 c 0.09 -11 5.37 -16 16.46 -16.56 c 11.9 -0.55 23.86 -1 35.66 -2.54 c 28.59 -3.75 55.31 -13.06 79 -29.69 c 9.41 -6.59 18 -14.32 26.9 -21.69 c 6.79 -5.66 14.29 -5.82 20.95 0 c 2 1.72 3.84 3.56 5.79 5.32 a 180.2 180.2 0 0 0 69.1 39.32 c 21.76 6.61 44 9.22 66.7 9.4 c 11.28 0.09 16.44 5.47 16.57 16.78 c 0.26 21.63 0.71 43.26 0.82 64.89 c 0.16 31.12 -1.75 62.08 -8.09 92.65 C 316 302.67 277 353.89 212.69 385.47 C 199.36 392 185.31 397.08 171.59 402.83 Z m 55.45 -264 L 149 213 l -35.17 -39 L 92.27 193.17 c 0.93 1.11 1.73 2.12 2.59 3.07 q 20.3 22.48 40.6 45 c 7.73 8.51 15.75 8.75 24.14 0.85 q 42 -39.48 84 -79 a 35.59 35.59 0 0 1 3.65 -2.61 Z" stroke-linecap="round"/>
</g>
</svg>