<svg xmlns="http://www.w3.org/2000/svg" xmlns:xlink="http://www.w3.org/1999/xlink" version="1.1" width="1000" height="1000" viewBox="0 0 1000 1000" xml:space="preserve">
<desc>Created with Fabric.js 3.5.0</desc>
<defs>
</defs>
<rect x="0" y="0" width="100%" height="100%" fill="#ffffff"/>
<g transform="matrix(3.6975 0 0 3.6975 499.9995 499.9995)" id="324060">
<g style="" vector-effect="non-scaling-stroke">
		<g transform="matrix(1 0 0 1 -3.1376 -93.4321)" id="Layer_1">
<path style="stroke: none; stroke-width: 1; stroke-dasharray: none; stroke-linecap: butt; stroke-dashoffset: 0; stroke-linejoin: miter; stroke-miterlimit: 4; is-custom-font: none; font-file-url: none; fill: rgb(255,249,223); fill-rule: nonzero; opacity: 1;" transform=" translate(-125.7624, -35.4679)" d="M 126.9 34.3 c -0.9 -0.9 -1.9 -1.4 -3.2 -1.6 c -0.5 -0.1 -0.9 0.6 -0.6 1 c 0.6 0.8 1.4 1.5 2 2.3 c 0.8 0.8 1.3 1.8 2.4 2.2 c 0.5 0.2 0.9 -0.3 1 -0.7 C 128.7 36.3 127.8 35.1 126.9 34.3 z" stroke-linecap="round"/>
</g>
		<g transform="matrix(1 0 0 1 0.6885 -78.373)" id="Layer_1">
<path style="stroke: none; stroke-width: 1; stroke-dasharray: none; stroke-linecap: butt; stroke-dashoffset: 0; stroke-linejoin: miter; stroke-miterlimit: 4; is-custom-font: none; font-file-url: none; fill: rgb(255,249,223); fill-rule: nonzero; opacity: 1;" transform=" translate(-129.5885, -50.527)" d="M 130.9 51.1 c -0.1 -3.2 -0.3 -6.4 -1.2 -9.4 c -0.2 -0.7 -1.2 -0.5 -1.2 0.2 c -0.2 3.1 0 6.2 0 9.3 c 0 2.7 -0.8 5.6 0.2 8.1 c 0.2 0.5 0.9 0.7 1.2 0.2 C 131.4 57 130.9 53.9 130.9 51.1 z" stroke-linecap="round"/>
</g>
		<g transform="matrix(1 0 0 1 -315.5501 -15.3)" id="Layer_1">
<path style="stroke: none; stroke-width: 1; stroke-dasharray: none; stroke-linecap: butt; stroke-dashoffset: 0; stroke-linejoin: miter; stroke-miterlimit: 4; is-custom-font: none; font-file-url: none; fill: rgb(253,234,81); fill-rule: nonzero; opacity: 1;" transform=" translate(186.6501, -113.6)" d="M -154 200.9 c -4 -2.1 -6.3 -5.5 -6.5 -9.4 c -0.1 -3.5 1.6 -6.8 4.6 -8.7 c 1.6 -1 5.3 -2 10.1 -2.8 c -2.8 -0.6 -5.1 -1.4 -6.7 -2.2 c -4.5 -2.4 -7.2 -6.2 -7.3 -10.6 c -0.1 -4 1.8 -7.6 5.2 -9.8 c 1.8 -1.2 6.4 -2.3 12.2 -3.3 c -4.1 -0.8 -7.4 -1.8 -9.5 -2.9 c -4.8 -2.5 -7.7 -6.7 -7.8 -11.3 c -0.2 -4.2 1.9 -8.2 5.6 -10.5 c 1.8 -1.2 6.3 -2.3 12.1 -3.3 c -2.7 -0.7 -5 -1.4 -6.5 -2.3 c -4.5 -2.5 -7.1 -6.6 -7.3 -11.2 c -0.2 -4.3 1.8 -8.2 5.3 -10.5 c 0.1 0 0.1 -0.1 0.2 -0.1 c -6.3 -3.8 -10.5 -8.5 -12.4 -14.1 c -2.8 -8.5 -0.9 -16.1 1.1 -24.1 c 1.8 -7.1 3.6 -14.4 2.1 -22.6 C -162.3 27 -167.1 20 -174.3 20 c -1.2 0 -2.4 0.2 -3.7 0.5 c -4 1.1 -4.6 7.9 -5.5 17.2 c -1 10.5 -2.3 24.8 -9.6 38 c -6.8 12.3 -12.2 18.3 -17.1 23.7 c -5.2 5.8 -9.7 10.9 -15.1 22.2 c -10.1 21.5 -12.1 60.8 10.8 75.5 c 13.7 8.8 34.4 10.1 45.5 10.1 c 10.5 0 20.7 -1.1 28.2 -3 C -146.5 203.4 -151.4 202.3 -154 200.9 z M -171.5 135.7 c -6.1 7.4 -6.8 17.8 -6.6 27.9 c 0.1 7.3 0.5 15.7 3.6 23.3 c 0.2 0.5 0 1.1 -0.6 1.3 c -0.1 0.1 -0.3 0.1 -0.4 0.1 c -0.4 0 -0.8 -0.2 -1 -0.6 c -3.2 -7.9 -3.6 -16.5 -3.7 -24 c -0.2 -10.5 0.6 -21.4 7.1 -29.3 c 0.4 -0.4 1 -0.5 1.4 -0.1 C -171.2 134.6 -171.1 135.3 -171.5 135.7 z M -165.9 118.1 c -11.6 16.7 -29.4 29.4 -48.9 34.9 c -0.1 0 -0.2 0 -0.3 0 c -0.4 0 -0.9 -0.3 -1 -0.7 c -0.2 -0.5 0.2 -1.1 0.7 -1.3 c 19.1 -5.4 36.5 -17.8 47.7 -34.1 c 0.3 -0.5 1 -0.6 1.4 -0.3 C -165.7 117 -165.6 117.7 -165.9 118.1 z" stroke-linecap="round"/>
</g>
		<g transform="matrix(1 0 0 1 -259.6145 63.35)" id="Layer_1">
<path style="stroke: none; stroke-width: 1; stroke-dasharray: none; stroke-linecap: butt; stroke-dashoffset: 0; stroke-linejoin: miter; stroke-miterlimit: 4; is-custom-font: none; font-file-url: none; fill: rgb(253,234,81); fill-rule: nonzero; opacity: 1;" transform=" translate(130.7145, -192.25)" d="M -117.5 182.9 c -7 0 -15.1 -0.6 -22 -1.6 c -7.5 0.9 -13.5 2.2 -15.3 3.3 c -2.4 1.5 -3.8 4.1 -3.7 6.9 c 0.1 3.1 2.1 5.9 5.4 7.6 c 4.3 2.3 17.7 4.1 29.8 4.1 c 6.9 0 12 -0.6 13.7 -1.7 c 3.2 -2 6.1 -7.4 6.6 -12.3 c 0.3 -2.9 -0.3 -5.1 -1.6 -6.4 c -0.3 -0.2 -0.6 -0.5 -1 -0.7 C -109.2 182.7 -113.7 182.9 -117.5 182.9 C -117.5 182.9 -117.5 182.9 -117.5 182.9 z" stroke-linecap="round"/>
</g>
		<g transform="matrix(1 0 0 1 -254.9649 39.25)" id="Layer_1">
<path style="stroke: none; stroke-width: 1; stroke-dasharray: none; stroke-linecap: butt; stroke-dashoffset: 0; stroke-linejoin: miter; stroke-miterlimit: 4; is-custom-font: none; font-file-url: none; fill: rgb(253,234,81); fill-rule: nonzero; opacity: 1;" transform=" translate(126.0649, -168.15)" d="M -99.6 155.6 c -4 1 -9.9 1.2 -14.7 1.2 c 0 0 0 0 0 0 c -6.7 0 -14.4 -0.5 -21.2 -1.4 c -8.8 1.1 -16 2.6 -18.1 3.9 c -2.8 1.8 -4.4 4.7 -4.3 8 c 0.1 3.6 2.4 6.8 6.2 8.8 c 5.6 2.9 22.1 4.8 34.1 4.8 c 8 0 13.7 -0.7 15.7 -2 c 3.7 -2.3 7 -8.5 7.6 -14.1 c 0.3 -3.3 -0.3 -6 -1.9 -7.5 C -96.7 156.6 -97.9 156 -99.6 155.6 z" stroke-linecap="round"/>
</g>
		<g transform="matrix(1 0 0 1 -252.3068 11.9)" id="Layer_1">
<path style="stroke: none; stroke-width: 1; stroke-dasharray: none; stroke-linecap: butt; stroke-dashoffset: 0; stroke-linejoin: miter; stroke-miterlimit: 4; is-custom-font: none; font-file-url: none; fill: rgb(253,234,81); fill-rule: nonzero; opacity: 1;" transform=" translate(123.4068, -140.8)" d="M -96.6 126.9 c -3.5 2 -12.1 2.4 -17 2.4 c -7.2 0 -15.6 -0.6 -22.7 -1.8 c -8.3 1.1 -14.9 2.6 -16.9 3.9 c -3 1.9 -4.8 5.1 -4.6 8.6 c 0.1 3.9 2.6 7.4 6.7 9.6 c 6 3.2 23.8 5.1 36.8 5.1 c 8.6 0 14.8 -0.8 17 -2.2 c 4 -2.5 7.6 -9.2 8.2 -15.3 c 0.4 -3.6 -0.4 -6.5 -2.1 -8.1 C -92.1 128.2 -94 127.5 -96.6 126.9 z" stroke-linecap="round"/>
</g>
		<g transform="matrix(1 0 0 1 -289.5756 -15.35)" id="Layer_1">
<path style="stroke: none; stroke-width: 1; stroke-dasharray: none; stroke-linecap: butt; stroke-dashoffset: 0; stroke-linejoin: miter; stroke-miterlimit: 4; is-custom-font: none; font-file-url: none; fill: rgb(215,144,84); fill-rule: nonzero; opacity: 1;" transform=" translate(160.6756, -113.55)" d="M -89.7 127.7 c -1 -1 -2.6 -1.8 -4.9 -2.4 c 3.5 -3.4 6.3 -9.5 6.9 -15.3 c 0.4 -4.3 -0.4 -7.7 -2.5 -9.9 c -2.6 -2.6 -9.3 -4 -20 -4 c -13.5 0 -30.7 2.3 -37.9 4.8 c -6.6 -3.7 -11 -8.3 -12.8 -13.6 c -2.6 -7.9 -0.8 -15.2 1.2 -22.9 c 1.8 -7.3 3.8 -14.8 2.1 -23.5 c -2.9 -15.5 -8.3 -23 -16.7 -23 c -1.3 0 -2.8 0.2 -4.2 0.6 c -5.4 1.4 -6.1 8.8 -7 19 c -1 10.9 -2.3 24.4 -9.4 37.2 c -6.7 12 -11.8 17.8 -16.8 23.3 c -5.1 5.7 -9.9 11.1 -15.4 22.7 c -10.5 22.2 -12.4 62.8 11.5 78.1 c 14.2 9.1 35.3 10.4 46.6 10.4 c 0 0 0 0 0 0 c 13 0 25.5 -1.8 33.5 -4.5 c 4.2 0.4 8.4 0.6 12.3 0.6 c 0 0 0 0 0 0 c 5.3 0 12.1 -0.4 14.8 -2 c 3.7 -2.4 7 -8.3 7.6 -13.8 c 0.4 -3.4 -0.4 -6.2 -2.1 -7.9 c 0.9 -0.3 1.7 -0.6 2.3 -1 c 4.2 -2.7 7.9 -9.4 8.6 -15.6 c 0.4 -4 -0.5 -7.2 -2.6 -9.2 c -0.5 -0.5 -1.1 -0.9 -1.9 -1.3 c 0.1 -0.1 0.3 -0.1 0.4 -0.2 c 4.5 -2.9 8.5 -10.1 9.2 -16.8 C -86.6 133.2 -87.5 129.8 -89.7 127.7 z M -89.1 137.3 c -0.6 6 -4.2 12.7 -8.2 15.3 c -2.2 1.4 -8.4 2.2 -17 2.2 c -13 0 -30.8 -2 -36.8 -5.1 c -4.1 -2.2 -6.6 -5.7 -6.7 -9.6 c -0.1 -3.5 1.6 -6.7 4.6 -8.6 c 2.1 -1.3 8.6 -2.8 16.9 -3.9 c 7 1.2 15.5 1.8 22.7 1.8 c 4.9 0 13.5 -0.3 17 -2.4 c 2.6 0.6 4.5 1.3 5.5 2.3 C -89.4 130.8 -88.7 133.7 -89.1 137.3 z M -94.1 164.7 c -0.6 5.6 -3.9 11.8 -7.6 14.1 c -2 1.3 -7.8 2 -15.7 2 c -12.1 0 -28.6 -1.8 -34.1 -4.8 c -3.8 -2 -6.1 -5.2 -6.2 -8.8 c -0.1 -3.2 1.5 -6.2 4.3 -8 c 2.1 -1.3 9.3 -2.8 18.1 -3.9 c 6.9 0.9 14.6 1.4 21.2 1.4 c 0 0 0 0 0 0 c 4.8 0 10.6 -0.2 14.7 -1.2 c 1.6 0.5 2.9 1 3.5 1.7 C -94.5 158.8 -93.8 161.4 -94.1 164.7 z M -104.6 182.8 c 1.4 1.3 1.9 3.6 1.6 6.4 c -0.5 4.9 -3.4 10.2 -6.6 12.3 c -1.7 1.1 -6.9 1.7 -13.7 1.7 c -12.1 0 -25.5 -1.9 -29.8 -4.1 c -3.3 -1.7 -5.3 -4.5 -5.4 -7.6 c -0.1 -2.8 1.3 -5.3 3.7 -6.9 c 1.8 -1.1 7.8 -2.4 15.3 -3.3 c 6.9 1 15.1 1.6 22 1.6 c 0 0 0 0 0 0 c 3.8 0 8.3 -0.2 11.8 -0.8 C -105.2 182.3 -104.9 182.6 -104.6 182.8 z M -214.5 197.1 c -22.9 -14.6 -20.9 -53.9 -10.8 -75.5 c 5.3 -11.3 9.8 -16.3 15.1 -22.2 c 4.8 -5.4 10.3 -11.5 17.1 -23.7 c 7.3 -13.2 8.6 -27.6 9.6 -38 c 0.9 -9.4 1.5 -16.2 5.5 -17.2 c 1.3 -0.3 2.5 -0.5 3.7 -0.5 c 7.2 0 12 7 14.7 21.4 c 1.5 8.3 -0.3 15.6 -2.1 22.6 c -2 8 -4 15.6 -1.1 24.1 c 1.8 5.5 6 10.2 12.4 14.1 c -0.1 0 -0.2 0.1 -0.2 0.1 c -3.5 2.3 -5.4 6.3 -5.3 10.5 c 0.2 4.6 2.9 8.7 7.3 11.2 c 1.5 0.9 3.8 1.6 6.5 2.3 c -5.8 1 -10.3 2.2 -12.1 3.3 c -3.7 2.3 -5.8 6.2 -5.6 10.5 c 0.2 4.7 3 8.8 7.8 11.3 c 2.1 1.1 5.5 2.1 9.5 2.9 c -5.8 0.9 -10.3 2.1 -12.2 3.3 c -3.4 2.1 -5.4 5.8 -5.2 9.8 c 0.2 4.4 2.8 8.2 7.3 10.6 c 1.6 0.8 3.9 1.6 6.7 2.2 c -4.8 0.8 -8.5 1.8 -10.1 2.8 c -3 1.9 -4.8 5.2 -4.6 8.7 c 0.1 3.9 2.5 7.3 6.5 9.4 c 2.6 1.4 7.6 2.5 13.2 3.2 c -7.5 1.9 -17.7 3 -28.2 3 C -180.1 207.2 -200.7 205.9 -214.5 197.1 z M -91.7 101.6 c 1.6 1.7 2.3 4.6 1.9 8.2 c -0.6 6 -4 12.7 -7.7 15.2 c -2 1.4 -8.1 2.2 -16.2 2.2 c -12.1 0 -28.5 -1.9 -34 -5 c -3.8 -2.1 -6.1 -5.6 -6.3 -9.5 c -0.1 -3.6 1.5 -6.8 4.4 -8.8 c 3.7 -2.5 23 -5.7 39.3 -5.7 C -100.4 98.3 -93.8 99.4 -91.7 101.6 z" stroke-linecap="round"/>
</g>
		<g transform="matrix(1 0 0 1 -250.747 -16.15)" id="Layer_1">
<path style="stroke: none; stroke-width: 1; stroke-dasharray: none; stroke-linecap: butt; stroke-dashoffset: 0; stroke-linejoin: miter; stroke-miterlimit: 4; is-custom-font: none; font-file-url: none; fill: rgb(253,234,81); fill-rule: nonzero; opacity: 1;" transform=" translate(121.847, -112.75)" d="M -149.6 103.9 c -2.9 1.9 -4.5 5.2 -4.4 8.8 c 0.2 3.9 2.4 7.4 6.3 9.5 c 5.5 3.1 22 5 34 5 c 8.1 0 14.1 -0.8 16.2 -2.2 c 3.7 -2.5 7.1 -9.2 7.7 -15.2 c 0.4 -3.6 -0.3 -6.6 -1.9 -8.2 c -2.1 -2.2 -8.7 -3.3 -18.6 -3.3 C -126.6 98.3 -145.8 101.4 -149.6 103.9 z" stroke-linecap="round"/>
</g>
		<g transform="matrix(1 0 0 1 -319.7419 5.9266)" id="Layer_1">
<path style="stroke: none; stroke-width: 1; stroke-dasharray: none; stroke-linecap: butt; stroke-dashoffset: 0; stroke-linejoin: miter; stroke-miterlimit: 4; is-custom-font: none; font-file-url: none; fill: rgb(215,144,84); fill-rule: nonzero; opacity: 1;" transform=" translate(190.8419, -134.8266)" d="M -167.6 117 c -11.3 16.3 -28.7 28.7 -47.7 34.1 c -0.5 0.2 -0.9 0.7 -0.7 1.3 c 0.1 0.5 0.5 0.7 1 0.7 c 0.1 0 0.2 0 0.3 0 c 19.5 -5.5 37.3 -18.2 48.9 -34.9 c 0.3 -0.5 0.2 -1.1 -0.3 -1.4 C -166.6 116.4 -167.3 116.5 -167.6 117 z" stroke-linecap="round"/>
</g>
		<g transform="matrix(1 0 0 1 -304.6359 32.2727)" id="Layer_1">
<path style="stroke: none; stroke-width: 1; stroke-dasharray: none; stroke-linecap: butt; stroke-dashoffset: 0; stroke-linejoin: miter; stroke-miterlimit: 4; is-custom-font: none; font-file-url: none; fill: rgb(215,144,84); fill-rule: nonzero; opacity: 1;" transform=" translate(175.7359, -161.1727)" d="M -173.1 134.4 c -6.5 7.9 -7.3 18.8 -7.1 29.3 c 0.1 7.5 0.5 16.2 3.7 24 c 0.2 0.4 0.5 0.6 1 0.6 c 0.1 0 0.3 0 0.4 -0.1 c 0.5 -0.2 0.8 -0.8 0.6 -1.3 c -3.1 -7.5 -3.5 -16 -3.6 -23.3 c -0.2 -10.1 0.5 -20.6 6.6 -27.9 c 0.4 -0.4 0.3 -1.1 -0.1 -1.4 C -172 133.9 -172.7 134 -173.1 134.4 z" stroke-linecap="round"/>
</g>
		<g transform="matrix(1 0 0 1 -251.3554 -11.95)" id="Layer_1">
<path style="stroke: none; stroke-width: 1; stroke-dasharray: none; stroke-linecap: butt; stroke-dashoffset: 0; stroke-linejoin: miter; stroke-miterlimit: 4; is-custom-font: none; font-file-url: none; fill: rgb(252,206,37); fill-rule: nonzero; opacity: 1;" transform=" translate(122.4554, -116.95)" d="M -91.1 115.7 c -3.7 1.8 -7.7 3.1 -11.7 3.8 c -10.5 1.8 -21.2 -0.2 -31.7 -2.2 c -4.4 -0.9 -9 -1.8 -12.7 -4.3 c -2.2 -1.5 -4.1 -3.8 -5 -6.3 c -1.1 1.7 -1.7 3.8 -1.6 6 c 0.2 3.9 2.4 7.4 6.3 9.5 c 5.5 3.1 22 5 34 5 c 8.1 0 14.1 -0.8 16.2 -2.2 C -95 123.3 -92.6 119.7 -91.1 115.7 z" stroke-linecap="round"/>
</g>
		<g transform="matrix(1 0 0 1 -253.6 16.5)" id="Layer_1">
<path style="stroke: none; stroke-width: 1; stroke-dasharray: none; stroke-linecap: butt; stroke-dashoffset: 0; stroke-linejoin: miter; stroke-miterlimit: 4; is-custom-font: none; font-file-url: none; fill: rgb(252,206,37); fill-rule: nonzero; opacity: 1;" transform=" translate(124.7, -145.4)" d="M -109.8 148.3 c -9.1 0.3 -18.1 -0.9 -27.1 -2.2 c -4.5 -0.6 -9.1 -1.3 -13.1 -3.3 c -3 -1.5 -5.7 -3.8 -7.2 -6.7 c -0.5 1.2 -0.7 2.6 -0.7 3.9 c 0.1 3.9 2.6 7.4 6.7 9.6 c 6 3.2 23.8 5.1 36.8 5.1 c 8.6 0 14.8 -0.8 17 -2.2 c 2.3 -1.4 4.4 -4.2 5.9 -7.4 C -97.2 147.2 -103.5 148.1 -109.8 148.3 z" stroke-linecap="round"/>
</g>
		<g transform="matrix(1 0 0 1 -255.5633 43.75)" id="Layer_1">
<path style="stroke: none; stroke-width: 1; stroke-dasharray: none; stroke-linecap: butt; stroke-dashoffset: 0; stroke-linejoin: miter; stroke-miterlimit: 4; is-custom-font: none; font-file-url: none; fill: rgb(252,206,37); fill-rule: nonzero; opacity: 1;" transform=" translate(126.6633, -172.65)" d="M -147.7 170 c -3.7 -0.9 -7.7 -2.6 -9.8 -5.5 c -0.2 0.9 -0.4 1.8 -0.3 2.7 c 0.1 3.6 2.4 6.8 6.2 8.8 c 5.6 2.9 22.1 4.8 34.1 4.8 c 8 0 13.7 -0.7 15.7 -2 c 2.5 -1.6 4.9 -4.9 6.3 -8.7 C -112.5 174.4 -130.6 174.4 -147.7 170 z" stroke-linecap="round"/>
</g>
		<g transform="matrix(1 0 0 1 -260.65 67.45)" id="Layer_1">
<path style="stroke: none; stroke-width: 1; stroke-dasharray: none; stroke-linecap: butt; stroke-dashoffset: 0; stroke-linejoin: miter; stroke-miterlimit: 4; is-custom-font: none; font-file-url: none; fill: rgb(252,206,37); fill-rule: nonzero; opacity: 1;" transform=" translate(131.75, -196.35)" d="M -105 195.9 c -4.7 1.1 -9.7 1.5 -14.5 1.5 c -9.2 0 -18.4 -1.6 -27.5 -3.2 c -4 -0.7 -8.6 -1.9 -11.3 -4.6 c -0.1 0.6 -0.2 1.2 -0.2 1.8 c 0.1 3.1 2.1 5.9 5.4 7.6 c 4.3 2.3 17.7 4.1 29.8 4.1 c 6.9 0 12 -0.6 13.7 -1.7 C -107.8 200.4 -106.2 198.4 -105 195.9 z" stroke-linecap="round"/>
</g>
		<g transform="matrix(1 0 0 1 -329.65 -56.05)" id="Layer_1">
<path style="stroke: none; stroke-width: 1; stroke-dasharray: none; stroke-linecap: butt; stroke-dashoffset: 0; stroke-linejoin: miter; stroke-miterlimit: 4; is-custom-font: none; font-file-url: none; fill: rgb(252,204,36); fill-rule: nonzero; opacity: 1;" transform=" translate(200.75, -72.85)" d="M -225.3 121.6 c -0.6 1.3 -1.2 2.7 -1.8 4.1 c 4.8 -6.1 9.9 -12 15.8 -17.1 c 3 -2.7 6.2 -5.1 9.1 -7.8 c 15.1 -13.7 24.6 -33.2 26 -53.5 c 0.6 -8.5 -0.2 -17.2 1.4 -25.6 c 0.1 -0.6 0.2 -1.1 0.4 -1.7 c -1.1 0 -2.4 0.2 -3.7 0.5 c -4 1.1 -4.6 7.9 -5.5 17.2 c -1 10.5 -2.3 24.8 -9.6 38 c -6.8 12.3 -12.2 18.3 -17.1 23.7 C -215.4 105.3 -219.9 110.3 -225.3 121.6 z" stroke-linecap="round"/>
</g>
		<g transform="matrix(1 0 0 1 -315.478 18.45)" id="Layer_1">
<path style="stroke: none; stroke-width: 1; stroke-dasharray: none; stroke-linecap: butt; stroke-dashoffset: 0; stroke-linejoin: miter; stroke-miterlimit: 4; is-custom-font: none; font-file-url: none; fill: rgb(252,204,36); fill-rule: nonzero; opacity: 1;" transform=" translate(186.5779, -147.35)" d="M -214.5 197.1 c 13.7 8.8 34.4 10.1 45.5 10.1 c 10.5 0 20.7 -1.1 28.2 -3 c -5.7 -0.8 -10.6 -1.8 -13.2 -3.2 c -4 -2.1 -6.3 -5.5 -6.5 -9.4 c -0.1 -3.5 1.6 -6.8 4.6 -8.7 c 1.6 -1 5.3 -2 10.1 -2.8 c -2.8 -0.6 -5.1 -1.4 -6.7 -2.2 c -4.5 -2.4 -7.2 -6.2 -7.3 -10.6 c -0.1 -4 1.8 -7.6 5.2 -9.8 c 1.8 -1.2 6.4 -2.3 12.2 -3.3 c -4.1 -0.8 -7.4 -1.8 -9.5 -2.9 c -4.8 -2.5 -7.7 -6.7 -7.8 -11.3 c -0.2 -4.2 1.9 -8.2 5.6 -10.5 c 1.8 -1.2 6.3 -2.3 12.1 -3.3 c -2.7 -0.7 -5 -1.4 -6.5 -2.3 c -4.5 -2.5 -7.1 -6.6 -7.3 -11.2 c -0.2 -4.3 1.8 -8.2 5.3 -10.5 c 0.1 0 0.1 -0.1 0.2 -0.1 c -6.3 -3.8 -10.5 -8.5 -12.4 -14.1 c -0.1 -0.2 -0.1 -0.3 -0.2 -0.5 c -2.4 4 -2.7 9.4 -3.7 14.1 c -2.6 12.1 -11.4 21.8 -20.6 30 c -7.1 6.3 -14.8 12.1 -23.5 15.8 c -6.8 2.9 -14.2 4.5 -21.5 4 C -233.3 169.5 -228.7 188 -214.5 197.1 z M -171.5 135.7 c -6.1 7.4 -6.8 17.8 -6.6 27.9 c 0.1 7.3 0.5 15.7 3.6 23.3 c 0.2 0.5 0 1.1 -0.6 1.3 c -0.1 0.1 -0.3 0.1 -0.4 0.1 c -0.4 0 -0.8 -0.2 -1 -0.6 c -3.2 -7.9 -3.6 -16.5 -3.7 -24 c -0.2 -10.5 0.6 -21.4 7.1 -29.3 c 0.4 -0.4 1 -0.5 1.4 -0.1 C -171.2 134.6 -171.1 135.3 -171.5 135.7 z M -215.3 151 c 19.1 -5.4 36.5 -17.8 47.7 -34.1 c 0.3 -0.5 1 -0.6 1.4 -0.3 c 0.5 0.3 0.6 1 0.3 1.4 c -11.6 16.7 -29.4 29.4 -48.9 34.9 c -0.1 0 -0.2 0 -0.3 0 c -0.4 0 -0.9 -0.3 -1 -0.7 C -216.2 151.7 -215.9 151.2 -215.3 151 z" stroke-linecap="round"/>
</g>
		<g transform="matrix(1 0 0 1 -326.5765 39.8698)" id="Layer_1">
<path style="stroke: none; stroke-width: 1; stroke-dasharray: none; stroke-linecap: butt; stroke-dashoffset: 0; stroke-linejoin: miter; stroke-miterlimit: 4; is-custom-font: none; font-file-url: none; fill: rgb(253,234,81); fill-rule: nonzero; opacity: 1;" transform=" translate(197.6765, -168.7699)" d="M -188.8 144.9 c 1 -0.4 2.2 -0.5 3 0.2 c 0.4 0.4 0.6 1 0.8 1.5 c 1.6 6.1 -0.3 12.6 -0.7 18.9 c -0.3 4.4 0.2 8.9 1.5 13.2 c 0.6 2 1.3 4.1 1.2 6.1 c -0.3 4.3 -4.4 7.7 -8.6 8.1 c -4.3 0.4 -8.5 -1.5 -11.7 -4.3 c -7.3 -6.2 -10.7 -16.6 -8.3 -25.9 c 0.3 -1.1 0.6 -2.2 1.3 -3.2 c 2.1 -3.3 6.4 -4.1 9.7 -6.1 C -196.5 151 -193.4 146.6 -188.8 144.9 z" stroke-linecap="round"/>
</g>
		<g transform="matrix(1 0 0 1 -251.6907 -26.3185)" id="Layer_1">
<path style="stroke: none; stroke-width: 1; stroke-dasharray: none; stroke-linecap: butt; stroke-dashoffset: 0; stroke-linejoin: miter; stroke-miterlimit: 4; is-custom-font: none; font-file-url: none; fill: rgb(255,249,223); fill-rule: nonzero; opacity: 1;" transform=" translate(122.7907, -102.5815)" d="M -113 101.5 c -2.5 -1 -20.5 -1.9 -20 2.3 c 0 0.4 0.3 0.7 0.7 0.7 c 0.1 0 0.1 0 0.2 0 c 0.4 0 0.7 -0.4 0.6 -0.7 c 0.4 1 8.5 -0.6 9.8 -0.7 c 3 -0.1 5.9 0.3 8.8 -0.4 C -112.4 102.6 -112.5 101.8 -113 101.5 z" stroke-linecap="round"/>
</g>
		<g transform="matrix(1 0 0 1 -235.15 -26.1)" id="Layer_1">
<path style="stroke: none; stroke-width: 1; stroke-dasharray: none; stroke-linecap: butt; stroke-dashoffset: 0; stroke-linejoin: miter; stroke-miterlimit: 4; is-custom-font: none; font-file-url: none; fill: rgb(255,249,223); fill-rule: nonzero; opacity: 1;" transform=" translate(106.25, -102.8)" d="M -103.5 102.1 c -1.5 -1 -4 -0.8 -5.5 0.1 c -0.4 0.3 -0.4 0.9 0 1.2 c 1.5 0.9 4.1 1.1 5.5 0.1 C -103.1 103 -103.1 102.4 -103.5 102.1 z" stroke-linecap="round"/>
</g>
		<g transform="matrix(1 0 0 1 -264.1362 3.7499)" id="Layer_1">
<path style="stroke: none; stroke-width: 1; stroke-dasharray: none; stroke-linecap: butt; stroke-dashoffset: 0; stroke-linejoin: miter; stroke-miterlimit: 4; is-custom-font: none; font-file-url: none; fill: rgb(255,249,223); fill-rule: nonzero; opacity: 1;" transform=" translate(135.2362, -132.6499)" d="M -129.5 132.3 c -3.1 -1.7 -8.5 -1.1 -11.4 0.8 c -0.4 0.3 -0.3 0.9 0.2 0.9 c 1.8 0 3.6 -0.4 5.4 -0.6 c 1.9 -0.2 3.8 0 5.6 -0.5 C -129.3 132.9 -129.2 132.5 -129.5 132.3 z" stroke-linecap="round"/>
</g>
		<g transform="matrix(1 0 0 1 -263.094 32.3892)" id="Layer_1">
<path style="stroke: none; stroke-width: 1; stroke-dasharray: none; stroke-linecap: butt; stroke-dashoffset: 0; stroke-linejoin: miter; stroke-miterlimit: 4; is-custom-font: none; font-file-url: none; fill: rgb(255,249,223); fill-rule: nonzero; opacity: 1;" transform=" translate(134.194, -161.2892)" d="M -126 159.9 c -4.2 -2.4 -11.8 0.3 -16 1.8 c -1.2 0.4 -0.7 2.2 0.5 1.9 c 2.8 -0.8 5.6 -1.4 8.5 -1.7 c 2.4 -0.3 4.8 0.1 7 -1 C -125.6 160.7 -125.6 160.1 -126 159.9 z" stroke-linecap="round"/>
</g>
		<g transform="matrix(1 0 0 1 -249.8875 32.1722)" id="Layer_1">
<path style="stroke: none; stroke-width: 1; stroke-dasharray: none; stroke-linecap: butt; stroke-dashoffset: 0; stroke-linejoin: miter; stroke-miterlimit: 4; is-custom-font: none; font-file-url: none; fill: rgb(255,249,223); fill-rule: nonzero; opacity: 1;" transform=" translate(120.9875, -161.0722)" d="M -118.8 160.6 c -0.6 -0.3 -1 -0.4 -1.7 -0.4 c -0.8 0 -1.5 0.1 -2.3 0.2 c -0.8 0.1 -0.8 1.2 0 1.3 c 0.7 0.1 1.4 0.1 2 0.2 c 0.3 0 0.8 0.1 1.1 0 c 0.3 -0.1 0.6 -0.3 0.9 -0.4 C -118.5 161.3 -118.5 160.8 -118.8 160.6 z" stroke-linecap="round"/>
</g>
		<g transform="matrix(1 0 0 1 -264.2014 55.7696)" id="Layer_1">
<path style="stroke: none; stroke-width: 1; stroke-dasharray: none; stroke-linecap: butt; stroke-dashoffset: 0; stroke-linejoin: miter; stroke-miterlimit: 4; is-custom-font: none; font-file-url: none; fill: rgb(255,249,223); fill-rule: nonzero; opacity: 1;" transform=" translate(135.3014, -184.6696)" d="M -130 183.9 c -3 -1.5 -7.5 -0.2 -10.4 0.8 c -0.9 0.3 -0.5 1.6 0.4 1.4 c 1.8 -0.4 3.6 -0.7 5.5 -0.8 c 1.5 -0.1 3 0.2 4.5 -0.3 C -129.7 184.8 -129.5 184.1 -130 183.9 z" stroke-linecap="round"/>
</g>
		<g transform="matrix(1 0 0 1 -253.247 56.8479)" id="Layer_1">
<path style="stroke: none; stroke-width: 1; stroke-dasharray: none; stroke-linecap: butt; stroke-dashoffset: 0; stroke-linejoin: miter; stroke-miterlimit: 4; is-custom-font: none; font-file-url: none; fill: rgb(255,249,223); fill-rule: nonzero; opacity: 1;" transform=" translate(124.3469, -185.7479)" d="M -122.7 185.8 c -0.8 -0.6 -2 -0.6 -2.9 -0.7 c -0.6 -0.1 -0.8 1 -0.1 1.1 c 1 0.1 2.1 0.4 3 0 C -122.5 186.1 -122.5 185.9 -122.7 185.8 z" stroke-linecap="round"/>
</g>
		<g transform="matrix(1 0 0 1 -322.7356 1.4509)" id="Layer_1">
<path style="stroke: none; stroke-width: 1; stroke-dasharray: none; stroke-linecap: butt; stroke-dashoffset: 0; stroke-linejoin: miter; stroke-miterlimit: 4; is-custom-font: none; font-file-url: none; fill: rgb(253,157,38); fill-rule: nonzero; opacity: 1;" transform=" translate(193.8355, -130.3509)" d="M -187.6 123.4 c -2.4 1.5 -4 4.1 -6 6.2 c -2.4 2.5 -4.9 4.7 -7.3 7.2 c -0.3 0.3 0.1 0.7 0.4 0.5 c 2.8 -1.5 5.3 -3.5 7.7 -5.6 c 2.3 -2 5.2 -4.6 6.1 -7.5 C -186.5 123.6 -187.2 123.2 -187.6 123.4 z" stroke-linecap="round"/>
</g>
		<g transform="matrix(1 0 0 1 -311.7845 -11.9816)" id="Layer_1">
<path style="stroke: none; stroke-width: 1; stroke-dasharray: none; stroke-linecap: butt; stroke-dashoffset: 0; stroke-linejoin: miter; stroke-miterlimit: 4; is-custom-font: none; font-file-url: none; fill: rgb(253,157,38); fill-rule: nonzero; opacity: 1;" transform=" translate(182.8845, -116.9185)" d="M -180.7 114.7 c -0.1 -0.5 -0.5 -1 -1.1 -0.8 c -0.8 0.3 -1.5 1 -2 1.7 c -0.5 0.8 -1.2 1.9 -1.3 2.9 c -0.1 0.9 0.7 1.9 1.7 1.3 c 0.7 -0.5 1.3 -1.4 1.8 -2.1 C -181.1 116.7 -180.5 115.7 -180.7 114.7 z" stroke-linecap="round"/>
</g>
		<g transform="matrix(1 0 0 1 -332.9164 52.0396)" id="Layer_1">
<path style="stroke: none; stroke-width: 1; stroke-dasharray: none; stroke-linecap: butt; stroke-dashoffset: 0; stroke-linejoin: miter; stroke-miterlimit: 4; is-custom-font: none; font-file-url: none; fill: rgb(253,157,38); fill-rule: nonzero; opacity: 1;" transform=" translate(204.0164, -180.9397)" d="M -198.6 188.1 c -1.8 -2.3 -3.8 -4.4 -5.5 -6.8 c -1.7 -2.5 -2.6 -5.3 -3.8 -7.9 c -0.4 -0.8 -1.7 -0.4 -1.6 0.4 c 0.5 5.8 4.8 12.7 10.1 15.1 C -199 189 -198.3 188.6 -198.6 188.1 z" stroke-linecap="round"/>
</g>
		<g transform="matrix(1 0 0 1 -322.337 61.6759)" id="Layer_1">
<path style="stroke: none; stroke-width: 1; stroke-dasharray: none; stroke-linecap: butt; stroke-dashoffset: 0; stroke-linejoin: miter; stroke-miterlimit: 4; is-custom-font: none; font-file-url: none; fill: rgb(253,157,38); fill-rule: nonzero; opacity: 1;" transform=" translate(193.437, -190.5759)" d="M -190.3 190.7 c -1 -0.4 -1.9 -0.8 -3 -1 c -1 -0.1 -2.1 -0.2 -3.1 0 c -0.5 0.1 -0.6 0.9 -0.1 1.1 c 0.9 0.4 1.8 0.6 2.7 0.7 c 1.2 0.2 2.2 -0.1 3.4 -0.2 C -190 191.3 -189.9 190.8 -190.3 190.7 z" stroke-linecap="round"/>
</g>
		<g transform="matrix(1 0 0 1 -0.0035 -0.365)" id="_x31_" clip-path="url(#CLIPPATH_25)">
<clipPath id="CLIPPATH_25">
	<path transform="matrix(1 0 0 1 0.05 0) translate(-128.9465, -128.535)" id="SVGID_2_" d="M 220.1 160.3 c 3.2 -10.3 1.5 -23.8 -9.5 -27.3 c -27.9 -9.1 -47.3 12.1 -50.1 12.6 c -3 0.6 -11.2 -8 -35.1 -6.8 c -14.2 0.7 -30.5 14.5 -30.2 14.1 c 0 0 -0.2 -13.7 -8.4 -62.5 c -0.5 -2.9 1.2 -5.4 2.1 -8.2 c 12.3 -0.3 21.7 -5.9 22.2 -5.9 c 0.4 0 7.7 2.4 9.9 2.2 c 5.4 -0.7 8.3 -3.7 9.5 -6.9 c 0.7 -1.9 -0.4 -4.1 -2.1 -5.3 c -1.4 -1 -4 -3.2 -4 -3.2 c 5.4 -1.9 9.8 -7.9 10.3 -9 c 0.6 -1.5 0.3 -3.3 -0.2 -4.9 c -0.3 -1.1 -0.7 -2.1 -1.2 -3.1 c -0.9 -1.7 -10.3 -18.1 -10.8 -18.7 c -1.8 -2 -3.5 -0.4 -5.3 -0.4 c -1.4 0 -2.7 -0.9 -4.1 -1.3 c -1.7 -0.4 -3.5 0.2 -5.2 0.9 c -4.5 1.9 -9 3.8 -13.6 5.6 c -8.6 3.8 -18.6 6.3 -25.6 12.9 c -4.7 4.4 -7.7 10.3 -9.5 16.5 c -1.6 5.4 -2.2 12.4 -3.1 17.9 c -1.5 9.1 -6.7 31.1 -9.4 39.6 c -13.8 43.2 -10.2 65.4 -9.1 67.1 c 1.3 2.2 0.8 5.5 1 7.9 c 0.3 4.2 1.9 8.4 4.8 11.4 c 2.7 2.9 8.2 4.7 12.1 4.2 c 16.1 -2.1 39.9 -1 46.7 -0.2 c 7.1 4.3 11.8 4.8 20.7 6.4 c 9.1 1.7 19.7 1.4 26.6 0.2 c 4.5 4.5 9.4 10.7 15.1 14.5 c 2.4 1.6 5.6 1 7.2 -1.3 c 11.2 -15.4 24.5 -10.7 32.5 -26.9 c 3.1 -6.3 -0.9 -14.5 1.8 -21 c 2.2 -5.5 7.2 -9.2 10.7 -14 C 218 165.7 219.2 163.1 220.1 160.3 z" stroke-linecap="round"/>
</clipPath>
<path style="stroke: none; stroke-width: 1; stroke-dasharray: none; stroke-linecap: butt; stroke-dashoffset: 0; stroke-linejoin: miter; stroke-miterlimit: 4; is-custom-font: none; font-file-url: none; fill: rgb(252,204,36); fill-rule: nonzero; opacity: 1;" transform=" translate(-128.8965, -128.535)" d="M 220.1 160.3 c 3.2 -10.3 1.5 -23.8 -9.5 -27.3 c -27.9 -9.1 -47.3 12.1 -50.1 12.6 c -3 0.6 -11.5 -7.7 -35 -7.4 c -14.2 0.2 -30.6 15.2 -30.4 14.7 c 0 0 -0.2 -13.7 -8.4 -62.5 c -0.5 -2.9 1.2 -5.4 2.1 -8.2 c 12.3 -0.3 21.7 -5.9 22.2 -5.9 c 0.4 0 7.7 2.4 9.9 2.2 c 5.4 -0.7 8.3 -3.7 9.5 -6.9 c 0.7 -1.9 -0.4 -4.1 -2.1 -5.3 c -1.4 -1 -4 -3.2 -4 -3.2 c 5.4 -1.9 9.8 -7.9 10.3 -9 c 0.6 -1.5 0.3 -3.3 -0.2 -4.9 c -0.3 -1.1 -0.7 -2.1 -1.2 -3.1 c -0.9 -1.7 -10.3 -18.1 -10.8 -18.7 c -1.8 -2 -3.5 -0.4 -5.3 -0.4 c -1.4 0 -2.7 -0.9 -4.1 -1.3 c -1.7 -0.4 -3.5 0.2 -5.2 0.9 c -4.5 1.9 -9 3.8 -13.6 5.6 c -8.6 3.8 -18.6 6.3 -25.6 12.9 c -4.7 4.4 -7.7 10.3 -9.5 16.5 c -1.6 5.4 -2.2 12.4 -3.1 17.9 c -1.5 9.1 -6.7 31.1 -9.4 39.6 c -13.8 43.2 -10.2 65.4 -9.1 67.1 c 1.3 2.2 0.8 5.5 1 7.9 c 0.3 4.2 1.9 8.4 4.8 11.4 c 2.7 2.9 8.2 4.7 12.1 4.2 c 16.1 -2.1 39.9 -1 46.7 -0.2 c 7.1 4.3 11.8 4.8 20.7 6.4 c 9.1 1.7 19.7 1.4 26.6 0.2 c 4.5 4.5 9.4 10.7 15.1 14.5 c 2.4 1.6 5.6 1 7.2 -1.3 c 11.2 -15.4 24.5 -10.7 32.5 -26.9 c 3.1 -6.3 -0.9 -14.5 1.8 -21 c 2.2 -5.5 7.2 -9.2 10.7 -14 C 218 165.7 219.2 163.1 220.1 160.3 z" stroke-linecap="round"/>
</g>
		<g transform="matrix(1 0 0 1 -26.7037 -62.5147)" id="_x31_" clip-path="url(#CLIPPATH_26)">
<clipPath id="CLIPPATH_26">
	<path transform="matrix(1 0 0 1 26.7502 62.1497) translate(-128.9465, -128.535)" id="SVGID_2_" d="M 220.1 160.3 c 3.2 -10.3 1.5 -23.8 -9.5 -27.3 c -27.9 -9.1 -47.3 12.1 -50.1 12.6 c -3 0.6 -11.2 -8 -35.1 -6.8 c -14.2 0.7 -30.5 14.5 -30.2 14.1 c 0 0 -0.2 -13.7 -8.4 -62.5 c -0.5 -2.9 1.2 -5.4 2.1 -8.2 c 12.3 -0.3 21.7 -5.9 22.2 -5.9 c 0.4 0 7.7 2.4 9.9 2.2 c 5.4 -0.7 8.3 -3.7 9.5 -6.9 c 0.7 -1.9 -0.4 -4.1 -2.1 -5.3 c -1.4 -1 -4 -3.2 -4 -3.2 c 5.4 -1.9 9.8 -7.9 10.3 -9 c 0.6 -1.5 0.3 -3.3 -0.2 -4.9 c -0.3 -1.1 -0.7 -2.1 -1.2 -3.1 c -0.9 -1.7 -10.3 -18.1 -10.8 -18.7 c -1.8 -2 -3.5 -0.4 -5.3 -0.4 c -1.4 0 -2.7 -0.9 -4.1 -1.3 c -1.7 -0.4 -3.5 0.2 -5.2 0.9 c -4.5 1.9 -9 3.8 -13.6 5.6 c -8.6 3.8 -18.6 6.3 -25.6 12.9 c -4.7 4.4 -7.7 10.3 -9.5 16.5 c -1.6 5.4 -2.2 12.4 -3.1 17.9 c -1.5 9.1 -6.7 31.1 -9.4 39.6 c -13.8 43.2 -10.2 65.4 -9.1 67.1 c 1.3 2.2 0.8 5.5 1 7.9 c 0.3 4.2 1.9 8.4 4.8 11.4 c 2.7 2.9 8.2 4.7 12.1 4.2 c 16.1 -2.1 39.9 -1 46.7 -0.2 c 7.1 4.3 11.8 4.8 20.7 6.4 c 9.1 1.7 19.7 1.4 26.6 0.2 c 4.5 4.5 9.4 10.7 15.1 14.5 c 2.4 1.6 5.6 1 7.2 -1.3 c 11.2 -15.4 24.5 -10.7 32.5 -26.9 c 3.1 -6.3 -0.9 -14.5 1.8 -21 c 2.2 -5.5 7.2 -9.2 10.7 -14 C 218 165.7 219.2 163.1 220.1 160.3 z" stroke-linecap="round"/>
</clipPath>
<path style="stroke: none; stroke-width: 1; stroke-dasharray: none; stroke-linecap: butt; stroke-dashoffset: 0; stroke-linejoin: miter; stroke-miterlimit: 4; is-custom-font: none; font-file-url: none; fill: rgb(253,157,38); fill-rule: nonzero; opacity: 1;" transform=" translate(-102.1963, -66.3853)" d="M 131.7 54.6 c -0.3 0.2 -2.7 1.2 -3.1 1.2 c -1.1 0 -2.3 -3.1 -3.1 -4.3 c 2 5 1.9 5.9 0.6 7.3 c -1 1 -2.2 0.6 -3.5 0.9 c -0.9 0.2 -2.8 1.9 -4.6 1.1 c -0.2 -0.1 -0.6 -1 -0.9 -1.9 c -0.4 1.1 -1.2 3.1 -2.5 3.6 c -1.1 0.4 -2.9 0.2 -3.8 0.2 c -2.1 -0.1 -1.2 -0.7 -1.6 -2.7 c -0.3 2.1 -1.1 3.4 -1.5 3.6 c -1.4 0.8 -3.9 0.6 -5.8 0.3 c -0.5 -0.1 -1 -0.2 -1.4 -0.5 c -0.4 -0.3 -0.7 -0.8 -0.9 -1.3 c -1.2 -2.7 -2.2 -11.8 -4.4 -13.8 c 0.9 8 -0.9 9.1 -5.3 12.7 c -0.4 0.3 -0.8 0.6 -1.1 1.1 c -0.3 0.5 -0.4 1.1 -0.6 1.7 c -1 3.8 -3.8 7 -7.3 9 c -3.4 1.9 -7.4 2.8 -11.4 3.2 c 3.3 0.5 6 1.1 9.2 2.3 c 0.9 0.4 1.9 0.7 2.7 1.3 c 1.1 0.7 1.9 1.8 2.9 2.6 c 3.4 3 6.3 2.2 10.4 2.1 c 7.3 -0.1 14.3 -3.9 21.6 -3.1 c 1.4 0.1 2.8 0.5 4.3 0.5 c 1.4 0 2.9 -0.2 4.1 -1.1 c 1.2 -0.9 2.8 -1.6 3.3 -3 c 0.6 -1.4 1.7 -2.5 2.3 -3.8 c 0.6 -1.3 1.5 -4.2 1.2 -5.5 c -0.3 -1.1 -1.6 -2.2 -2.2 -3.1 c -1.4 -2.3 -0.3 -2.9 0.8 -4.8 c 0.7 -1.2 3.2 -1.4 3.7 -2.6 c 0.4 -0.8 1.4 -2.8 1 -5.9 C 135 51.7 132.9 53.9 131.7 54.6 z" stroke-linecap="round"/>
</g>
		<g transform="matrix(1 0 0 1 -8.2333 16.8626)" id="_x31_" clip-path="url(#CLIPPATH_27)">
<clipPath id="CLIPPATH_27">
	<path transform="matrix(1 0 0 1 8.2798 -17.2276) translate(-128.9465, -128.535)" id="SVGID_2_" d="M 220.1 160.3 c 3.2 -10.3 1.5 -23.8 -9.5 -27.3 c -27.9 -9.1 -47.3 12.1 -50.1 12.6 c -3 0.6 -11.2 -8 -35.1 -6.8 c -14.2 0.7 -30.5 14.5 -30.2 14.1 c 0 0 -0.2 -13.7 -8.4 -62.5 c -0.5 -2.9 1.2 -5.4 2.1 -8.2 c 12.3 -0.3 21.7 -5.9 22.2 -5.9 c 0.4 0 7.7 2.4 9.9 2.2 c 5.4 -0.7 8.3 -3.7 9.5 -6.9 c 0.7 -1.9 -0.4 -4.1 -2.1 -5.3 c -1.4 -1 -4 -3.2 -4 -3.2 c 5.4 -1.9 9.8 -7.9 10.3 -9 c 0.6 -1.5 0.3 -3.3 -0.2 -4.9 c -0.3 -1.1 -0.7 -2.1 -1.2 -3.1 c -0.9 -1.7 -10.3 -18.1 -10.8 -18.7 c -1.8 -2 -3.5 -0.4 -5.3 -0.4 c -1.4 0 -2.7 -0.9 -4.1 -1.3 c -1.7 -0.4 -3.5 0.2 -5.2 0.9 c -4.5 1.9 -9 3.8 -13.6 5.6 c -8.6 3.8 -18.6 6.3 -25.6 12.9 c -4.7 4.4 -7.7 10.3 -9.5 16.5 c -1.6 5.4 -2.2 12.4 -3.1 17.9 c -1.5 9.1 -6.7 31.1 -9.4 39.6 c -13.8 43.2 -10.2 65.4 -9.1 67.1 c 1.3 2.2 0.8 5.5 1 7.9 c 0.3 4.2 1.9 8.4 4.8 11.4 c 2.7 2.9 8.2 4.7 12.1 4.2 c 16.1 -2.1 39.9 -1 46.7 -0.2 c 7.1 4.3 11.8 4.8 20.7 6.4 c 9.1 1.7 19.7 1.4 26.6 0.2 c 4.5 4.5 9.4 10.7 15.1 14.5 c 2.4 1.6 5.6 1 7.2 -1.3 c 11.2 -15.4 24.5 -10.7 32.5 -26.9 c 3.1 -6.3 -0.9 -14.5 1.8 -21 c 2.2 -5.5 7.2 -9.2 10.7 -14 C 218 165.7 219.2 163.1 220.1 160.3 z" stroke-linecap="round"/>
</clipPath>
<path style="stroke: none; stroke-width: 1; stroke-dasharray: none; stroke-linecap: butt; stroke-dashoffset: 0; stroke-linejoin: miter; stroke-miterlimit: 4; is-custom-font: none; font-file-url: none; fill: rgb(253,157,38); fill-rule: nonzero; opacity: 1;" transform=" translate(-120.6667, -145.7626)" d="M 173.2 159.6 c -0.4 17.7 -21.4 18.1 -29.8 18.1 c -10.6 0 -21.1 -2.1 -31.7 -3.4 c -6.3 -0.8 -12.7 -1.2 -19.1 -0.8 c -5.2 0.4 -10.6 2.8 -15.7 2.8 c 18.3 1.7 40.7 4.3 58.5 8.7 c -2 0.1 -8.1 0.5 -10.1 0.7 c -4.4 -0.1 -19.3 1.6 -22.4 2.1 c -14.6 2.2 -29.2 -0.3 -43.7 -2.6 c -3.8 -0.6 -7.9 -1.3 -10.8 -4 c -3 -2.8 -4 -7.1 -4.4 -11.2 c -1.6 -15.6 3.7 -31.6 7.1 -46.7 c 2.6 -11.6 5.2 -23.1 6.7 -34.9 c 0.6 -5.2 0.5 -10.7 1.6 -15.8 c 0.6 -2.6 1.7 -14.3 2.9 -16.4 c -6.1 11.1 -5.8 25.1 -8 37.4 c -2.9 15.8 -8.7 30.8 -13.3 46.1 c -4.2 14.4 -8.5 29.2 -1.2 43.3 c 2.5 4.8 5.8 9.1 9.1 13.3 c -2.7 -1.1 -5.2 -2.7 -7.3 -4.8 c 1.7 3.5 4 6.7 6.8 9.4 c 0.6 0.6 1.2 1.1 1.9 1.4 c 1.1 0.5 2.3 0.7 3.5 0.6 c 29.4 -2.4 49.9 4.4 49.9 4.4 c 24 11.8 47 4.9 48.7 5.6 c 1.5 0.6 8.5 12.9 20.7 22.2 c 2.1 1.6 6.9 -5.8 9.1 -7.3 c 3.9 -2.6 7 -5.8 10.5 -9 c 2 -1.9 14.8 -6.2 12.5 -7.7 C 178.4 193.8 173.2 161.2 173.2 159.6 z M 87.3 197.9 c 3.5 -0.1 25.6 -4.6 26.2 -4.8 c 17.3 -1.1 22.1 4.6 38 4.2 C 114.6 205.8 87.3 197.9 87.3 197.9 z" stroke-linecap="round"/>
</g>
		<g transform="matrix(1 0 0 1 -51.9109 0.4)" id="_x31_" clip-path="url(#CLIPPATH_28)">
<clipPath id="CLIPPATH_28">
	<path transform="matrix(1 0 0 1 51.9574 -0.765) translate(-128.9465, -128.535)" id="SVGID_2_" d="M 220.1 160.3 c 3.2 -10.3 1.5 -23.8 -9.5 -27.3 c -27.9 -9.1 -47.3 12.1 -50.1 12.6 c -3 0.6 -11.2 -8 -35.1 -6.8 c -14.2 0.7 -30.5 14.5 -30.2 14.1 c 0 0 -0.2 -13.7 -8.4 -62.5 c -0.5 -2.9 1.2 -5.4 2.1 -8.2 c 12.3 -0.3 21.7 -5.9 22.2 -5.9 c 0.4 0 7.7 2.4 9.9 2.2 c 5.4 -0.7 8.3 -3.7 9.5 -6.9 c 0.7 -1.9 -0.4 -4.1 -2.1 -5.3 c -1.4 -1 -4 -3.2 -4 -3.2 c 5.4 -1.9 9.8 -7.9 10.3 -9 c 0.6 -1.5 0.3 -3.3 -0.2 -4.9 c -0.3 -1.1 -0.7 -2.1 -1.2 -3.1 c -0.9 -1.7 -10.3 -18.1 -10.8 -18.7 c -1.8 -2 -3.5 -0.4 -5.3 -0.4 c -1.4 0 -2.7 -0.9 -4.1 -1.3 c -1.7 -0.4 -3.5 0.2 -5.2 0.9 c -4.5 1.9 -9 3.8 -13.6 5.6 c -8.6 3.8 -18.6 6.3 -25.6 12.9 c -4.7 4.4 -7.7 10.3 -9.5 16.5 c -1.6 5.4 -2.2 12.4 -3.1 17.9 c -1.5 9.1 -6.7 31.1 -9.4 39.6 c -13.8 43.2 -10.2 65.4 -9.1 67.1 c 1.3 2.2 0.8 5.5 1 7.9 c 0.3 4.2 1.9 8.4 4.8 11.4 c 2.7 2.9 8.2 4.7 12.1 4.2 c 16.1 -2.1 39.9 -1 46.7 -0.2 c 7.1 4.3 11.8 4.8 20.7 6.4 c 9.1 1.7 19.7 1.4 26.6 0.2 c 4.5 4.5 9.4 10.7 15.1 14.5 c 2.4 1.6 5.6 1 7.2 -1.3 c 11.2 -15.4 24.5 -10.7 32.5 -26.9 c 3.1 -6.3 -0.9 -14.5 1.8 -21 c 2.2 -5.5 7.2 -9.2 10.7 -14 C 218 165.7 219.2 163.1 220.1 160.3 z" stroke-linecap="round"/>
</clipPath>
<path style="stroke: none; stroke-width: 1; stroke-dasharray: none; stroke-linecap: butt; stroke-dashoffset: 0; stroke-linejoin: miter; stroke-miterlimit: 4; is-custom-font: none; font-file-url: none; fill: rgb(253,157,38); fill-rule: nonzero; opacity: 1;" transform=" translate(-76.9891, -129.3)" d="M 76.8 163.8 c -3.9 -40.1 -0.7 -55.5 1.1 -69 C 78.4 143.5 80.7 136.9 76.8 163.8 z" stroke-linecap="round"/>
</g>
		<g transform="matrix(1 0 0 1 67.5002 15.6012)" id="_x31_" clip-path="url(#CLIPPATH_29)">
<clipPath id="CLIPPATH_29">
	<path transform="matrix(1 0 0 1 -67.4537 -15.9662) translate(-128.9465, -128.535)" id="SVGID_2_" d="M 220.1 160.3 c 3.2 -10.3 1.5 -23.8 -9.5 -27.3 c -27.9 -9.1 -47.3 12.1 -50.1 12.6 c -3 0.6 -11.2 -8 -35.1 -6.8 c -14.2 0.7 -30.5 14.5 -30.2 14.1 c 0 0 -0.2 -13.7 -8.4 -62.5 c -0.5 -2.9 1.2 -5.4 2.1 -8.2 c 12.3 -0.3 21.7 -5.9 22.2 -5.9 c 0.4 0 7.7 2.4 9.9 2.2 c 5.4 -0.7 8.3 -3.7 9.5 -6.9 c 0.7 -1.9 -0.4 -4.1 -2.1 -5.3 c -1.4 -1 -4 -3.2 -4 -3.2 c 5.4 -1.9 9.8 -7.9 10.3 -9 c 0.6 -1.5 0.3 -3.3 -0.2 -4.9 c -0.3 -1.1 -0.7 -2.1 -1.2 -3.1 c -0.9 -1.7 -10.3 -18.1 -10.8 -18.7 c -1.8 -2 -3.5 -0.4 -5.3 -0.4 c -1.4 0 -2.7 -0.9 -4.1 -1.3 c -1.7 -0.4 -3.5 0.2 -5.2 0.9 c -4.5 1.9 -9 3.8 -13.6 5.6 c -8.6 3.8 -18.6 6.3 -25.6 12.9 c -4.7 4.4 -7.7 10.3 -9.5 16.5 c -1.6 5.4 -2.2 12.4 -3.1 17.9 c -1.5 9.1 -6.7 31.1 -9.4 39.6 c -13.8 43.2 -10.2 65.4 -9.1 67.1 c 1.3 2.2 0.8 5.5 1 7.9 c 0.3 4.2 1.9 8.4 4.8 11.4 c 2.7 2.9 8.2 4.7 12.1 4.2 c 16.1 -2.1 39.9 -1 46.7 -0.2 c 7.1 4.3 11.8 4.8 20.7 6.4 c 9.1 1.7 19.7 1.4 26.6 0.2 c 4.5 4.5 9.4 10.7 15.1 14.5 c 2.4 1.6 5.6 1 7.2 -1.3 c 11.2 -15.4 24.5 -10.7 32.5 -26.9 c 3.1 -6.3 -0.9 -14.5 1.8 -21 c 2.2 -5.5 7.2 -9.2 10.7 -14 C 218 165.7 219.2 163.1 220.1 160.3 z" stroke-linecap="round"/>
</clipPath>
<path style="stroke: none; stroke-width: 1; stroke-dasharray: none; stroke-linecap: butt; stroke-dashoffset: 0; stroke-linejoin: miter; stroke-miterlimit: 4; is-custom-font: none; font-file-url: none; fill: rgb(253,234,81); fill-rule: nonzero; opacity: 1;" transform=" translate(-196.4002, -144.5012)" d="M 196.8 129.7 c -12.8 0 -29.5 8.7 -35.7 15.7 c 4.2 3.5 8.3 7.8 8.3 11.3 c 0 0.5 -0.1 1.1 -0.2 1.6 c 7.7 1.1 18.3 1 27.7 1 c 17.3 0 34.8 -2.7 34.8 -9.7 C 231.8 142.5 214.1 129.7 196.8 129.7 z" stroke-linecap="round"/>
</g>
		<g transform="matrix(1 0 0 1 2.1 21.7503)" id="_x31_" clip-path="url(#CLIPPATH_30)">
<clipPath id="CLIPPATH_30">
	<path transform="matrix(1 0 0 1 -2.0535 -22.1153) translate(-128.9465, -128.535)" id="SVGID_2_" d="M 220.1 160.3 c 3.2 -10.3 1.5 -23.8 -9.5 -27.3 c -27.9 -9.1 -47.3 12.1 -50.1 12.6 c -3 0.6 -11.2 -8 -35.1 -6.8 c -14.2 0.7 -30.5 14.5 -30.2 14.1 c 0 0 -0.2 -13.7 -8.4 -62.5 c -0.5 -2.9 1.2 -5.4 2.1 -8.2 c 12.3 -0.3 21.7 -5.9 22.2 -5.9 c 0.4 0 7.7 2.4 9.9 2.2 c 5.4 -0.7 8.3 -3.7 9.5 -6.9 c 0.7 -1.9 -0.4 -4.1 -2.1 -5.3 c -1.4 -1 -4 -3.2 -4 -3.2 c 5.4 -1.9 9.8 -7.9 10.3 -9 c 0.6 -1.5 0.3 -3.3 -0.2 -4.9 c -0.3 -1.1 -0.7 -2.1 -1.2 -3.1 c -0.9 -1.7 -10.3 -18.1 -10.8 -18.7 c -1.8 -2 -3.5 -0.4 -5.3 -0.4 c -1.4 0 -2.7 -0.9 -4.1 -1.3 c -1.7 -0.4 -3.5 0.2 -5.2 0.9 c -4.5 1.9 -9 3.8 -13.6 5.6 c -8.6 3.8 -18.6 6.3 -25.6 12.9 c -4.7 4.4 -7.7 10.3 -9.5 16.5 c -1.6 5.4 -2.2 12.4 -3.1 17.9 c -1.5 9.1 -6.7 31.1 -9.4 39.6 c -13.8 43.2 -10.2 65.4 -9.1 67.1 c 1.3 2.2 0.8 5.5 1 7.9 c 0.3 4.2 1.9 8.4 4.8 11.4 c 2.7 2.9 8.2 4.7 12.1 4.2 c 16.1 -2.1 39.9 -1 46.7 -0.2 c 7.1 4.3 11.8 4.8 20.7 6.4 c 9.1 1.7 19.7 1.4 26.6 0.2 c 4.5 4.5 9.4 10.7 15.1 14.5 c 2.4 1.6 5.6 1 7.2 -1.3 c 11.2 -15.4 24.5 -10.7 32.5 -26.9 c 3.1 -6.3 -0.9 -14.5 1.8 -21 c 2.2 -5.5 7.2 -9.2 10.7 -14 C 218 165.7 219.2 163.1 220.1 160.3 z" stroke-linecap="round"/>
</clipPath>
<path style="stroke: none; stroke-width: 1; stroke-dasharray: none; stroke-linecap: butt; stroke-dashoffset: 0; stroke-linejoin: miter; stroke-miterlimit: 4; is-custom-font: none; font-file-url: none; fill: rgb(253,234,81); fill-rule: nonzero; opacity: 0.9;" transform=" translate(-131, -150.6503)" d="M 167.7 156.7 c 0 7.1 -17.5 9.7 -34.8 9.7 s -38.6 0.2 -38.6 -6.9 c 0 -7.1 18.3 -24.6 35.6 -24.6 C 147.2 135 167.7 149.6 167.7 156.7 z" stroke-linecap="round"/>
</g>
		<g transform="matrix(1 0 0 1 -32.4805 -79.1593)" id="_x31_" clip-path="url(#CLIPPATH_31)">
<clipPath id="CLIPPATH_31">
	<path transform="matrix(1 0 0 1 32.527 78.7944) translate(-128.9465, -128.535)" id="SVGID_2_" d="M 220.1 160.3 c 3.2 -10.3 1.5 -23.8 -9.5 -27.3 c -27.9 -9.1 -47.3 12.1 -50.1 12.6 c -3 0.6 -11.2 -8 -35.1 -6.8 c -14.2 0.7 -30.5 14.5 -30.2 14.1 c 0 0 -0.2 -13.7 -8.4 -62.5 c -0.5 -2.9 1.2 -5.4 2.1 -8.2 c 12.3 -0.3 21.7 -5.9 22.2 -5.9 c 0.4 0 7.7 2.4 9.9 2.2 c 5.4 -0.7 8.3 -3.7 9.5 -6.9 c 0.7 -1.9 -0.4 -4.1 -2.1 -5.3 c -1.4 -1 -4 -3.2 -4 -3.2 c 5.4 -1.9 9.8 -7.9 10.3 -9 c 0.6 -1.5 0.3 -3.3 -0.2 -4.9 c -0.3 -1.1 -0.7 -2.1 -1.2 -3.1 c -0.9 -1.7 -10.3 -18.1 -10.8 -18.7 c -1.8 -2 -3.5 -0.4 -5.3 -0.4 c -1.4 0 -2.7 -0.9 -4.1 -1.3 c -1.7 -0.4 -3.5 0.2 -5.2 0.9 c -4.5 1.9 -9 3.8 -13.6 5.6 c -8.6 3.8 -18.6 6.3 -25.6 12.9 c -4.7 4.4 -7.7 10.3 -9.5 16.5 c -1.6 5.4 -2.2 12.4 -3.1 17.9 c -1.5 9.1 -6.7 31.1 -9.4 39.6 c -13.8 43.2 -10.2 65.4 -9.1 67.1 c 1.3 2.2 0.8 5.5 1 7.9 c 0.3 4.2 1.9 8.4 4.8 11.4 c 2.7 2.9 8.2 4.7 12.1 4.2 c 16.1 -2.1 39.9 -1 46.7 -0.2 c 7.1 4.3 11.8 4.8 20.7 6.4 c 9.1 1.7 19.7 1.4 26.6 0.2 c 4.5 4.5 9.4 10.7 15.1 14.5 c 2.4 1.6 5.6 1 7.2 -1.3 c 11.2 -15.4 24.5 -10.7 32.5 -26.9 c 3.1 -6.3 -0.9 -14.5 1.8 -21 c 2.2 -5.5 7.2 -9.2 10.7 -14 C 218 165.7 219.2 163.1 220.1 160.3 z" stroke-linecap="round"/>
</clipPath>
<path style="stroke: none; stroke-width: 1; stroke-dasharray: none; stroke-linecap: butt; stroke-dashoffset: 0; stroke-linejoin: miter; stroke-miterlimit: 4; is-custom-font: none; font-file-url: none; fill: rgb(253,234,81); fill-rule: nonzero; opacity: 1;" transform=" translate(-96.4195, -49.7406)" d="M 106.2 48.8 c -0.6 -3.1 -0.3 -7.2 -2.2 -9.9 c -1.1 -1.6 -2.3 -2.1 -4.2 -1.7 c -2.6 0.6 -10.3 2.5 -14.8 4.7 c 3 0.1 6 -0.1 9 -0.2 c 0.9 0 1.8 0 2.6 0.4 c 1.7 0.8 1.8 2.8 2.3 4.3 c 0.6 2.2 2.1 14.9 5 15.9 c 1 0.3 3.2 0 3.8 -0.9 C 108.3 60.6 106.8 52.2 106.2 48.8 z" stroke-linecap="round"/>
</g>
		<g transform="matrix(1 0 0 1 -20.35 -9.8333)" id="_x31_" clip-path="url(#CLIPPATH_32)">
<clipPath id="CLIPPATH_32">
	<path transform="matrix(1 0 0 1 20.3965 9.4683) translate(-128.9465, -128.535)" id="SVGID_2_" d="M 220.1 160.3 c 3.2 -10.3 1.5 -23.8 -9.5 -27.3 c -27.9 -9.1 -47.3 12.1 -50.1 12.6 c -3 0.6 -11.2 -8 -35.1 -6.8 c -14.2 0.7 -30.5 14.5 -30.2 14.1 c 0 0 -0.2 -13.7 -8.4 -62.5 c -0.5 -2.9 1.2 -5.4 2.1 -8.2 c 12.3 -0.3 21.7 -5.9 22.2 -5.9 c 0.4 0 7.7 2.4 9.9 2.2 c 5.4 -0.7 8.3 -3.7 9.5 -6.9 c 0.7 -1.9 -0.4 -4.1 -2.1 -5.3 c -1.4 -1 -4 -3.2 -4 -3.2 c 5.4 -1.9 9.8 -7.9 10.3 -9 c 0.6 -1.5 0.3 -3.3 -0.2 -4.9 c -0.3 -1.1 -0.7 -2.1 -1.2 -3.1 c -0.9 -1.7 -10.3 -18.1 -10.8 -18.7 c -1.8 -2 -3.5 -0.4 -5.3 -0.4 c -1.4 0 -2.7 -0.9 -4.1 -1.3 c -1.7 -0.4 -3.5 0.2 -5.2 0.9 c -4.5 1.9 -9 3.8 -13.6 5.6 c -8.6 3.8 -18.6 6.3 -25.6 12.9 c -4.7 4.4 -7.7 10.3 -9.5 16.5 c -1.6 5.4 -2.2 12.4 -3.1 17.9 c -1.5 9.1 -6.7 31.1 -9.4 39.6 c -13.8 43.2 -10.2 65.4 -9.1 67.1 c 1.3 2.2 0.8 5.5 1 7.9 c 0.3 4.2 1.9 8.4 4.8 11.4 c 2.7 2.9 8.2 4.7 12.1 4.2 c 16.1 -2.1 39.9 -1 46.7 -0.2 c 7.1 4.3 11.8 4.8 20.7 6.4 c 9.1 1.7 19.7 1.4 26.6 0.2 c 4.5 4.5 9.4 10.7 15.1 14.5 c 2.4 1.6 5.6 1 7.2 -1.3 c 11.2 -15.4 24.5 -10.7 32.5 -26.9 c 3.1 -6.3 -0.9 -14.5 1.8 -21 c 2.2 -5.5 7.2 -9.2 10.7 -14 C 218 165.7 219.2 163.1 220.1 160.3 z" stroke-linecap="round"/>
</clipPath>
<path style="stroke: none; stroke-width: 1; stroke-dasharray: none; stroke-linecap: butt; stroke-dashoffset: 0; stroke-linejoin: miter; stroke-miterlimit: 4; is-custom-font: none; font-file-url: none; fill: rgb(253,234,81); fill-rule: nonzero; opacity: 1;" transform=" translate(-108.55, -119.0667)" d="M 95.8 180.8 c -9.9 -0.3 -20.3 -1.7 -28.5 -7.3 c 6.3 -2.2 22.1 -6 40.9 -3.6 c 23.7 3.1 61.3 7.5 62.7 -9.4 c -4.7 20.2 -78.7 3.4 -91.2 4.3 c -1 0.1 -2 0.1 -2.9 -0.4 c -0.6 -0.4 -1 -1 -1.3 -1.6 c -2.2 -4 -3 -8.6 -3.6 -13.1 c -1.2 -9.8 -1.5 -19.6 -0.9 -29.4 c 0.6 -9.1 1 -19.6 5.3 -27.9 c 0.2 -0.3 0.4 -0.7 0.7 -0.9 c 0.6 -0.3 1.3 0 1.8 0.4 c 2.9 2.2 2.3 6.2 2.5 9.5 c 0.3 4.5 0.7 8.9 1 13.4 c 0.7 8.9 1.3 17.8 2 26.7 c -0.3 -4.4 0.7 -9.2 0.7 -13.7 c 0 -4.7 -0.1 -9.5 -0.1 -14.2 c 0 -9 -0.1 -18.2 2.5 -26.9 c -0.1 0.3 -2.9 0.2 -3.2 0.2 c -0.9 -0.1 -1.7 -0.5 -2.4 -1 c -1.8 -1.2 -3.7 -2.7 -4.9 -4.5 c -0.5 -0.8 -0.9 -1.7 -1.7 -2.2 c -0.6 -0.4 -8.2 -1.4 -7.9 -2.4 c 0.3 -1 0.9 -1.4 1.7 -2 c 0.2 -0.1 2.3 -1.4 2.3 -1.4 c -1.9 0 -4.3 -0.2 -5.1 -1.9 c -0.2 -0.5 -0.3 -1 -0.4 -1.5 c -0.9 -6.1 -1.1 -12.7 0.2 -18.8 c -1.5 1.6 -2.1 3.9 -2.6 6 c -0.9 3.6 -2 7.2 -2.5 10.8 c -0.5 3.7 -1 7.4 -1.3 11.2 c -0.3 3 0 5.7 -0.7 8.7 c -1.9 9.4 -3.9 18.9 -5.8 28.3 c -3.3 16.2 -6.7 32.4 -6.9 48.9 c 0 2.5 0 5.1 1.2 7.3 c 1.3 2.5 3.9 4.1 6.5 5.4 c 7.1 3.7 14.7 6.3 22.5 7.7 c 13.3 2.4 27 1.3 40.5 0.2 l 12.2 -1 C 128.3 183.6 105.7 181.1 95.8 180.8 z" stroke-linecap="round"/>
</g>
		<g transform="matrix(1 0 0 1 -27.0455 -82.1473)" id="_x31_" clip-path="url(#CLIPPATH_33)">
<clipPath id="CLIPPATH_33">
	<path transform="matrix(1 0 0 1 27.092 81.7823) translate(-128.9465, -128.535)" id="SVGID_2_" d="M 220.1 160.3 c 3.2 -10.3 1.5 -23.8 -9.5 -27.3 c -27.9 -9.1 -47.3 12.1 -50.1 12.6 c -3 0.6 -11.2 -8 -35.1 -6.8 c -14.2 0.7 -30.5 14.5 -30.2 14.1 c 0 0 -0.2 -13.7 -8.4 -62.5 c -0.5 -2.9 1.2 -5.4 2.1 -8.2 c 12.3 -0.3 21.7 -5.9 22.2 -5.9 c 0.4 0 7.7 2.4 9.9 2.2 c 5.4 -0.7 8.3 -3.7 9.5 -6.9 c 0.7 -1.9 -0.4 -4.1 -2.1 -5.3 c -1.4 -1 -4 -3.2 -4 -3.2 c 5.4 -1.9 9.8 -7.9 10.3 -9 c 0.6 -1.5 0.3 -3.3 -0.2 -4.9 c -0.3 -1.1 -0.7 -2.1 -1.2 -3.1 c -0.9 -1.7 -10.3 -18.1 -10.8 -18.7 c -1.8 -2 -3.5 -0.4 -5.3 -0.4 c -1.4 0 -2.7 -0.9 -4.1 -1.3 c -1.7 -0.4 -3.5 0.2 -5.2 0.9 c -4.5 1.9 -9 3.8 -13.6 5.6 c -8.6 3.8 -18.6 6.3 -25.6 12.9 c -4.7 4.4 -7.7 10.3 -9.5 16.5 c -1.6 5.4 -2.2 12.4 -3.1 17.9 c -1.5 9.1 -6.7 31.1 -9.4 39.6 c -13.8 43.2 -10.2 65.4 -9.1 67.1 c 1.3 2.2 0.8 5.5 1 7.9 c 0.3 4.2 1.9 8.4 4.8 11.4 c 2.7 2.9 8.2 4.7 12.1 4.2 c 16.1 -2.1 39.9 -1 46.7 -0.2 c 7.1 4.3 11.8 4.8 20.7 6.4 c 9.1 1.7 19.7 1.4 26.6 0.2 c 4.5 4.5 9.4 10.7 15.1 14.5 c 2.4 1.6 5.6 1 7.2 -1.3 c 11.2 -15.4 24.5 -10.7 32.5 -26.9 c 3.1 -6.3 -0.9 -14.5 1.8 -21 c 2.2 -5.5 7.2 -9.2 10.7 -14 C 218 165.7 219.2 163.1 220.1 160.3 z" stroke-linecap="round"/>
</clipPath>
<path style="stroke: none; stroke-width: 1; stroke-dasharray: none; stroke-linecap: butt; stroke-dashoffset: 0; stroke-linejoin: miter; stroke-miterlimit: 4; is-custom-font: none; font-file-url: none; fill: rgb(253,234,81); fill-rule: nonzero; opacity: 1;" transform=" translate(-101.8545, -46.7527)" d="M 88.4 38.4 c 2.6 -0.5 13.2 -4.7 14.5 -4.1 c 0.8 0.4 4.1 3.4 4.5 4.6 c 1.7 6 2.2 13.8 3 20 c 0.1 0.7 0.2 1.5 0.6 2.1 c 0.6 0.8 4.1 0.7 4.2 -0.4 c 0.2 -1.1 0.1 -3.5 -0.1 -4.6 c -0.3 -1.4 -0.6 -2.7 -0.9 -4.1 c -1.3 -6.2 -2.7 -12.5 -5.3 -18.3 c -0.2 -0.4 -0.4 -0.9 -0.8 -1.2 c -0.3 -0.3 -0.8 -0.4 -1.2 -0.4 c -1.1 -0.1 -2.2 0.2 -3.3 0.6 C 100 33.7 91.9 36.7 88.4 38.4 z" stroke-linecap="round"/>
</g>
		<g transform="matrix(1 0 0 1 -12.9 -85.4785)" id="_x31_" clip-path="url(#CLIPPATH_34)">
<clipPath id="CLIPPATH_34">
	<path transform="matrix(1 0 0 1 12.9465 85.1135) translate(-128.9465, -128.535)" id="SVGID_2_" d="M 220.1 160.3 c 3.2 -10.3 1.5 -23.8 -9.5 -27.3 c -27.9 -9.1 -47.3 12.1 -50.1 12.6 c -3 0.6 -11.2 -8 -35.1 -6.8 c -14.2 0.7 -30.5 14.5 -30.2 14.1 c 0 0 -0.2 -13.7 -8.4 -62.5 c -0.5 -2.9 1.2 -5.4 2.1 -8.2 c 12.3 -0.3 21.7 -5.9 22.2 -5.9 c 0.4 0 7.7 2.4 9.9 2.2 c 5.4 -0.7 8.3 -3.7 9.5 -6.9 c 0.7 -1.9 -0.4 -4.1 -2.1 -5.3 c -1.4 -1 -4 -3.2 -4 -3.2 c 5.4 -1.9 9.8 -7.9 10.3 -9 c 0.6 -1.5 0.3 -3.3 -0.2 -4.9 c -0.3 -1.1 -0.7 -2.1 -1.2 -3.1 c -0.9 -1.7 -10.3 -18.1 -10.8 -18.7 c -1.8 -2 -3.5 -0.4 -5.3 -0.4 c -1.4 0 -2.7 -0.9 -4.1 -1.3 c -1.7 -0.4 -3.5 0.2 -5.2 0.9 c -4.5 1.9 -9 3.8 -13.6 5.6 c -8.6 3.8 -18.6 6.3 -25.6 12.9 c -4.7 4.4 -7.7 10.3 -9.5 16.5 c -1.6 5.4 -2.2 12.4 -3.1 17.9 c -1.5 9.1 -6.7 31.1 -9.4 39.6 c -13.8 43.2 -10.2 65.4 -9.1 67.1 c 1.3 2.2 0.8 5.5 1 7.9 c 0.3 4.2 1.9 8.4 4.8 11.4 c 2.7 2.9 8.2 4.7 12.1 4.2 c 16.1 -2.1 39.9 -1 46.7 -0.2 c 7.1 4.3 11.8 4.8 20.7 6.4 c 9.1 1.7 19.7 1.4 26.6 0.2 c 4.5 4.5 9.4 10.7 15.1 14.5 c 2.4 1.6 5.6 1 7.2 -1.3 c 11.2 -15.4 24.5 -10.7 32.5 -26.9 c 3.1 -6.3 -0.9 -14.5 1.8 -21 c 2.2 -5.5 7.2 -9.2 10.7 -14 C 218 165.7 219.2 163.1 220.1 160.3 z" stroke-linecap="round"/>
</clipPath>
<path style="stroke: none; stroke-width: 1; stroke-dasharray: none; stroke-linecap: butt; stroke-dashoffset: 0; stroke-linejoin: miter; stroke-miterlimit: 4; is-custom-font: none; font-file-url: none; fill: rgb(253,234,81); fill-rule: nonzero; opacity: 1;" transform=" translate(-116, -43.4215)" d="M 106.5 29.8 c 1.3 -0.2 3.1 0 4.3 0.9 c 1.3 1.1 8.7 27.9 10.3 28.1 c 0.6 0.1 1.1 -0.1 1.7 -0.2 c 0.9 -0.2 1.9 -0.5 2.4 -1.3 c 0.3 -0.4 0.3 -1 0.3 -1.5 c -0.1 -1.1 -3.1 -9.4 -3.9 -11.1 c -2.5 -5.2 -4 -11 -7.8 -15.4 c -0.4 -0.5 -0.9 -1 -1.5 -1.2 C 111.3 27.7 107 28.8 106.5 29.8 z" stroke-linecap="round"/>
</g>
		<g transform="matrix(1 0 0 1 -4.75 -87.4329)" id="_x31_" clip-path="url(#CLIPPATH_35)">
<clipPath id="CLIPPATH_35">
	<path transform="matrix(1 0 0 1 4.7965 87.0678) translate(-128.9465, -128.535)" id="SVGID_2_" d="M 220.1 160.3 c 3.2 -10.3 1.5 -23.8 -9.5 -27.3 c -27.9 -9.1 -47.3 12.1 -50.1 12.6 c -3 0.6 -11.2 -8 -35.1 -6.8 c -14.2 0.7 -30.5 14.5 -30.2 14.1 c 0 0 -0.2 -13.7 -8.4 -62.5 c -0.5 -2.9 1.2 -5.4 2.1 -8.2 c 12.3 -0.3 21.7 -5.9 22.2 -5.9 c 0.4 0 7.7 2.4 9.9 2.2 c 5.4 -0.7 8.3 -3.7 9.5 -6.9 c 0.7 -1.9 -0.4 -4.1 -2.1 -5.3 c -1.4 -1 -4 -3.2 -4 -3.2 c 5.4 -1.9 9.8 -7.9 10.3 -9 c 0.6 -1.5 0.3 -3.3 -0.2 -4.9 c -0.3 -1.1 -0.7 -2.1 -1.2 -3.1 c -0.9 -1.7 -10.3 -18.1 -10.8 -18.7 c -1.8 -2 -3.5 -0.4 -5.3 -0.4 c -1.4 0 -2.7 -0.9 -4.1 -1.3 c -1.7 -0.4 -3.5 0.2 -5.2 0.9 c -4.5 1.9 -9 3.8 -13.6 5.6 c -8.6 3.8 -18.6 6.3 -25.6 12.9 c -4.7 4.4 -7.7 10.3 -9.5 16.5 c -1.6 5.4 -2.2 12.4 -3.1 17.9 c -1.5 9.1 -6.7 31.1 -9.4 39.6 c -13.8 43.2 -10.2 65.4 -9.1 67.1 c 1.3 2.2 0.8 5.5 1 7.9 c 0.3 4.2 1.9 8.4 4.8 11.4 c 2.7 2.9 8.2 4.7 12.1 4.2 c 16.1 -2.1 39.9 -1 46.7 -0.2 c 7.1 4.3 11.8 4.8 20.7 6.4 c 9.1 1.7 19.7 1.4 26.6 0.2 c 4.5 4.5 9.4 10.7 15.1 14.5 c 2.4 1.6 5.6 1 7.2 -1.3 c 11.2 -15.4 24.5 -10.7 32.5 -26.9 c 3.1 -6.3 -0.9 -14.5 1.8 -21 c 2.2 -5.5 7.2 -9.2 10.7 -14 C 218 165.7 219.2 163.1 220.1 160.3 z" stroke-linecap="round"/>
</clipPath>
<path style="stroke: none; stroke-width: 1; stroke-dasharray: none; stroke-linecap: butt; stroke-dashoffset: 0; stroke-linejoin: miter; stroke-miterlimit: 4; is-custom-font: none; font-file-url: none; fill: rgb(253,234,81); fill-rule: nonzero; opacity: 1;" transform=" translate(-124.15, -41.4672)" d="M 132.7 52.2 c -0.1 -1 -3.1 -8.1 -3.9 -9.6 c -2.5 -4.5 -4.4 -10.3 -7.5 -13.7 c -0.4 -0.4 -1.3 -0.4 -1.9 -0.6 c -0.5 -0.2 -2.1 -0.2 -3.8 -0.1 c 0.2 0.6 0.6 1.3 0.7 1.9 c 0.5 0.2 0.8 0.4 1.1 0.7 c 0.5 0.4 9.3 23.8 10.9 24 c 0.6 0 1.1 -0.1 1.7 -0.2 c 0.9 -0.2 1.9 -0.4 2.4 -1.1 C 132.6 53.1 132.7 52.6 132.7 52.2 z" stroke-linecap="round"/>
</g>
		<g transform="matrix(1 0 0 1 -52.3233 -65.1764)" id="_x31_" clip-path="url(#CLIPPATH_36)">
<clipPath id="CLIPPATH_36">
	<path transform="matrix(1 0 0 1 52.3699 64.8115) translate(-128.9465, -128.535)" id="SVGID_2_" d="M 220.1 160.3 c 3.2 -10.3 1.5 -23.8 -9.5 -27.3 c -27.9 -9.1 -47.3 12.1 -50.1 12.6 c -3 0.6 -11.2 -8 -35.1 -6.8 c -14.2 0.7 -30.5 14.5 -30.2 14.1 c 0 0 -0.2 -13.7 -8.4 -62.5 c -0.5 -2.9 1.2 -5.4 2.1 -8.2 c 12.3 -0.3 21.7 -5.9 22.2 -5.9 c 0.4 0 7.7 2.4 9.9 2.2 c 5.4 -0.7 8.3 -3.7 9.5 -6.9 c 0.7 -1.9 -0.4 -4.1 -2.1 -5.3 c -1.4 -1 -4 -3.2 -4 -3.2 c 5.4 -1.9 9.8 -7.9 10.3 -9 c 0.6 -1.5 0.3 -3.3 -0.2 -4.9 c -0.3 -1.1 -0.7 -2.1 -1.2 -3.1 c -0.9 -1.7 -10.3 -18.1 -10.8 -18.7 c -1.8 -2 -3.5 -0.4 -5.3 -0.4 c -1.4 0 -2.7 -0.9 -4.1 -1.3 c -1.7 -0.4 -3.5 0.2 -5.2 0.9 c -4.5 1.9 -9 3.8 -13.6 5.6 c -8.6 3.8 -18.6 6.3 -25.6 12.9 c -4.7 4.4 -7.7 10.3 -9.5 16.5 c -1.6 5.4 -2.2 12.4 -3.1 17.9 c -1.5 9.1 -6.7 31.1 -9.4 39.6 c -13.8 43.2 -10.2 65.4 -9.1 67.1 c 1.3 2.2 0.8 5.5 1 7.9 c 0.3 4.2 1.9 8.4 4.8 11.4 c 2.7 2.9 8.2 4.7 12.1 4.2 c 16.1 -2.1 39.9 -1 46.7 -0.2 c 7.1 4.3 11.8 4.8 20.7 6.4 c 9.1 1.7 19.7 1.4 26.6 0.2 c 4.5 4.5 9.4 10.7 15.1 14.5 c 2.4 1.6 5.6 1 7.2 -1.3 c 11.2 -15.4 24.5 -10.7 32.5 -26.9 c 3.1 -6.3 -0.9 -14.5 1.8 -21 c 2.2 -5.5 7.2 -9.2 10.7 -14 C 218 165.7 219.2 163.1 220.1 160.3 z" stroke-linecap="round"/>
</clipPath>
<path style="stroke: none; stroke-width: 1; stroke-dasharray: none; stroke-linecap: butt; stroke-dashoffset: 0; stroke-linejoin: miter; stroke-miterlimit: 4; is-custom-font: none; font-file-url: none; fill: rgb(253,157,38); fill-rule: nonzero; opacity: 1;" transform=" translate(-76.5767, -63.7236)" d="M 88.9 43.8 c -6 0.4 -11.9 2.4 -17.5 4.5 c -2 0.8 -4 1.6 -5.6 3.1 c -1 1 -1.7 2.2 -2.2 3.5 c -1.1 2.7 -1.6 5.6 -2.1 8.5 c -0.5 3.5 -1.1 6.9 -1.6 10.4 c -0.4 2.6 -0.8 5.3 0.2 7.7 c 0.4 1.1 1.3 2.1 2.5 2.2 c 1.2 0.1 2.2 -0.9 2.7 -2 c 0.5 -1.1 0.7 -2.3 1.1 -3.3 c 1.1 -2.6 3.8 -4.2 6.5 -5.2 c 2.6 -1 5.5 -1.8 7.7 -3.5 c 3.1 -2.5 4.3 -6.2 6.6 -9.2 c 1.7 -2.2 3.3 -3.7 4.4 -6.3 c 1 -2.2 4.4 -10.2 -0.5 -10.2 C 90.4 43.7 89.7 43.7 88.9 43.8 z" stroke-linecap="round"/>
</g>
		<g transform="matrix(1 0 0 1 -40.843 -48.5229)" id="_x31_" clip-path="url(#CLIPPATH_37)">
<linearGradient id="SVGID_24" gradientUnits="userSpaceOnUse" gradientTransform="matrix(1 0 0 1 0 0)" x1="87.9749" y1="78.0506" x2="86.354" y2="81.6041">
<stop offset="0%" style="stop-color:rgb(237,165,116);stop-opacity: 1"/>
<stop offset="100%" style="stop-color:rgb(237,165,116);stop-opacity: 1"/>
</linearGradient>
<clipPath id="CLIPPATH_37">
	<path transform="matrix(1 0 0 1 40.8895 48.1579) translate(-128.9465, -128.535)" id="SVGID_2_" d="M 220.1 160.3 c 3.2 -10.3 1.5 -23.8 -9.5 -27.3 c -27.9 -9.1 -47.3 12.1 -50.1 12.6 c -3 0.6 -11.2 -8 -35.1 -6.8 c -14.2 0.7 -30.5 14.5 -30.2 14.1 c 0 0 -0.2 -13.7 -8.4 -62.5 c -0.5 -2.9 1.2 -5.4 2.1 -8.2 c 12.3 -0.3 21.7 -5.9 22.2 -5.9 c 0.4 0 7.7 2.4 9.9 2.2 c 5.4 -0.7 8.3 -3.7 9.5 -6.9 c 0.7 -1.9 -0.4 -4.1 -2.1 -5.3 c -1.4 -1 -4 -3.2 -4 -3.2 c 5.4 -1.9 9.8 -7.9 10.3 -9 c 0.6 -1.5 0.3 -3.3 -0.2 -4.9 c -0.3 -1.1 -0.7 -2.1 -1.2 -3.1 c -0.9 -1.7 -10.3 -18.1 -10.8 -18.7 c -1.8 -2 -3.5 -0.4 -5.3 -0.4 c -1.4 0 -2.7 -0.9 -4.1 -1.3 c -1.7 -0.4 -3.5 0.2 -5.2 0.9 c -4.5 1.9 -9 3.8 -13.6 5.6 c -8.6 3.8 -18.6 6.3 -25.6 12.9 c -4.7 4.4 -7.7 10.3 -9.5 16.5 c -1.6 5.4 -2.2 12.4 -3.1 17.9 c -1.5 9.1 -6.7 31.1 -9.4 39.6 c -13.8 43.2 -10.2 65.4 -9.1 67.1 c 1.3 2.2 0.8 5.5 1 7.9 c 0.3 4.2 1.9 8.4 4.8 11.4 c 2.7 2.9 8.2 4.7 12.1 4.2 c 16.1 -2.1 39.9 -1 46.7 -0.2 c 7.1 4.3 11.8 4.8 20.7 6.4 c 9.1 1.7 19.7 1.4 26.6 0.2 c 4.5 4.5 9.4 10.7 15.1 14.5 c 2.4 1.6 5.6 1 7.2 -1.3 c 11.2 -15.4 24.5 -10.7 32.5 -26.9 c 3.1 -6.3 -0.9 -14.5 1.8 -21 c 2.2 -5.5 7.2 -9.2 10.7 -14 C 218 165.7 219.2 163.1 220.1 160.3 z" stroke-linecap="round"/>
</clipPath>
<path style="stroke: none; stroke-width: 1; stroke-dasharray: none; stroke-linecap: butt; stroke-dashoffset: 0; stroke-linejoin: miter; stroke-miterlimit: 4; is-custom-font: none; font-file-url: none; fill: url(#SVGID_24); fill-rule: nonzero; opacity: 0.3;" transform=" translate(-88.057, -80.3771)" d="M 90.4 81.4 c 1.4 0.3 5 -0.1 9.4 -1.8 c 0.3 -0.1 -4.3 3 -4.5 3.3 c -0.1 0.2 -0.3 0.3 -0.5 0.4 c -2 0.9 -4.2 1.2 -6.4 1 c 0 -1 -0.6 -1.8 -1.2 -2.5 c -2 -2.4 -3.4 -3.6 -10.9 -5.4 c 1.2 -0.1 6.6 1.3 7.5 1.6 C 85.2 78.5 88.2 80.9 90.4 81.4 z" stroke-linecap="round"/>
</g>
		<g transform="matrix(1 0 0 1 24.65 58.8546)" id="_x31_" clip-path="url(#CLIPPATH_38)">
<clipPath id="CLIPPATH_38">
	<path transform="matrix(1 0 0 1 -24.6035 -59.2196) translate(-128.9465, -128.535)" id="SVGID_2_" d="M 220.1 160.3 c 3.2 -10.3 1.5 -23.8 -9.5 -27.3 c -27.9 -9.1 -47.3 12.1 -50.1 12.6 c -3 0.6 -11.2 -8 -35.1 -6.8 c -14.2 0.7 -30.5 14.5 -30.2 14.1 c 0 0 -0.2 -13.7 -8.4 -62.5 c -0.5 -2.9 1.2 -5.4 2.1 -8.2 c 12.3 -0.3 21.7 -5.9 22.2 -5.9 c 0.4 0 7.7 2.4 9.9 2.2 c 5.4 -0.7 8.3 -3.7 9.5 -6.9 c 0.7 -1.9 -0.4 -4.1 -2.1 -5.3 c -1.4 -1 -4 -3.2 -4 -3.2 c 5.4 -1.9 9.8 -7.9 10.3 -9 c 0.6 -1.5 0.3 -3.3 -0.2 -4.9 c -0.3 -1.1 -0.7 -2.1 -1.2 -3.1 c -0.9 -1.7 -10.3 -18.1 -10.8 -18.7 c -1.8 -2 -3.5 -0.4 -5.3 -0.4 c -1.4 0 -2.7 -0.9 -4.1 -1.3 c -1.7 -0.4 -3.5 0.2 -5.2 0.9 c -4.5 1.9 -9 3.8 -13.6 5.6 c -8.6 3.8 -18.6 6.3 -25.6 12.9 c -4.7 4.4 -7.7 10.3 -9.5 16.5 c -1.6 5.4 -2.2 12.4 -3.1 17.9 c -1.5 9.1 -6.7 31.1 -9.4 39.6 c -13.8 43.2 -10.2 65.4 -9.1 67.1 c 1.3 2.2 0.8 5.5 1 7.9 c 0.3 4.2 1.9 8.4 4.8 11.4 c 2.7 2.9 8.2 4.7 12.1 4.2 c 16.1 -2.1 39.9 -1 46.7 -0.2 c 7.1 4.3 11.8 4.8 20.7 6.4 c 9.1 1.7 19.7 1.4 26.6 0.2 c 4.5 4.5 9.4 10.7 15.1 14.5 c 2.4 1.6 5.6 1 7.2 -1.3 c 11.2 -15.4 24.5 -10.7 32.5 -26.9 c 3.1 -6.3 -0.9 -14.5 1.8 -21 c 2.2 -5.5 7.2 -9.2 10.7 -14 C 218 165.7 219.2 163.1 220.1 160.3 z" stroke-linecap="round"/>
</clipPath>
<path style="stroke: none; stroke-width: 1; stroke-dasharray: none; stroke-linecap: butt; stroke-dashoffset: 0; stroke-linejoin: miter; stroke-miterlimit: 4; is-custom-font: none; font-file-url: none; fill: rgb(237,165,116); fill-rule: nonzero; opacity: 0.8;" transform=" translate(-153.55, -187.7546)" d="M 129.8 188.9 c 19.3 3.5 45.3 4.5 47.5 -4.8 C 176.2 187.3 136.8 189.2 129.8 188.9 z" stroke-linecap="round"/>
</g>
		<g transform="matrix(1 0 0 1 -5.9656 -60.0926)" id="_x31_">
<path style="stroke: none; stroke-width: 1; stroke-dasharray: none; stroke-linecap: butt; stroke-dashoffset: 0; stroke-linejoin: miter; stroke-miterlimit: 4; is-custom-font: none; font-file-url: none; fill: rgb(252,204,36); fill-rule: nonzero; opacity: 1;" transform=" translate(-122.9344, -68.8074)" d="M 121.1 62.2 c -2.2 -0.1 -4.3 1.1 -5.5 2.9 c -0.3 0.5 -0.6 1.1 -0.6 1.7 c -0.1 1.3 0.8 2.5 1.7 3.3 c 1.5 1.4 6.8 4.6 9.1 5.2 c 2.7 0.7 4.4 -1.8 4.9 -3.6 c 0.4 -1.3 0.1 -2.8 -0.7 -4 c -0.7 -1.2 -1.8 -2.1 -2.9 -2.9 C 125.3 63.4 123.3 62.2 121.1 62.2 z" stroke-linecap="round"/>
</g>
</g>
</g>
</svg>