<svg width="63" height="50" viewBox="0 0 63 50" fill="none" xmlns="http://www.w3.org/2000/svg">
<path d="M60.4293 42.6775C62.5127 42.7958 62.5127 42.7958 62.5127 44.8218C62.5127 45.5157 62.5249 46.2114 62.5093 46.9053C62.4675 48.62 61.1528 49.94 59.445 49.9957C59.2502 50.0026 59.0537 49.9991 58.8589 49.9991C40.454 49.9991 22.0491 49.9991 3.64419 49.9991C1.19727 49.9991 0.00251203 48.8096 0.000772933 46.3731C0.000772933 45.6131 -0.000966167 44.8549 0.000772933 44.0949C0.00425113 43.0393 0.336419 42.714 1.41118 42.7071C1.60422 42.7053 1.799 42.7071 2.08248 42.7071C2.08248 42.4045 2.08248 42.1314 2.08248 41.8601C2.08248 29.1004 2.08248 16.3423 2.08248 3.58255C2.08595 1.2278 3.30332 0 5.64067 0C22.7221 0 39.8018 0 56.8833 0C59.191 0 60.4293 1.22954 60.4293 3.52516C60.4293 16.3058 60.4293 29.0865 60.4293 41.8671C60.4293 42.1245 60.4293 42.3801 60.4293 42.6775ZM21.8804 11.4555C21.8804 10.8207 21.8804 10.2798 21.8804 9.73896C21.8839 7.4903 23.1325 6.25033 25.3969 6.25033C34.1654 6.25033 42.9339 6.25033 51.7025 6.25033C53.9668 6.25033 55.2172 7.49204 55.2189 9.7407C55.2207 13.885 55.2189 18.0293 55.2189 22.1753C55.2189 22.4066 55.2189 22.6379 55.2189 22.8709C56.3007 22.8709 57.3059 22.8709 58.3441 22.8709C58.3441 22.6535 58.3441 22.4813 58.3441 22.3109C58.3441 16.0397 58.3441 9.76853 58.3441 3.49733C58.3441 2.40691 58.0119 2.08518 56.8902 2.08518C39.8088 2.08518 22.7273 2.08518 5.64763 2.08518C4.48417 2.08518 4.1694 2.393 4.1694 3.53559C4.1694 9.76331 4.1694 15.991 4.1694 22.2187C4.1694 22.4448 4.1694 22.6727 4.1694 22.8779C6.30849 22.8779 8.33976 22.8779 10.4197 22.8779C10.4197 21.9109 10.418 20.9822 10.4197 20.0536C10.4249 17.9701 11.7101 16.6728 13.7797 16.6693C16.2318 16.6641 18.6839 16.6675 21.1378 16.6675C21.3691 16.6675 21.6004 16.6675 21.8334 16.6675C21.8334 15.5858 21.8334 14.5806 21.8334 13.5285C18.3657 13.5285 14.9449 13.5285 11.5014 13.5285C11.5014 12.8224 11.5014 12.1633 11.5014 11.4589C14.9623 11.4555 18.3831 11.4555 21.8804 11.4555ZM53.1025 23.9318C53.1181 23.7978 53.1338 23.7335 53.1338 23.6709C53.1355 18.9649 53.139 14.2571 53.1338 9.55114C53.132 8.69202 52.7355 8.33377 51.8155 8.33377C42.9652 8.33203 34.1132 8.33203 25.2629 8.33377C24.329 8.33377 23.9673 8.69898 23.9656 9.63635C23.9604 11.805 23.9638 13.9737 23.9656 16.1423C23.9656 16.3075 23.9951 16.471 24.0125 16.6641C24.7047 16.6641 25.3534 16.6554 26.0021 16.6658C27.8229 16.6936 29.1429 18.0188 29.169 19.8484C29.1777 20.4988 29.1707 21.1492 29.1707 21.7996C29.1707 22.5057 29.1707 23.2135 29.1707 23.93C37.1949 23.9318 45.1269 23.9318 53.1025 23.9318ZM29.1394 26.0691C29.1394 33.3716 29.1394 40.6219 29.1394 47.9157C29.3168 47.9157 29.5307 47.9157 29.7446 47.9157C37.0332 47.9157 44.3235 47.9157 51.6121 47.9157C52.8451 47.9157 53.1338 47.6218 53.1338 46.3766C53.1338 39.848 53.1338 33.3194 53.1338 26.7908C53.1338 26.5595 53.1338 26.3282 53.1338 26.0691C45.1322 26.0691 37.2001 26.0691 29.1394 26.0691ZM12.5032 33.2864C17.4092 33.2864 22.2317 33.2864 27.089 33.2864C27.089 33.0916 27.089 32.942 27.089 32.7925C27.089 28.5647 27.0907 24.337 27.0873 20.1075C27.0873 19.0953 26.7377 18.751 25.7134 18.751C21.7656 18.7492 17.8196 18.7492 13.8718 18.751C12.8492 18.751 12.5049 19.0936 12.5032 20.1127C12.4997 22.9526 12.5014 25.7943 12.5014 28.6343C12.5032 30.1699 12.5032 31.7073 12.5032 33.2864ZM12.5032 35.4376C12.5032 35.6985 12.5032 35.8915 12.5032 36.0829C12.5032 39.5524 12.5014 43.0201 12.5032 46.4896C12.5032 47.5905 12.8301 47.914 13.9414 47.914C17.8439 47.9157 21.7482 47.9157 25.6508 47.914C26.7603 47.914 27.0873 47.5887 27.089 46.4879C27.0907 43.0184 27.0907 39.5506 27.089 36.0811C27.089 35.8724 27.0699 35.6637 27.0594 35.4376C22.1986 35.4376 17.3935 35.4376 12.5032 35.4376ZM10.3884 25.0465C8.29454 25.0465 6.24762 25.0465 4.21983 25.0465C4.21983 30.956 4.21983 36.8202 4.21983 42.6723C6.30153 42.6723 8.3328 42.6723 10.378 42.6723C10.378 41.9801 10.378 41.3228 10.378 40.5941C8.98323 40.5941 7.63021 40.5941 6.28762 40.5941C6.28762 39.881 6.28762 39.2376 6.28762 38.5263C7.67368 38.5263 9.0267 38.5263 10.3693 38.5263C10.3693 37.7959 10.3693 37.1385 10.3693 36.4568C9.4093 36.4568 8.49976 36.4602 7.59021 36.455C6.61109 36.4498 6.25632 36.1002 6.25458 35.1246C6.2511 32.8916 6.2511 30.6569 6.25458 28.4239C6.25632 27.4413 6.60761 27.0882 7.57977 27.083C8.50671 27.0778 9.43365 27.0813 10.3902 27.0813C10.3884 26.3769 10.3884 25.7352 10.3884 25.0465ZM58.3006 42.6775C58.3006 36.7628 58.3006 30.9003 58.3006 25.0517C57.2502 25.0517 56.245 25.0517 55.2537 25.0517C55.2537 30.9525 55.2537 36.7994 55.2537 42.6775C56.2746 42.6775 57.2641 42.6775 58.3006 42.6775ZM2.11726 44.8166C2.10161 44.9523 2.08769 45.0149 2.08769 45.0792C2.08595 45.5766 2.08248 46.0757 2.08595 46.5731C2.09117 47.5522 2.44247 47.9122 3.40941 47.914C5.61807 47.9174 7.82846 47.9157 10.0371 47.914C10.2023 47.914 10.3658 47.8896 10.4302 47.8844C10.4302 46.8305 10.4302 45.8253 10.4302 44.8184C7.60412 44.8166 4.88243 44.8166 2.11726 44.8166ZM55.1894 47.9105C56.565 47.9105 57.9911 47.9279 59.4154 47.9018C59.9858 47.8913 60.3649 47.54 60.4067 46.9748C60.4589 46.2705 60.4189 45.5592 60.4189 44.8253C58.6676 44.8253 56.972 44.8253 55.1894 44.8253C55.1894 45.8462 55.1894 46.8322 55.1894 47.9105ZM8.36063 34.3229C9.08409 34.3229 9.74147 34.3229 10.3884 34.3229C10.3884 32.5907 10.3884 30.909 10.3884 29.2047C9.698 29.2047 9.04235 29.2047 8.36063 29.2047C8.36063 30.9264 8.36063 32.6081 8.36063 34.3229Z" fill="url(#paint0_linear_3603_29643)"/>
<path d="M14.5588 4.21094C14.5588 4.89788 14.5588 5.53961 14.5588 6.21438C13.1953 6.21438 11.8614 6.21438 10.4736 6.21438C10.4736 5.57265 10.4736 4.91527 10.4736 4.21094C11.804 4.21094 13.1553 4.21094 14.5588 4.21094Z" fill="url(#paint1_linear_3603_29643)"/>
<path d="M20.7983 6.23699C19.414 6.23699 18.094 6.23699 16.7236 6.23699C16.7236 5.57091 16.7236 4.91353 16.7236 4.21094C18.0575 4.21094 19.4071 4.21094 20.7983 4.21094C20.7983 4.86832 20.7983 5.52396 20.7983 6.23699Z" fill="url(#paint2_linear_3603_29643)"/>
<path d="M8.30685 4.20312C8.30685 4.8779 8.30685 5.51788 8.30685 6.20483C7.64773 6.20483 6.99035 6.20483 6.29297 6.20483C6.29297 5.55093 6.29297 4.89355 6.29297 4.20312C6.95035 4.20312 7.59034 4.20312 8.30685 4.20312Z" fill="url(#paint3_linear_3603_29643)"/>
<path d="M30.2285 16.6258C30.2285 15.9389 30.2285 15.3111 30.2285 14.6328C35.7554 14.6328 41.2735 14.6328 46.8369 14.6328C46.8369 15.2693 46.8369 15.9267 46.8369 16.6258C41.3205 16.6258 35.8041 16.6258 30.2285 16.6258Z" fill="url(#paint4_linear_3603_29643)"/>
<path d="M33.376 18.7773C36.8316 18.7773 40.2489 18.7773 43.7132 18.7773C43.7132 19.4417 43.7132 20.0991 43.7132 20.7947C40.2767 20.7947 36.8437 20.7947 33.376 20.7947C33.376 20.1338 33.376 19.4921 33.376 18.7773Z" fill="url(#paint5_linear_3603_29643)"/>
<path d="M28.1012 10.4531C28.1012 11.1227 28.1012 11.7627 28.1012 12.4514C27.4473 12.4514 26.7899 12.4514 26.0908 12.4514C26.0908 11.8027 26.0908 11.1453 26.0908 10.4531C26.7412 10.4531 27.3812 10.4531 28.1012 10.4531Z" fill="url(#paint6_linear_3603_29643)"/>
<path d="M51.0001 12.4753C50.3305 12.4753 49.6905 12.4753 49.0088 12.4753C49.0088 11.797 49.0088 11.1414 49.0088 10.4492C49.6662 10.4492 50.3062 10.4492 51.0001 10.4492C51.0001 11.0927 51.0001 11.7483 51.0001 12.4753Z" fill="url(#paint7_linear_3603_29643)"/>
<path d="M41.1547 37.4975C38.3113 37.4975 35.4679 37.4992 32.6244 37.4957C31.6036 37.494 31.2592 37.1496 31.2575 36.1288C31.254 33.894 31.254 31.6593 31.2575 29.4245C31.2592 28.4889 31.6227 28.1237 32.5566 28.1237C38.2869 28.1202 44.0155 28.1202 49.7459 28.1237C50.6815 28.1237 51.0467 28.4889 51.0485 29.4228C51.0537 31.6802 51.0537 33.9358 51.0485 36.1931C51.0467 37.127 50.6798 37.494 49.7476 37.4957C46.885 37.5009 44.019 37.4975 41.1547 37.4975ZM48.9372 30.2506C43.7164 30.2506 38.5461 30.2506 33.3914 30.2506C33.3914 31.9949 33.3914 33.694 33.3914 35.381C38.5982 35.381 43.7529 35.381 48.9372 35.381C48.9372 33.6645 48.9372 31.9828 48.9372 30.2506Z" fill="url(#paint8_linear_3603_29643)"/>
<path d="M31.2852 41.6206C31.2852 40.9354 31.2852 40.2937 31.2852 39.6172C37.8572 39.6172 44.3997 39.6172 50.9979 39.6172C50.9979 40.2572 50.9979 40.9163 50.9979 41.6206C44.4588 41.6206 37.899 41.6206 31.2852 41.6206Z" fill="url(#paint9_linear_3603_29643)"/>
<path d="M51.0203 43.793C51.0203 44.4834 51.0203 45.1251 51.0203 45.7999C44.4465 45.7999 37.904 45.7999 31.3076 45.7999C31.3076 45.1547 31.3076 44.4956 31.3076 43.793C37.8536 43.793 44.4117 43.793 51.0203 43.793Z" fill="url(#paint10_linear_3603_29643)"/>
<path d="M15.6562 27.0516C15.6562 26.3699 15.6562 25.7282 15.6562 25.043C18.4092 25.043 21.1466 25.043 23.9257 25.043C23.9257 25.7056 23.9257 26.3629 23.9257 27.0516C21.1779 27.0516 18.4545 27.0516 15.6562 27.0516Z" fill="url(#paint11_linear_3603_29643)"/>
<path d="M22.8922 29.2109C22.8922 29.8979 22.8922 30.5396 22.8922 31.2144C20.8349 31.2144 18.8053 31.2144 16.7236 31.2144C16.7236 30.5727 16.7236 29.9153 16.7236 29.2109C18.7497 29.2109 20.7949 29.2109 22.8922 29.2109Z" fill="url(#paint12_linear_3603_29643)"/>
<path d="M14.6211 20.8594C15.2976 20.8594 15.9376 20.8594 16.6245 20.8594C16.6245 21.5202 16.6245 22.1776 16.6245 22.875C15.9672 22.875 15.3115 22.875 14.6211 22.875C14.6211 22.2176 14.6211 21.5759 14.6211 20.8594Z" fill="url(#paint13_linear_3603_29643)"/>
<path d="M22.9463 22.8658C22.9463 22.1911 22.9463 21.5511 22.9463 20.8711C23.6263 20.8711 24.2819 20.8711 24.9723 20.8711C24.9723 21.532 24.9723 22.1737 24.9723 22.8658C24.3254 22.8658 23.6698 22.8658 22.9463 22.8658Z" fill="url(#paint14_linear_3603_29643)"/>
<path d="M19.7853 45.8314C18.4827 45.8314 17.1801 45.8366 15.8793 45.8297C14.9523 45.8245 14.5924 45.4592 14.5889 44.5184C14.5837 42.6089 14.5837 40.6993 14.5889 38.7898C14.5924 37.8611 14.9576 37.5011 15.9002 37.4994C18.5053 37.4959 21.1088 37.4942 23.7139 37.4994C24.6426 37.5011 25.0026 37.8681 25.0061 38.8107C25.0113 40.7202 25.0113 42.6297 25.0061 44.5393C25.0026 45.4662 24.6339 45.8262 23.6931 45.8297C22.3905 45.8349 21.0879 45.8314 19.7853 45.8314ZM22.8931 39.6263C20.7975 39.6263 18.7523 39.6263 16.7228 39.6263C16.7228 41.0228 16.7228 42.3741 16.7228 43.7132C18.8045 43.7132 20.834 43.7132 22.8931 43.7132C22.8931 42.3445 22.8931 41.0089 22.8931 39.6263Z" fill="url(#paint15_linear_3603_29643)"/>
<defs>
<linearGradient id="paint0_linear_3603_29643" x1="0.434775" y1="8.60855" x2="55.1295" y2="34.4342" gradientUnits="userSpaceOnUse">
<stop stop-color="#20D4FE"/>
<stop offset="1" stop-color="#B722FF"/>
</linearGradient>
<linearGradient id="paint1_linear_3603_29643" x1="10.502" y1="4.55587" x2="13.2459" y2="6.66872" gradientUnits="userSpaceOnUse">
<stop stop-color="#20D4FE"/>
<stop offset="1" stop-color="#B722FF"/>
</linearGradient>
<linearGradient id="paint2_linear_3603_29643" x1="16.752" y1="4.55976" x2="19.5168" y2="6.65962" gradientUnits="userSpaceOnUse">
<stop stop-color="#20D4FE"/>
<stop offset="1" stop-color="#B722FF"/>
</linearGradient>
<linearGradient id="paint3_linear_3603_29643" x1="6.30697" y1="4.54776" x2="8.18988" y2="5.26314" gradientUnits="userSpaceOnUse">
<stop stop-color="#20D4FE"/>
<stop offset="1" stop-color="#B722FF"/>
</linearGradient>
<linearGradient id="paint4_linear_3603_29643" x1="30.344" y1="14.976" x2="31.9738" y2="20.1047" gradientUnits="userSpaceOnUse">
<stop stop-color="#20D4FE"/>
<stop offset="1" stop-color="#B722FF"/>
</linearGradient>
<linearGradient id="paint5_linear_3603_29643" x1="33.4479" y1="19.1247" x2="35.779" y2="23.6356" gradientUnits="userSpaceOnUse">
<stop stop-color="#20D4FE"/>
<stop offset="1" stop-color="#B722FF"/>
</linearGradient>
<linearGradient id="paint6_linear_3603_29643" x1="26.1048" y1="10.7972" x2="27.9845" y2="11.5113" gradientUnits="userSpaceOnUse">
<stop stop-color="#20D4FE"/>
<stop offset="1" stop-color="#B722FF"/>
</linearGradient>
<linearGradient id="paint7_linear_3603_29643" x1="49.0226" y1="10.798" x2="50.8952" y2="11.4931" gradientUnits="userSpaceOnUse">
<stop stop-color="#20D4FE"/>
<stop offset="1" stop-color="#B722FF"/>
</linearGradient>
<linearGradient id="paint8_linear_3603_29643" x1="31.3926" y1="29.7356" x2="44.3429" y2="40.0604" gradientUnits="userSpaceOnUse">
<stop stop-color="#20D4FE"/>
<stop offset="1" stop-color="#B722FF"/>
</linearGradient>
<linearGradient id="paint9_linear_3603_29643" x1="31.4222" y1="39.9621" x2="32.8467" y2="45.2549" gradientUnits="userSpaceOnUse">
<stop stop-color="#20D4FE"/>
<stop offset="1" stop-color="#B722FF"/>
</linearGradient>
<linearGradient id="paint10_linear_3603_29643" x1="31.4447" y1="44.1385" x2="32.8738" y2="49.4393" gradientUnits="userSpaceOnUse">
<stop stop-color="#20D4FE"/>
<stop offset="1" stop-color="#B722FF"/>
</linearGradient>
<linearGradient id="paint11_linear_3603_29643" x1="15.7138" y1="25.3888" x2="18.303" y2="29.4143" gradientUnits="userSpaceOnUse">
<stop stop-color="#20D4FE"/>
<stop offset="1" stop-color="#B722FF"/>
</linearGradient>
<linearGradient id="paint12_linear_3603_29643" x1="16.7665" y1="29.5559" x2="19.5727" y2="32.8187" gradientUnits="userSpaceOnUse">
<stop stop-color="#20D4FE"/>
<stop offset="1" stop-color="#B722FF"/>
</linearGradient>
<linearGradient id="paint13_linear_3603_29643" x1="14.635" y1="21.2064" x2="16.5139" y2="21.9116" gradientUnits="userSpaceOnUse">
<stop stop-color="#20D4FE"/>
<stop offset="1" stop-color="#B722FF"/>
</linearGradient>
<linearGradient id="paint14_linear_3603_29643" x1="22.9604" y1="21.2145" x2="24.8501" y2="21.9394" gradientUnits="userSpaceOnUse">
<stop stop-color="#20D4FE"/>
<stop offset="1" stop-color="#B722FF"/>
</linearGradient>
<linearGradient id="paint15_linear_3603_29643" x1="14.6575" y1="38.9315" x2="23.7778" y2="43.2382" gradientUnits="userSpaceOnUse">
<stop stop-color="#20D4FE"/>
<stop offset="1" stop-color="#B722FF"/>
</linearGradient>
</defs>
</svg>
