<svg width="50" height="50" viewBox="0 0 50 50" fill="none" xmlns="http://www.w3.org/2000/svg">
<path d="M10.5453 50C10.2165 49.9169 9.88024 49.8557 9.55991 49.7457C7.42278 49.0182 6.05712 47.556 5.68667 45.3296C5.30032 43.0066 6.13903 41.1226 8.06221 39.7313C8.2077 39.6261 8.3752 39.4146 8.37031 39.2581C8.2835 36.418 10.3473 33.9189 13.3561 33.4678C13.3561 31.7402 13.3561 30.0066 13.3561 28.2044C13.1789 28.2044 13.0065 28.2044 12.8341 28.2044C10.9305 28.2044 9.02685 28.2069 7.12202 28.202C6.89583 28.202 6.66476 28.1861 6.44591 28.1348C6.00944 28.0321 5.73679 27.6506 5.74413 27.2019C5.75147 26.763 6.05223 26.3766 6.48381 26.2923C6.68921 26.2519 6.90439 26.2544 7.1159 26.2544C9.00362 26.2519 10.8913 26.2532 12.7791 26.2532C12.9551 26.2532 13.1324 26.2532 13.3476 26.2532C13.3476 25.2041 13.3476 24.193 13.3476 23.1294C13.1593 23.1294 12.9845 23.1294 12.8108 23.1294C10.9072 23.1294 9.00362 23.1318 7.09879 23.1269C6.88972 23.1269 6.67454 23.111 6.47159 23.0646C6.00332 22.9582 5.72946 22.578 5.7478 22.1036C5.76614 21.6414 6.08402 21.2588 6.55595 21.2099C6.9753 21.1659 7.40077 21.1793 7.8238 21.1793C9.48411 21.1769 11.1432 21.1781 12.8035 21.1781C12.9783 21.1781 13.1532 21.1781 13.3574 21.1781C13.3574 20.1266 13.3574 19.1265 13.3574 18.0543C13.1801 18.0543 13.0077 18.0543 12.8365 18.0543C10.9329 18.0543 9.0293 18.0567 7.12446 18.0519C6.89828 18.0519 6.6672 18.036 6.44836 17.9846C6.01066 17.8819 5.73802 17.5017 5.74535 17.053C5.75269 16.6141 6.05223 16.2265 6.48259 16.1421C6.68799 16.1018 6.90317 16.1042 7.11468 16.103C9.0024 16.1006 10.8901 16.1018 12.7778 16.1018C12.9539 16.1018 13.1312 16.1018 13.3476 16.1018C13.3476 15.0552 13.3476 14.0441 13.3476 12.978C13.1617 12.978 12.9881 12.978 12.8133 12.978C10.9097 12.978 9.00607 12.9804 7.10123 12.9756C6.89217 12.9756 6.67699 12.9597 6.47403 12.9132C6.00577 12.8068 5.73068 12.429 5.7478 11.9534C5.76491 11.4913 6.08279 11.1098 6.55472 11.0573C6.94107 11.0145 7.33475 11.0267 7.72477 11.0267C9.41686 11.0243 11.109 11.0255 12.8023 11.0255C12.9771 11.0255 13.1532 11.0255 13.3879 11.0255C13.3879 10.7859 13.3879 10.5963 13.3879 10.4068C13.3879 8.82845 13.3842 7.25005 13.3891 5.67288C13.3989 2.34981 15.7243 0.0231746 19.0413 0.0207293C22.9793 0.0170615 26.9186 0.0794149 30.8554 0.00116751C33.8802 -0.0587406 36.3792 2.19454 36.576 4.99799C36.5821 5.07869 36.6017 5.15816 36.6249 5.29264C36.7961 5.29264 36.9697 5.29264 37.1433 5.29264C39.6656 5.29264 42.1878 5.2902 44.7101 5.29264C47.8057 5.29631 49.9906 7.47746 49.9918 10.5707C49.9942 19.1449 49.9918 27.7191 49.9942 36.2933C49.9942 37.5513 49.6776 38.6994 48.8878 39.7007C48.4598 40.2435 47.9317 40.3805 47.4524 40.0491C46.9793 39.7227 46.8863 39.1285 47.2984 38.5918C47.8632 37.8545 48.0478 37.0378 48.0466 36.1282C48.0356 27.6677 48.0405 19.2084 48.0405 10.748C48.0405 8.48245 46.8069 7.24638 44.5463 7.24516C42.0888 7.24516 39.6313 7.24516 37.1751 7.24516C37.0003 7.24516 36.8254 7.24516 36.6347 7.24516C36.6347 8.52279 36.6347 9.74907 36.6347 11.0267C36.8389 11.0267 37.0137 11.0267 37.1886 11.0267C39.157 11.0267 41.1266 11.023 43.095 11.0292C43.8115 11.0316 44.221 11.3752 44.2443 11.9522C44.2626 12.4278 43.9887 12.8068 43.5205 12.9144C43.3175 12.9609 43.1023 12.9768 42.8933 12.9768C40.9897 12.9817 39.0861 12.9792 37.1812 12.9792C37.0064 12.9792 36.8328 12.9792 36.6323 12.9792C36.6323 14.0319 36.6323 15.0332 36.6323 16.103C36.8169 16.103 36.9905 16.103 37.1629 16.103C39.0665 16.103 40.9701 16.1018 42.8749 16.1042C43.0865 16.1042 43.3016 16.1018 43.507 16.1421C43.9386 16.2265 44.2394 16.6116 44.2467 17.0518C44.2553 17.5005 43.9826 17.8819 43.5462 17.9858C43.3273 18.0372 43.0962 18.0531 42.8701 18.0531C40.9823 18.058 39.0946 18.0555 37.2069 18.0555C37.0296 18.0555 36.8523 18.0555 36.6408 18.0555C36.6408 19.1009 36.6408 20.1132 36.6408 21.1793C36.8364 21.1793 37.0113 21.1793 37.1861 21.1793C39.1545 21.1793 41.1242 21.1756 43.0926 21.1817C43.809 21.1842 44.2198 21.5253 44.243 22.1024C44.2626 22.5767 43.9863 22.9594 43.5217 23.0658C43.3188 23.1123 43.1036 23.1281 42.8945 23.1281C40.9909 23.133 39.0873 23.1306 37.1824 23.1306C37.0076 23.1306 36.8328 23.1306 36.6323 23.1306C36.6323 24.182 36.6323 25.1834 36.6323 26.2544C36.8144 26.2544 36.9868 26.2544 37.1604 26.2544C39.146 26.2544 41.1315 26.2495 43.1158 26.258C43.842 26.2617 44.2638 26.6432 44.2418 27.2508C44.2247 27.7093 43.9887 28.0198 43.5462 28.136C43.3298 28.1934 43.0962 28.2044 42.8701 28.2044C40.9823 28.2093 39.0946 28.2069 37.2069 28.2069C37.0296 28.2069 36.8523 28.2069 36.6029 28.2069C36.6029 28.5553 36.6078 28.8744 36.6017 29.1923C36.587 29.9124 36.2166 30.3599 35.6346 30.3721C35.0306 30.3844 34.6516 29.9332 34.6516 29.1764C34.6492 21.3835 34.6467 13.5905 34.6529 5.79758C34.6541 4.25342 34.1051 3.0198 32.6673 2.34003C32.1844 2.1114 31.6049 1.99158 31.0694 1.98792C27.0176 1.9598 22.9659 1.96224 18.9141 1.97691C16.7941 1.98425 15.3478 3.48562 15.3429 5.65698C15.3343 8.84556 15.3404 12.0341 15.3404 15.2239C15.3404 21.1622 15.3404 27.1004 15.3404 33.0387C15.3404 33.2221 15.3404 33.4054 15.3404 33.5876C15.3869 33.5986 15.4321 33.6096 15.4786 33.6206C15.5568 33.4898 15.64 33.3614 15.7133 33.2282C16.8711 31.1448 18.5253 29.5897 20.6759 28.5615C21.0464 28.3842 21.4144 28.3071 21.7885 28.5358C22.3448 28.8757 22.412 29.6569 21.9108 30.0738C21.7506 30.2071 21.555 30.3012 21.3679 30.3954C19.3922 31.3942 17.9446 32.8932 17.0558 34.9276C16.6474 35.8617 16.3002 36.006 15.3331 35.6734C12.5394 34.7161 10.0013 36.7848 10.3913 39.7019C10.4903 40.4379 10.3399 40.7216 9.66995 41.0676C8.04142 41.9112 7.25039 43.5116 7.63062 45.1902C8.01575 46.8872 9.49511 48.0438 11.3449 48.045C19.8714 48.0524 28.3992 48.0573 36.9257 48.0426C39.8392 48.0377 42.1169 45.9287 42.4299 43.014C42.7172 40.3352 40.8283 37.7946 38.0884 37.1772C35.9696 36.7004 33.665 37.6174 32.4473 39.4207C32.3287 39.5956 32.2174 39.7765 32.089 39.944C31.732 40.4123 31.2026 40.5272 30.7613 40.2399C30.315 39.9489 30.128 39.3816 30.4666 38.9194C31.018 38.1651 31.6232 37.4376 32.2871 36.7823C32.7162 36.3593 33.2921 36.0854 33.8288 35.7272C33.2261 33.8652 32.1294 32.354 30.5449 31.1999C30.139 30.9052 29.6915 30.6668 29.2562 30.4125C28.6205 30.0408 28.4114 29.5249 28.6975 29.0053C28.9848 28.482 29.5423 28.3658 30.1793 28.6947C32.7456 30.0237 34.5563 32.0276 35.5429 34.7479C35.6909 35.1562 35.9109 35.1782 36.2692 35.1477C40.0886 34.82 43.4899 37.3459 44.2467 41.0566C45.0047 44.7794 42.8749 48.4326 39.2352 49.6296C38.7621 49.7848 38.2694 49.8777 37.7852 50C28.7073 50 19.6257 50 10.5453 50Z" fill="url(#paint0_linear_3603_29672)"/>
<path d="M0 9.68147C0.222516 8.7425 0.541618 7.85122 1.1896 7.10542C2.18114 5.9635 3.41965 5.32285 4.93447 5.2984C6.69137 5.26905 8.44949 5.28495 10.2064 5.29106C10.9241 5.29351 11.3508 5.67985 11.3398 6.28382C11.33 6.86457 10.9094 7.23502 10.2162 7.23869C8.58887 7.24602 6.96157 7.23991 5.33427 7.24113C3.23504 7.24358 1.95374 8.51754 1.95374 10.6107C1.95252 19.169 1.95741 27.726 1.94763 36.2843C1.9464 37.6439 2.46479 38.6721 3.66907 39.3323C4.08842 39.5622 4.35251 39.8911 4.27671 40.3972C4.17034 41.1039 3.47589 41.412 2.77656 41.0538C1.44758 40.3715 0.583187 39.303 0.183392 37.8615C0.123484 37.6439 0.0611307 37.4275 0 37.2111C0 28.0341 0 18.8572 0 9.68147Z" fill="url(#paint1_linear_3603_29672)"/>
<path d="M25.0071 8.21763C23.6892 8.21763 22.3712 8.21763 21.0532 8.21763C20.9236 8.21763 20.7916 8.22252 20.6632 8.20907C20.1216 8.14794 19.7377 7.75181 19.7315 7.25298C19.7242 6.75783 20.1057 6.3458 20.6424 6.27734C20.7708 6.26144 20.9028 6.26633 21.0324 6.26633C23.6684 6.26633 26.3043 6.26633 28.9403 6.26633C28.9562 6.26633 28.9733 6.26633 28.9892 6.26633C29.7863 6.27 30.2546 6.62456 30.2619 7.2322C30.2705 7.84106 29.7973 8.21763 29.01 8.21885C27.6749 8.21885 26.341 8.21763 25.0071 8.21763Z" fill="url(#paint2_linear_3603_29672)"/>
<path d="M24.996 11.3428C26.3788 11.3428 27.7616 11.3342 29.1444 11.3464C29.9586 11.3538 30.4501 11.9785 30.1909 12.651C30.0259 13.0801 29.686 13.2879 29.2434 13.2892C26.4118 13.2965 23.5815 13.3002 20.7499 13.2867C20.1508 13.2843 19.7314 12.8502 19.7314 12.3184C19.7314 11.7694 20.1655 11.3525 20.7988 11.3464C22.1975 11.3342 23.5961 11.3428 24.996 11.3428Z" fill="url(#paint3_linear_3603_29672)"/>
<path d="M24.9632 18.3723C23.6452 18.3723 22.3272 18.3748 21.0092 18.3699C20.8161 18.3686 20.6156 18.3613 20.431 18.3087C19.9884 18.184 19.7622 17.8588 19.7341 17.4113C19.7072 16.9883 20.014 16.591 20.4456 16.476C20.6156 16.4308 20.799 16.421 20.9762 16.421C23.6611 16.4174 26.346 16.4186 29.0296 16.4186C29.0944 16.4186 29.1604 16.4161 29.2252 16.421C29.8292 16.4565 30.2485 16.8465 30.2596 17.3796C30.2706 17.9285 29.8377 18.3601 29.2081 18.3662C27.7948 18.3809 26.379 18.3711 24.9632 18.3723Z" fill="url(#paint4_linear_3603_29672)"/>
<path d="M25.0452 21.4951C26.4121 21.4951 27.7789 21.4865 29.1458 21.4988C29.9601 21.5061 30.4516 22.1309 30.1912 22.8045C30.0249 23.2324 29.6862 23.4415 29.2424 23.4427C26.4108 23.4501 23.5805 23.4537 20.7489 23.4403C20.1498 23.4378 19.7305 23.0038 19.7305 22.472C19.7305 21.923 20.1645 21.5061 20.7978 21.5012C22.2148 21.4865 23.6294 21.4963 25.0452 21.4951Z" fill="url(#paint5_linear_3603_29672)"/>
<path d="M7.93145 33.0677C8.00725 31.6458 9.19074 30.4819 10.5845 30.4611C11.1543 30.4526 11.5577 30.7631 11.6286 31.2656C11.7069 31.8207 11.4293 32.2486 10.84 32.3476C10.2459 32.4479 9.91942 32.7242 9.84239 33.344C9.77515 33.8771 9.291 34.2231 8.81173 34.1669C8.27133 34.1021 7.90088 33.6411 7.93145 33.0677Z" fill="url(#paint6_linear_3603_29672)"/>
<path d="M39.4255 30.4623C40.8132 30.5161 41.9722 31.691 42.004 33.0762C42.0187 33.6839 41.6764 34.1093 41.1286 34.1668C40.653 34.2157 40.2019 33.8807 40.1139 33.3281C40.0209 32.7474 39.7324 32.4478 39.148 32.3525C38.5636 32.2571 38.2347 31.7986 38.3093 31.2998C38.39 30.7459 38.8008 30.4378 39.4255 30.4623Z" fill="url(#paint7_linear_3603_29672)"/>
<path d="M26.2816 28.4918C26.2877 29.0358 25.8414 29.487 25.3023 29.4809C24.79 29.4747 24.3352 29.0309 24.3254 28.5235C24.3144 27.9978 24.7802 27.5381 25.3194 27.543C25.8549 27.5479 26.2755 27.9624 26.2816 28.4918Z" fill="url(#paint8_linear_3603_29672)"/>
<path d="M31.0656 43.3056C31.0424 43.8301 30.5864 44.2556 30.0716 44.2299C29.552 44.2043 29.1302 43.7507 29.1449 43.2298C29.1596 42.6821 29.6278 42.2517 30.1707 42.2872C30.6976 42.3214 31.0901 42.7677 31.0656 43.3056Z" fill="url(#paint9_linear_3603_29672)"/>
<defs>
<linearGradient id="paint0_linear_3603_29672" x1="6.78911" y1="13.3265" x2="48.2337" y2="32.1333" gradientUnits="userSpaceOnUse">
<stop stop-color="#20D4FE"/>
<stop offset="1" stop-color="#B722FF"/>
</linearGradient>
<linearGradient id="paint1_linear_3603_29672" x1="0.305054" y1="14.8557" x2="12.7462" y2="16.8627" gradientUnits="userSpaceOnUse">
<stop stop-color="#20D4FE"/>
<stop offset="1" stop-color="#B722FF"/>
</linearGradient>
<linearGradient id="paint2_linear_3603_29672" x1="20.0147" y1="6.78622" x2="21.3946" y2="10.5879" gradientUnits="userSpaceOnUse">
<stop stop-color="#20D4FE"/>
<stop offset="1" stop-color="#B722FF"/>
</linearGradient>
<linearGradient id="paint3_linear_3603_29672" x1="20.0147" y1="11.8611" x2="21.398" y2="15.6667" gradientUnits="userSpaceOnUse">
<stop stop-color="#20D4FE"/>
<stop offset="1" stop-color="#B722FF"/>
</linearGradient>
<linearGradient id="paint4_linear_3603_29672" x1="20.0156" y1="16.9394" x2="21.3998" y2="20.7456" gradientUnits="userSpaceOnUse">
<stop stop-color="#20D4FE"/>
<stop offset="1" stop-color="#B722FF"/>
</linearGradient>
<linearGradient id="paint5_linear_3603_29672" x1="20.0138" y1="22.0138" x2="21.3985" y2="25.8213" gradientUnits="userSpaceOnUse">
<stop stop-color="#20D4FE"/>
<stop offset="1" stop-color="#B722FF"/>
</linearGradient>
<linearGradient id="paint6_linear_3603_29672" x1="8.02954" y1="31.4503" x2="11.3427" y2="33.1434" gradientUnits="userSpaceOnUse">
<stop stop-color="#20D4FE"/>
<stop offset="1" stop-color="#B722FF"/>
</linearGradient>
<linearGradient id="paint7_linear_3603_29672" x1="38.3985" y1="31.4499" x2="41.7079" y2="33.1388" gradientUnits="userSpaceOnUse">
<stop stop-color="#20D4FE"/>
<stop offset="1" stop-color="#B722FF"/>
</linearGradient>
<linearGradient id="paint8_linear_3603_29672" x1="24.3778" y1="28.0595" x2="26.1172" y2="28.9568" gradientUnits="userSpaceOnUse">
<stop stop-color="#20D4FE"/>
<stop offset="1" stop-color="#B722FF"/>
</linearGradient>
<linearGradient id="paint9_linear_3603_29672" x1="29.1962" y1="42.8038" x2="30.9206" y2="43.6742" gradientUnits="userSpaceOnUse">
<stop stop-color="#20D4FE"/>
<stop offset="1" stop-color="#B722FF"/>
</linearGradient>
</defs>
</svg>
