<?xml version="1.0" encoding="utf-8"?>
<!-- Generator: Adobe Illustrator 25.2.1, SVG Export Plug-In . SVG Version: 6.00 Build 0)  -->
<svg version="1.1" id="Layer_1" xmlns="http://www.w3.org/2000/svg" xmlns:xlink="http://www.w3.org/1999/xlink" x="0px" y="0px"
	 viewBox="0 0 203 37" style="enable-background:new 0 0 203 37;" xml:space="preserve">
<style type="text/css">
	.st0{fill:#FFFFFF;}
</style>
<g id="_xD83C__xDFA8_-UI-Design">
	<g id="_x30_2-Navigation-_x2F_-Navbar" transform="translate(-41.000000, -27.000000)">
		<g id="_x30_1-Component-_x2F_-Logo-_x2F_-Full-_x2F_-Small" transform="translate(41.000000, 27.000000)">
			<path id="hirestream" class="st0" d="M52.2,30.7v-1.2L50,29.2V18c0.7-0.5,1.5-1,2.4-1.3s1.7-0.6,2.5-0.6c0.9,0,1.7,0.2,2.1,0.5
				c0.5,0.3,0.8,0.9,1,1.6s0.3,1.7,0.3,2.9l0,0v8.2l-2.1,0.2v1.2h6.6v-1.2l-2.1-0.2v-8.2c0-1.7-0.1-3-0.4-3.9
				c-0.3-1-0.8-1.7-1.4-2.2c-0.7-0.5-1.6-0.7-2.9-0.7c-1.1,0-2.2,0.3-3.4,0.8c-1.1,0.5-2,1.1-2.7,1.6l0,0l0.1-2.4V7.4L49.4,7h-0.1
				L45,7.5v1.1l2.6,0.3v20.4l-1.9,0.2v1.2H52.2z M68.3,11.6c0.6,0,1.1-0.2,1.4-0.5s0.5-0.8,0.5-1.4c0-0.5-0.1-0.9-0.4-1.2
				S69.1,8,68.5,8s-1,0.2-1.4,0.5c-0.3,0.4-0.5,0.8-0.5,1.4C66.7,11,67.2,11.6,68.3,11.6L68.3,11.6L68.3,11.6z M72.3,30.7v-1.2
				l-2.6-0.2V14.7l-0.6-0.5H69l-4,0.5V16l2.3,0.5v12.7l-2.6,0.2v1.2L72.3,30.7L72.3,30.7z M82.8,30.7v-1.2l-3.9-0.2v-11
				c0.7-0.5,1.4-0.9,2.2-1.2c0.8-0.3,1.7-0.5,2.9-0.5c0.3,0,0.6,0,0.8,0.1c0.3,0.1,0.4,0.1,0.5,0.2l0,0v-2.5
				c-0.3-0.1-0.6-0.1-0.9-0.1c-1,0-1.9,0.3-2.9,0.8s-1.7,1-2.1,1.6c-0.5,0.5-0.7,0.8-0.8,0.9l0,0h-0.1l0.1-2.2v-0.5L78,14.4l0,0
				l-3.7,0.5v1.3l2.3,0.5v12.8l-2.4,0.2v1.2h8.6V30.7z M94.2,31c1.1,0,2.2-0.2,3.3-0.6c1.1-0.4,1.9-0.9,2.5-1.5l0,0l-0.5-1.1
				c-0.5,0.4-1.1,0.8-2,1c-0.9,0.3-1.7,0.4-2.5,0.4c-1.7,0-3-0.6-3.9-1.9s-1.4-2.9-1.4-5l0,0h10.5c0.1-0.5,0.2-1.3,0.2-2.5
				c-0.1-1.9-0.6-3.3-1.6-4.3S96.5,14,94.7,14c-1.4,0-2.7,0.4-3.9,1.1c-1.1,0.7-2,1.7-2.7,3s-1,2.7-1,4.4c0,2.5,0.6,4.6,1.8,6.1
				S91.9,31,94.2,31z M97.6,21.1h-8c0.2-3.6,1.7-5.4,4.4-5.4c1.2,0,2.2,0.4,2.8,1.1c0.6,0.8,0.9,1.8,0.9,3
				C97.7,20.3,97.7,20.7,97.6,21.1L97.6,21.1z M108.9,31c2.1,0,3.8-0.4,4.9-1.3s1.7-2,1.7-3.5c0-0.9-0.2-1.7-0.7-2.4
				c-0.5-0.6-1-1.2-1.7-1.6s-1.6-0.8-2.6-1.3c-1.1-0.4-1.8-0.8-2.2-1c-0.4-0.2-0.8-0.5-1.1-0.8c-0.3-0.4-0.5-0.8-0.5-1.3
				c0-0.6,0.2-1.1,0.7-1.4s1.1-0.5,1.9-0.5c0.5,0,1,0.1,1.4,0.2c0.4,0.2,0.7,0.3,0.8,0.5l0,0l0.7,2.2h2.3V15c-0.2,0-0.5-0.1-0.9-0.2
				c-0.7-0.2-1.4-0.3-2.1-0.5c-0.7-0.1-1.4-0.2-2.4-0.2c-1.3,0-2.4,0.2-3.3,0.6c-1,0.4-1.7,0.9-2.2,1.6c-0.5,0.7-0.8,1.5-0.8,2.3
				c0,1.3,0.3,2.3,1,3.1s1.7,1.5,3,2l0,0l0.8,0.3c1.4,0.6,2.3,1.1,2.9,1.5s0.9,0.9,0.9,1.5s-0.2,1.1-0.7,1.5s-1.2,0.6-2.1,0.6
				c-0.6,0-1.1-0.1-1.7-0.3c-0.6-0.2-0.9-0.4-1.1-0.7l0,0l-0.7-2.3h-2.4v3.8l0.6,0.2c1,0.3,2,0.5,2.8,0.7
				C107,30.9,107.9,31,108.9,31z M122.6,30.9c1,0,2-0.2,3.1-0.5s1.9-0.7,2.4-1.1l0,0l-0.6-1.6c-0.4,0.2-0.8,0.3-1.3,0.4
				s-1,0.2-1.5,0.2s-0.8-0.1-1-0.2s-0.3-0.4-0.4-0.9c-0.1-0.4-0.1-1.2-0.1-2.3l0,0v-8.1h4.5v-2.2h-4.5l-0.1-4.3h-2.4
				c-0.5,1.6-0.8,2.6-1,3c-0.2,0.6-0.5,1.1-0.9,1.3c-0.2,0.1-0.5,0.2-0.9,0.4c-0.4,0.1-0.7,0.2-0.9,0.3l0,0v1.5h1.9v10.6
				c0,1.2,0.3,2.1,0.9,2.7C120.4,30.7,121.3,30.9,122.6,30.9z M138.8,30.7V29l-3.4-0.3v-9.5c1.1-0.8,2.3-1.1,3.7-1.1
				c0.8,0,1.6,0.2,2.1,0.6l0,0v-4.3c-0.3-0.1-0.7-0.2-1.1-0.2c-0.9,0-1.7,0.2-2.5,0.7s-1.4,0.9-1.9,1.5c-0.5,0.6-0.8,1-1,1.4l0,0
				h-0.1l0.1-2.3v-0.6l-0.7-0.6h0l-4.6,0.6v2l1.9,0.5v11.4l-1.9,0.2v1.7C129.4,30.7,138.8,30.7,138.8,30.7z M150.3,31
				c1.2,0,2.4-0.2,3.6-0.7c1.2-0.5,2-1,2.6-1.5l0,0l-0.7-1.6c-0.5,0.3-1.1,0.6-1.9,0.9s-1.6,0.4-2.4,0.4c-1.4,0-2.5-0.5-3.3-1.5
				s-1.2-2.3-1.3-4.1l0,0h9.6c0.2-0.6,0.2-1.6,0.2-2.8c0-1.9-0.6-3.3-1.6-4.3c-1.1-1-2.6-1.5-4.5-1.5c-1.6,0-3,0.3-4.2,1
				s-2.1,1.6-2.8,2.9s-1,2.8-1,4.5c0,2.6,0.6,4.6,1.9,6.1S147.7,31,150.3,31z M152.6,21.1h-5.7c0.1-1.9,0.4-3.2,0.9-4
				s1.3-1.1,2.2-1.1c1.7,0,2.6,1.3,2.6,3.8C152.7,20.2,152.7,20.6,152.6,21.1L152.6,21.1z M170.1,31c0.5,0,1.2,0,1.9-0.1
				s1.3-0.2,1.7-0.3l0,0V29h-1.6v-8.8c0-1.4-0.2-2.6-0.6-3.4c-0.4-0.8-1-1.5-1.8-1.9c-0.9-0.4-2-0.6-3.5-0.6c-1,0-2,0.1-3,0.4
				c-1,0.3-1.8,0.6-2.5,0.9c-0.7,0.3-1.2,0.6-1.5,0.9l0,0l0.9,1.9c0.8-0.4,1.6-0.7,2.4-0.9c0.8-0.2,1.6-0.4,2.6-0.4
				c0.8,0,1.5,0.1,1.9,0.3c0.4,0.2,0.7,0.6,0.9,1s0.3,1.1,0.3,1.9l0,0V21c-2.8,0-5.2,0.5-7,1.4s-2.7,2.2-2.7,4c0,1,0.2,1.9,0.7,2.6
				s1.1,1.3,1.8,1.6c0.8,0.4,1.6,0.6,2.5,0.6c1.1,0,2-0.2,2.9-0.7c0.8-0.5,1.5-1,2.1-1.6l0,0v0.8c0,0.6,0.1,1,0.3,1.2
				C168.9,30.9,169.4,31,170.1,31z M165.3,28.6c-0.8,0-1.4-0.2-1.8-0.7c-0.4-0.5-0.7-1.2-0.7-2.1s0.4-1.7,1.3-2.3
				c0.9-0.6,2.2-0.9,4-0.9l0,0v4.7c-0.4,0.3-0.9,0.6-1.4,0.9C166.2,28.5,165.8,28.6,165.3,28.6z M182.8,30.7V29l-1.7-0.3V18.2
				c0.5-0.4,1-0.7,1.7-1c0.6-0.3,1.2-0.4,1.9-0.4s1.2,0.1,1.5,0.4s0.6,0.7,0.7,1.2s0.2,1.4,0.2,2.4l0,0v8l-1.6,0.3v1.7h7.7v-1.7
				l-1.8-0.3v-8c0-1.1-0.1-2-0.2-2.7c0.5-0.3,1-0.6,1.5-0.9c0.6-0.2,1.1-0.4,1.7-0.4c1,0,1.7,0.3,2.1,0.9c0.4,0.6,0.5,1.7,0.5,3.2
				l0,0v7.9l-1.5,0.3v1.7h7.6v-1.7l-1.9-0.3v-8c0-2.3-0.4-3.9-1.1-4.9s-2-1.5-3.7-1.5c-1,0-2.1,0.2-3.1,0.6
				c-1.1,0.4-1.9,0.9-2.6,1.5c-0.3-0.7-0.8-1.3-1.5-1.6s-1.5-0.5-2.6-0.5c-0.9,0-1.9,0.2-3.1,0.7c-1.2,0.5-2.1,1-2.8,1.6l0,0v-1.2
				l-0.4-1l-0.4-0.2l-4.9,0.6v2l1.9,0.5v11.3l-1.6,0.3v1.7H182.8z"/>
			<g id="_x30_1-Component-_x2F_-Logo-_x2F_-Icon-_x2F_-Small" transform="translate(1.500000, 2.500000)">
				<path id="Shape" class="st0" d="M27.7-2.5c4.2,0,7.6,3.3,7.8,7.5v0.2v21.4c0,4.2-3.3,7.6-7.5,7.8h-0.2H6.3
					c-4.2,0-7.6-3.3-7.8-7.5v-0.2V5.3c0-4.2,3.3-7.6,7.5-7.8h0.2H27.7z M27.7,0.2H6.3c-2.7,0-5,2.2-5.1,4.9v0.2v21.4
					c0,2.7,2.2,5,4.9,5.1h0.2h21.4c2.7,0,5-2.2,5.1-4.9v-0.2V5.3c0-2.7-2.2-5-4.9-5.1L27.7,0.2z M12.2,12.4c1.7,0,3.2,1.2,3.9,2.8
					c0.8,3.4,3.3,6.1,6.8,6.1c3.4,0,6.2-2.7,6.6-6.2h2.4c-0.3,4.8-4.2,8.5-9,8.5c-4.6,0-7.9-3-9-8c-0.1-0.6-0.8-1.3-1.6-1.3
					s-1.5,0.6-1.7,1.3H8.3C8.7,13.8,10.3,12.4,12.2,12.4z M11.9,7.2c4.6,0,7.9,3,9,8c0.1,0.6,0.8,1.3,1.6,1.3c0.8,0,1.5-0.6,1.7-1.3
					h2.3c-0.5,1.9-2.1,3.3-4,3.3c-1.7,0-3.2-1.2-3.9-2.8c-0.8-3.4-3.3-6.1-6.8-6.1s-6.2,2.7-6.6,6.2H2.8C3.2,11,7.2,7.2,11.9,7.2z"
					/>
			</g>
		</g>
	</g>
</g>
</svg>
