<svg width="50" height="50" viewBox="0 0 50 50" fill="none" xmlns="http://www.w3.org/2000/svg">
<path d="M43.3215 45.0001C43.3215 46.3257 43.3229 47.5902 43.3215 48.8532C43.3201 49.7379 43.0614 49.9994 42.1753 49.9994C29.2974 49.9994 16.4194 50.0008 3.5415 49.9994C1.39796 49.9994 0.00139101 48.5917 0.00139101 46.4356C0 32.1486 0 17.8629 0 3.5773C0 1.94287 0.812348 0.70487 2.20336 0.206889C3.6347 -0.305001 5.01875 0.142903 6.07592 1.44071C6.16912 1.55478 6.34299 1.62154 6.49322 1.66327C6.62119 1.69944 6.76864 1.67162 6.90774 1.67162C20.8442 1.67162 34.7807 1.67162 48.7172 1.67162C49.7744 1.67162 49.9858 1.88583 49.9858 2.95413C49.9858 16.5457 49.9858 30.1372 49.9858 43.7287C49.9858 44.7859 49.7702 44.9987 48.7033 44.9987C46.9354 45.0001 45.166 45.0001 43.3215 45.0001ZM6.68796 43.2975C20.5827 43.2975 34.4358 43.2975 48.2777 43.2975C48.2777 29.9605 48.2777 16.6597 48.2777 3.36587C34.3954 3.36587 20.5535 3.36587 6.68796 3.36587C6.68796 16.682 6.68796 29.9703 6.68796 43.2975ZM4.99928 43.2363C4.99928 43.0819 4.99928 42.8941 4.99928 42.7063C4.99928 29.706 4.99928 16.7056 4.99928 3.70388C4.99928 3.56478 5.00345 3.42568 4.9965 3.28797C4.95338 2.44502 4.3163 1.76204 3.50117 1.67997C2.68464 1.5979 1.90846 2.14178 1.71789 2.9583C1.66364 3.1906 1.66921 3.44098 1.66921 3.68162C1.66782 16.8378 1.66782 29.9953 1.66782 43.1515C1.66782 43.3351 1.66782 43.5201 1.66782 43.5715C2.77367 43.4616 3.84613 43.3531 4.99928 43.2363ZM41.6217 45.0001C41.4005 45.0001 41.1975 45.0001 40.9944 45.0001C28.5699 45.0001 16.144 45.0001 3.71955 45.0001C3.54568 45.0001 3.37041 44.9876 3.19932 45.0084C2.49964 45.0905 2.00444 45.4536 1.76658 46.124C1.35484 47.2758 2.20753 48.333 3.54707 48.333C16.0759 48.3343 28.6047 48.3343 41.1335 48.333C41.299 48.333 41.4659 48.3177 41.6537 48.3093C41.6537 47.2535 41.6537 46.2492 41.6523 45.2435C41.6523 45.1768 41.637 45.1114 41.6217 45.0001Z" fill="url(#paint0_linear_3603_29618)"/>
<path d="M19.3321 21.6719C21.477 21.6831 22.9835 23.6666 22.459 25.799C22.2977 26.4542 22.121 27.108 21.9193 27.752C21.8275 28.0427 21.8901 28.2291 22.1016 28.4378C23.4717 29.7912 24.8307 31.1558 26.1911 32.519C26.8226 33.1519 26.8254 33.5136 26.1995 34.1409C24.3967 35.9464 22.594 37.7492 20.7884 39.5519C20.1792 40.1612 19.8106 40.1612 19.2055 39.5561C16.8366 37.1886 14.4691 34.8211 12.1016 32.4508C11.4993 31.8471 11.5035 31.4827 12.1169 30.8693C12.9863 29.9971 13.8696 29.1375 14.7223 28.2472C14.9379 28.0219 15.1145 27.7214 15.2077 27.4237C15.5485 26.3332 15.8392 25.226 16.162 24.1298C16.6029 22.6276 17.8548 21.6636 19.3321 21.6719ZM24.5038 33.3828C23.4286 32.309 22.3561 31.2365 21.2809 30.1626C21.1265 30.6954 20.9568 31.2824 20.7829 31.8847C20.2334 31.7303 19.7368 31.5912 19.1985 31.4396C19.4211 30.6189 19.645 29.8399 19.837 29.054C19.8801 28.8773 19.8815 28.6117 19.78 28.4906C19.3474 27.9774 18.8689 27.5016 18.4863 27.0982C16.8797 28.7021 15.344 30.2364 13.896 31.683C15.9199 33.7083 17.9981 35.7893 20.054 37.8452C21.5201 36.3735 23.0363 34.8531 24.5038 33.3828ZM17.5377 25.3428C18.35 24.8671 18.5781 24.8893 19.1693 25.5042C19.5741 25.9228 19.9469 26.3721 20.3336 26.8061C20.6132 26.215 20.7564 25.7392 20.8649 25.2552C21.0444 24.4484 20.5895 23.6792 19.8022 23.4204C19.0483 23.1728 18.2262 23.5206 17.8965 24.255C17.7588 24.5652 17.6809 24.9032 17.5377 25.3428Z" fill="url(#paint1_linear_3603_29618)"/>
<path d="M27.4421 18.8945C26.8787 19.0906 26.3947 19.2603 25.873 19.4411C25.4891 18.3617 25.1052 17.3421 24.7672 16.3086C24.642 15.9274 24.4542 15.8148 24.0605 15.8259C22.9853 15.8565 21.9087 15.8509 20.8334 15.8273C20.494 15.8203 20.3521 15.9386 20.2464 16.2502C19.8931 17.299 19.5078 18.3367 19.1127 19.4425C18.5869 19.2547 18.0917 19.0781 17.5479 18.8833C17.9874 17.6523 18.4117 16.4658 18.8359 15.2778C19.7679 12.6669 20.6915 10.0532 21.6471 7.45065C21.7501 7.17105 21.9879 6.87338 22.2439 6.73428C22.6723 6.50337 23.1244 6.80383 23.3331 7.38666C24.2233 9.86543 25.1094 12.3456 25.9954 14.8258C26.4726 16.1625 26.9455 17.4979 27.4421 18.8945ZM23.9813 14.1483C23.4944 12.7879 23.0229 11.4679 22.5499 10.1478C22.511 10.1492 22.4734 10.152 22.4345 10.1534C21.9629 11.4762 21.4914 12.7991 21.0101 14.1483C22.0241 14.1483 22.9714 14.1483 23.9813 14.1483Z" fill="url(#paint2_linear_3603_29618)"/>
<path d="M36.6554 25.8883C36.6554 26.9302 36.6609 27.9706 36.654 29.0125C36.6498 29.6927 36.3452 29.9987 35.6664 30.0001C33.5493 30.0057 31.4321 30.0057 29.315 30.0001C28.6348 29.9987 28.3302 29.6927 28.3274 29.0125C28.3219 26.8954 28.3219 24.7769 28.3274 22.6598C28.3288 21.9796 28.6348 21.6735 29.315 21.6721C31.4321 21.6666 33.5493 21.6666 35.6664 21.6721C36.3466 21.6735 36.6498 21.9796 36.654 22.6598C36.6609 23.7364 36.6554 24.813 36.6554 25.8883ZM30.0286 23.3608C30.0286 25.037 30.0286 26.6728 30.0286 28.2961C31.7006 28.2961 33.3364 28.2961 34.9625 28.2961C34.9625 26.6311 34.9625 25.0078 34.9625 23.3608C33.3114 23.3608 31.6895 23.3608 30.0286 23.3608Z" fill="url(#paint3_linear_3603_29618)"/>
<path d="M46.6533 25.8381C46.6533 26.8799 46.6574 27.9204 46.6519 28.9623C46.6491 29.7078 46.357 30 45.6086 30C43.5263 30.0027 41.444 30.0041 39.3616 30C38.616 29.9986 38.3253 29.7051 38.3239 28.9567C38.3211 26.8744 38.3197 24.7906 38.3239 22.7083C38.3253 21.9627 38.6174 21.672 39.3672 21.6706C41.4495 21.6678 43.5319 21.6664 45.6142 21.6706C46.3598 21.672 46.6491 21.9655 46.6519 22.7139C46.6574 23.7543 46.6533 24.7962 46.6533 25.8381ZM44.9562 28.3252C44.9562 26.6448 44.9562 25.009 44.9562 23.3718C43.2884 23.3718 41.6526 23.3718 40.0307 23.3718C40.0307 25.0438 40.0307 26.6796 40.0307 28.3252C41.6818 28.3252 43.2926 28.3252 44.9562 28.3252Z" fill="url(#paint4_linear_3603_29618)"/>
<path d="M15.8042 17.5411C15.8042 18.1058 15.8042 18.6219 15.8042 19.2979C15.1532 19.0253 14.5787 18.7847 13.9347 18.5148C12.9971 19.3021 11.7884 19.3105 10.5782 19.0684C9.13432 18.7805 8.18565 17.3923 8.34423 15.9414C8.50141 14.5101 9.69629 13.3876 11.1388 13.343C11.8468 13.3208 12.5548 13.3389 13.2545 13.3389C13.5188 12.0647 13.0361 11.1174 12.0262 10.8768C11.0456 10.6431 10.2624 11.2426 9.94806 12.4862C9.43617 12.4862 8.9201 12.4862 8.31641 12.4862C8.37344 12.1509 8.3943 11.8296 8.48472 11.5292C8.93958 10.0005 10.4864 8.99336 12.0485 9.1881C13.6899 9.39397 14.9515 10.7419 14.9891 12.3846C15.0183 13.7186 14.996 15.0554 14.9988 16.3893C14.9974 17.1168 15.1101 17.2754 15.8042 17.5411ZM13.3282 15.0136C12.5562 15.0136 11.8315 14.9775 11.1123 15.0234C10.3974 15.0693 9.8952 15.769 10.0134 16.4547C10.1456 17.217 10.7062 17.523 11.9316 17.5022C12.7106 17.4896 13.2294 17.0709 13.3185 16.3824C13.3254 16.3309 13.3268 16.2795 13.3268 16.2266C13.3282 15.8482 13.3282 15.4685 13.3282 15.0136Z" fill="url(#paint5_linear_3603_29618)"/>
<path d="M46.6335 8.37891C46.6335 8.91166 46.6335 9.42494 46.6335 9.97161C40.8177 9.97161 35.0172 9.97161 29.1875 9.97161C29.1875 9.44859 29.1875 8.93531 29.1875 8.37891C34.9769 8.37891 40.776 8.37891 46.6335 8.37891Z" fill="url(#paint6_linear_3603_29618)"/>
<path d="M13.3848 37.3305C13.3305 38.5254 12.7393 39.4379 11.7197 39.8274C10.7238 40.2085 9.64157 39.9345 8.93911 39.1235C8.24082 38.3181 8.08086 36.9744 8.64143 36.0063C9.09907 35.2148 9.62209 34.4567 10.1493 33.7083C10.4859 33.2298 11.1133 33.1742 11.436 33.6262C12.0397 34.4678 12.6016 35.3427 13.1205 36.2386C13.3013 36.5488 13.3013 36.9633 13.3848 37.3305ZM10.8364 35.6669C10.593 36.0313 10.4024 36.3137 10.2133 36.5988C10.166 36.6698 10.1201 36.7435 10.0853 36.8214C9.87386 37.2915 9.97819 37.8925 10.3246 38.1498C10.6528 38.3946 10.9964 38.396 11.3275 38.1554C11.6752 37.9022 11.8074 37.2916 11.5723 36.8325C11.3789 36.4542 11.1188 36.1092 10.8364 35.6669Z" fill="url(#paint7_linear_3603_29618)"/>
<path d="M46.6291 11.707C46.6291 12.2607 46.6291 12.7739 46.6291 13.3123C42.7607 13.3123 38.9173 13.3123 35.0322 13.3123C35.0322 12.7948 35.0322 12.269 35.0322 11.707C38.877 11.707 42.7328 11.707 46.6291 11.707Z" fill="url(#paint8_linear_3603_29618)"/>
<path d="M29.1816 16.6337C29.1816 16.0856 29.1816 15.5724 29.1816 15.0312C32.2154 15.0312 35.2256 15.0312 38.2802 15.0312C38.2802 15.5431 38.2802 16.0703 38.2802 16.6337C35.2715 16.6337 32.2488 16.6337 29.1816 16.6337Z" fill="url(#paint9_linear_3603_29618)"/>
<path d="M31.6846 31.6875C33.3385 31.6875 34.9604 31.6875 36.6199 31.6875C36.6199 32.2203 36.6199 32.7447 36.6199 33.3025C34.9813 33.3025 33.3468 33.3025 31.6846 33.3025C31.6846 32.7739 31.6846 32.2606 31.6846 31.6875Z" fill="url(#paint10_linear_3603_29618)"/>
<path d="M46.6336 31.7109C46.6336 32.2493 46.6336 32.7625 46.6336 33.3064C44.9797 33.3064 43.3439 33.3064 41.6816 33.3064C41.6816 32.7778 41.6816 32.2646 41.6816 31.7109C43.3105 31.7109 44.9463 31.7109 46.6336 31.7109Z" fill="url(#paint11_linear_3603_29618)"/>
<path d="M31.6875 35.0234C33.3358 35.0234 34.9591 35.0234 36.6186 35.0234C36.6186 35.5506 36.6186 36.0764 36.6186 36.6342C34.9856 36.6342 33.3511 36.6342 31.6875 36.6342C31.6875 36.1098 31.6875 35.5965 31.6875 35.0234Z" fill="url(#paint12_linear_3603_29618)"/>
<path d="M46.6157 36.6454C44.9576 36.6454 43.3357 36.6454 41.6846 36.6454C41.6846 36.1113 41.6846 35.598 41.6846 35.043C43.3079 35.043 44.9423 35.043 46.6157 35.043C46.6157 35.5507 46.6157 36.0765 46.6157 36.6454Z" fill="url(#paint13_linear_3603_29618)"/>
<path d="M36.6349 38.3594C36.6349 38.9046 36.6349 39.4179 36.6349 39.966C34.9907 39.966 33.3549 39.966 31.6885 39.966C31.6885 39.436 31.6885 38.9102 31.6885 38.3594C33.3313 38.3594 34.9532 38.3594 36.6349 38.3594Z" fill="url(#paint14_linear_3603_29618)"/>
<path d="M46.6308 38.3711C46.6308 38.9205 46.6308 39.4338 46.6308 39.9735C44.9852 39.9735 43.3633 39.9735 41.6982 39.9735C41.6982 39.4603 41.6982 38.9345 41.6982 38.3711C43.3174 38.3711 44.9532 38.3711 46.6308 38.3711Z" fill="url(#paint15_linear_3603_29618)"/>
<path d="M29.1982 11.6914C30.5739 11.6914 31.9191 11.6914 33.2948 11.6914C33.2948 12.2367 33.2948 12.7625 33.2948 13.3119C31.9274 13.3119 30.5837 13.3119 29.1982 13.3119C29.1982 12.7903 29.1982 12.2645 29.1982 11.6914Z" fill="url(#paint16_linear_3603_29618)"/>
<path d="M28.3652 31.6875C28.9049 31.6875 29.4168 31.6875 29.9607 31.6875C29.9607 32.2314 29.9607 32.7558 29.9607 33.308C29.4321 33.308 28.9189 33.308 28.3652 33.308C28.3652 32.7906 28.3652 32.2648 28.3652 31.6875Z" fill="url(#paint17_linear_3603_29618)"/>
<path d="M38.333 33.2939C38.333 32.75 38.333 32.2506 38.333 31.7109C38.8672 31.7109 39.393 31.7109 39.9535 31.7109C39.9535 32.227 39.9535 32.7514 39.9535 33.2939C39.411 33.2939 38.8741 33.2939 38.333 33.2939Z" fill="url(#paint18_linear_3603_29618)"/>
<path d="M29.9625 36.6432C29.427 36.6432 28.9151 36.6432 28.3643 36.6432C28.3643 36.1188 28.3643 35.5943 28.3643 35.0352C28.8845 35.0352 29.4089 35.0352 29.9625 35.0352C29.9625 35.5568 29.9625 36.0687 29.9625 36.6432Z" fill="url(#paint19_linear_3603_29618)"/>
<path d="M38.3594 35.0234C38.906 35.0234 39.4193 35.0234 39.959 35.0234C39.959 35.5576 39.959 36.0695 39.959 36.6259C39.4471 36.6259 38.9227 36.6259 38.3594 36.6259C38.3594 36.1182 38.3594 35.5924 38.3594 35.0234Z" fill="url(#paint20_linear_3603_29618)"/>
<path d="M28.3643 38.3555C28.9081 38.3555 29.42 38.3555 29.9625 38.3555C29.9625 38.9007 29.9625 39.4265 29.9625 39.976C29.4284 39.976 28.9165 39.976 28.3643 39.976C28.3643 39.453 28.3643 38.9286 28.3643 38.3555Z" fill="url(#paint21_linear_3603_29618)"/>
<path d="M39.9692 38.375C39.9692 38.9147 39.9692 39.4266 39.9692 39.9705C39.4253 39.9705 38.9009 39.9705 38.3486 39.9705C38.3486 39.4419 38.3486 38.9286 38.3486 38.375C38.8661 38.375 39.3919 38.375 39.9692 38.375Z" fill="url(#paint22_linear_3603_29618)"/>
<defs>
<linearGradient id="paint0_linear_3603_29618" x1="1.04326" y1="7.65054" x2="45.9032" y2="38.3918" gradientUnits="userSpaceOnUse">
<stop stop-color="#20D4FE"/>
<stop offset="1" stop-color="#B722FF"/>
</linearGradient>
<linearGradient id="paint1_linear_3603_29618" x1="11.9667" y1="24.4777" x2="27.0251" y2="32.9287" gradientUnits="userSpaceOnUse">
<stop stop-color="#20D4FE"/>
<stop offset="1" stop-color="#B722FF"/>
</linearGradient>
<linearGradient id="paint2_linear_3603_29618" x1="17.7544" y1="8.61269" x2="27.9385" y2="14.0146" gradientUnits="userSpaceOnUse">
<stop stop-color="#20D4FE"/>
<stop offset="1" stop-color="#B722FF"/>
</linearGradient>
<linearGradient id="paint3_linear_3603_29618" x1="28.4972" y1="22.9435" x2="35.9766" y2="28.0691" gradientUnits="userSpaceOnUse">
<stop stop-color="#20D4FE"/>
<stop offset="1" stop-color="#B722FF"/>
</linearGradient>
<linearGradient id="paint4_linear_3603_29618" x1="38.4952" y1="22.9433" x2="45.9734" y2="28.0686" gradientUnits="userSpaceOnUse">
<stop stop-color="#20D4FE"/>
<stop offset="1" stop-color="#B722FF"/>
</linearGradient>
<linearGradient id="paint5_linear_3603_29618" x1="8.47268" y1="10.7147" x2="16.3322" y2="14.6953" gradientUnits="userSpaceOnUse">
<stop stop-color="#20D4FE"/>
<stop offset="1" stop-color="#B722FF"/>
</linearGradient>
<linearGradient id="paint6_linear_3603_29618" x1="29.5516" y1="8.62261" x2="29.9526" y2="11.6337" gradientUnits="userSpaceOnUse">
<stop stop-color="#20D4FE"/>
<stop offset="1" stop-color="#B722FF"/>
</linearGradient>
<linearGradient id="paint7_linear_3603_29618" x1="8.4088" y1="34.3386" x2="13.6785" y2="37.0865" gradientUnits="userSpaceOnUse">
<stop stop-color="#20D4FE"/>
<stop offset="1" stop-color="#B722FF"/>
</linearGradient>
<linearGradient id="paint8_linear_3603_29618" x1="35.2743" y1="11.9526" x2="35.8735" y2="14.9202" gradientUnits="userSpaceOnUse">
<stop stop-color="#20D4FE"/>
<stop offset="1" stop-color="#B722FF"/>
</linearGradient>
<linearGradient id="paint9_linear_3603_29618" x1="29.3715" y1="15.2764" x2="30.1147" y2="18.1687" gradientUnits="userSpaceOnUse">
<stop stop-color="#20D4FE"/>
<stop offset="1" stop-color="#B722FF"/>
</linearGradient>
<linearGradient id="paint10_linear_3603_29618" x1="31.7876" y1="31.9346" x2="32.9956" y2="34.4652" gradientUnits="userSpaceOnUse">
<stop stop-color="#20D4FE"/>
<stop offset="1" stop-color="#B722FF"/>
</linearGradient>
<linearGradient id="paint11_linear_3603_29618" x1="41.785" y1="31.9551" x2="42.9668" y2="34.4694" gradientUnits="userSpaceOnUse">
<stop stop-color="#20D4FE"/>
<stop offset="1" stop-color="#B722FF"/>
</linearGradient>
<linearGradient id="paint12_linear_3603_29618" x1="31.7904" y1="35.2699" x2="32.994" y2="37.7956" gradientUnits="userSpaceOnUse">
<stop stop-color="#20D4FE"/>
<stop offset="1" stop-color="#B722FF"/>
</linearGradient>
<linearGradient id="paint13_linear_3603_29618" x1="41.7875" y1="35.2882" x2="42.981" y2="37.8056" gradientUnits="userSpaceOnUse">
<stop stop-color="#20D4FE"/>
<stop offset="1" stop-color="#B722FF"/>
</linearGradient>
<linearGradient id="paint14_linear_3603_29618" x1="31.7917" y1="38.6052" x2="32.9879" y2="41.1297" gradientUnits="userSpaceOnUse">
<stop stop-color="#20D4FE"/>
<stop offset="1" stop-color="#B722FF"/>
</linearGradient>
<linearGradient id="paint15_linear_3603_29618" x1="41.8012" y1="38.6163" x2="42.9944" y2="41.134" gradientUnits="userSpaceOnUse">
<stop stop-color="#20D4FE"/>
<stop offset="1" stop-color="#B722FF"/>
</linearGradient>
<linearGradient id="paint16_linear_3603_29618" x1="29.2837" y1="11.9394" x2="30.6336" y2="14.2784" gradientUnits="userSpaceOnUse">
<stop stop-color="#20D4FE"/>
<stop offset="1" stop-color="#B722FF"/>
</linearGradient>
<linearGradient id="paint17_linear_3603_29618" x1="28.3985" y1="31.9355" x2="29.8443" y2="32.9112" gradientUnits="userSpaceOnUse">
<stop stop-color="#20D4FE"/>
<stop offset="1" stop-color="#B722FF"/>
</linearGradient>
<linearGradient id="paint18_linear_3603_29618" x1="38.3668" y1="31.9531" x2="39.7989" y2="32.9581" gradientUnits="userSpaceOnUse">
<stop stop-color="#20D4FE"/>
<stop offset="1" stop-color="#B722FF"/>
</linearGradient>
<linearGradient id="paint19_linear_3603_29618" x1="28.3976" y1="35.2812" x2="29.8373" y2="36.2621" gradientUnits="userSpaceOnUse">
<stop stop-color="#20D4FE"/>
<stop offset="1" stop-color="#B722FF"/>
</linearGradient>
<linearGradient id="paint20_linear_3603_29618" x1="38.3928" y1="35.2686" x2="39.8297" y2="36.2519" gradientUnits="userSpaceOnUse">
<stop stop-color="#20D4FE"/>
<stop offset="1" stop-color="#B722FF"/>
</linearGradient>
<linearGradient id="paint21_linear_3603_29618" x1="28.3976" y1="38.6034" x2="29.8443" y2="39.5815" gradientUnits="userSpaceOnUse">
<stop stop-color="#20D4FE"/>
<stop offset="1" stop-color="#B722FF"/>
</linearGradient>
<linearGradient id="paint22_linear_3603_29618" x1="38.3825" y1="38.6191" x2="39.822" y2="39.6214" gradientUnits="userSpaceOnUse">
<stop stop-color="#20D4FE"/>
<stop offset="1" stop-color="#B722FF"/>
</linearGradient>
</defs>
</svg>
