<svg width="50" height="50" viewBox="0 0 50 50" fill="none" xmlns="http://www.w3.org/2000/svg">
<path d="M49.9804 41.31C49.9804 42.5138 49.9804 43.7189 49.9804 44.9227C49.9465 45.027 49.9048 45.13 49.8813 45.237C49.4026 47.4007 48.1349 48.8862 46.0612 49.6687C45.6869 49.8096 45.2904 49.8904 44.9044 50C31.6274 50 18.3491 50 5.07209 50C4.99906 49.97 4.92863 49.9283 4.85299 49.9126C2.37235 49.3883 0.734249 47.9211 0.176041 45.4483C-0.0626315 44.3892 0.0208388 43.252 0.00127544 42.1499C-0.0235048 40.7505 0.305159 40.3305 1.65894 39.9405C1.65894 39.7605 1.65894 39.5688 1.65894 39.3758C1.65894 29.6789 1.65764 19.982 1.65894 10.2851C1.65894 7.60623 3.4066 5.85074 6.07896 5.84683C8.64958 5.84292 11.2189 5.84553 13.7895 5.84553C13.9656 5.84553 14.143 5.84553 14.2264 5.84553C14.4573 5.39296 14.5955 4.96257 14.8629 4.63782C15.2842 4.12526 15.7824 3.67269 16.2662 3.21361C16.8675 2.64366 17.6135 2.5641 18.3269 2.99189C18.7443 3.2423 19.1707 3.49271 19.5425 3.80442C20.128 4.2935 20.6797 4.46957 21.4062 4.04309C21.7218 3.85789 21.9005 3.70139 21.9618 3.35316C22.0779 2.69713 22.2161 2.04502 22.3609 1.39552C22.5552 0.526906 23.1734 0.023476 24.059 0.00782534C24.6772 -0.00260845 25.2954 -0.00260845 25.9136 0.00782534C26.8005 0.0221718 27.42 0.529515 27.613 1.39421C27.7082 1.822 27.8334 2.25109 27.8634 2.6854C27.9195 3.51358 28.2377 4.06657 29.1102 4.25959C29.3828 4.31959 29.5719 4.36915 29.8158 4.19829C30.4014 3.78877 31.004 3.40141 31.6065 3.01667C32.1934 2.64236 32.8703 2.54584 33.3881 2.9945C34.305 3.78616 35.3966 4.47479 35.66 5.84553C35.8335 5.84553 36.0096 5.84553 36.1869 5.84553C38.7406 5.84553 41.2943 5.84292 43.8493 5.84814C44.2053 5.84944 44.5692 5.85074 44.9174 5.91856C46.982 6.32548 48.3149 8.0001 48.3162 10.1886C48.3188 19.9181 48.3175 29.6476 48.3175 39.3771C48.3175 39.5819 48.3175 39.7866 48.3175 39.9953C49.2253 40.0644 49.7 40.5705 49.9804 41.31ZM46.6533 39.9784C46.6533 39.7605 46.6533 39.5701 46.6533 39.3784C46.6533 29.7115 46.6533 20.0459 46.6533 10.379C46.6533 10.216 46.6572 10.053 46.6468 9.89123C46.566 8.57657 45.5447 7.53189 44.2497 7.52276C41.1912 7.50059 38.1315 7.50972 35.0731 7.52406C34.9166 7.52537 34.7301 7.65709 34.6114 7.77969C33.9972 8.40963 33.795 9.11 34.361 9.87819C34.4784 10.0386 34.6558 10.2121 34.8358 10.259C35.5583 10.4455 36.2978 10.5681 37.0243 10.7442C37.7755 10.9268 38.245 11.455 38.2907 12.2245C38.3337 12.9535 38.3337 13.6891 38.2946 14.4182C38.2515 15.2177 37.7872 15.7394 37.0099 15.935C36.5534 16.0498 36.0917 16.1789 35.6261 16.2141C34.7966 16.2767 34.2554 16.6067 34.0572 17.4675C33.9932 17.7453 33.9724 17.9409 34.1367 18.1796C34.5436 18.7678 34.9388 19.3651 35.3131 19.9742C35.7605 20.7032 35.6783 21.4597 35.0927 22.0779C34.6558 22.5383 34.2058 22.9856 33.7481 23.4252C33.1012 24.046 32.333 24.1164 31.5661 23.6312C31.167 23.3795 30.7483 23.146 30.3949 22.8409C29.8184 22.3426 29.2693 22.2383 28.5729 22.6322C28.256 22.8109 28.0747 22.9674 28.0134 23.3195C27.8999 23.9755 27.7604 24.6276 27.6143 25.2771C27.4187 26.1484 26.8018 26.6492 25.9149 26.6622C25.2967 26.6714 24.6785 26.6714 24.0603 26.6622C23.1708 26.6492 22.5526 26.1432 22.3596 25.2785C22.2644 24.8507 22.1196 24.4203 22.1118 23.9886C22.0935 23.0678 21.6266 22.5709 20.771 22.3909C20.6054 22.3557 20.3863 22.3583 20.2506 22.4405C19.6116 22.8278 19.0012 23.2621 18.3634 23.6547C17.6083 24.119 16.8636 24.0329 16.2245 23.4199C15.7667 22.9804 15.3155 22.5344 14.8785 22.074C14.2903 21.4558 14.2147 20.7019 14.6594 19.9716C14.8968 19.5829 15.1159 19.1708 15.4224 18.8408C16.021 18.1952 16.1136 17.534 15.618 16.8114C15.5046 16.6471 15.3324 16.4619 15.1537 16.415C14.4782 16.2402 13.7869 16.1293 13.1048 15.9754C12.1579 15.7615 11.6884 15.1916 11.6584 14.2226C11.6415 13.6865 11.6506 13.1492 11.6558 12.6118C11.6649 11.4537 12.1514 10.8746 13.2809 10.6581C13.9186 10.5355 14.5564 10.4116 15.1916 10.2721C15.3181 10.2447 15.485 10.1716 15.5359 10.0712C15.8893 9.37345 16.2493 8.66265 15.4967 7.98054C15.4733 7.95967 15.4537 7.92968 15.4407 7.90098C15.3011 7.5658 15.0481 7.5032 14.7012 7.5045C11.8371 7.51885 8.97433 7.51102 6.11026 7.51363C4.32477 7.51493 3.32183 8.51136 3.32183 10.2864C3.32052 20.0016 3.32183 29.7167 3.32183 39.4319C3.32183 39.6053 3.32183 39.7788 3.32183 39.9797C17.7857 39.9784 32.1934 39.9784 46.6533 39.9784ZM1.68503 41.6999C1.68503 42.7198 1.59504 43.6889 1.70329 44.6344C1.96022 46.8751 3.71831 48.3358 6.04896 48.3358C18.6725 48.3384 31.2948 48.3371 43.9184 48.3371C44.0645 48.3371 44.2118 48.3371 44.3579 48.3293C46.2164 48.2315 47.8897 46.8842 48.1884 45.0753C48.3684 43.9823 48.3123 42.8503 48.3645 41.7091C43.5793 41.7091 38.8893 41.7091 34.1563 41.7091C34.1563 41.9973 34.1615 42.2542 34.155 42.5112C34.1093 44.3671 32.7242 45.803 30.8722 45.8161C26.9517 45.8421 23.0312 45.8395 19.1121 45.8174C17.4309 45.8082 16.1502 44.667 15.875 43.0041C15.8045 42.579 15.8124 42.1408 15.785 41.7025C11.0715 41.6999 6.39197 41.6999 1.68503 41.6999ZM24.0068 1.68766C23.8451 2.48585 23.6834 3.27882 23.5242 4.07309C23.3925 4.73172 23.0247 5.18689 22.3948 5.42948C22.0466 5.56382 21.6957 5.69554 21.3592 5.85596C20.6641 6.18723 20.0185 6.14159 19.3833 5.69685C18.7469 5.2508 18.0909 4.83475 17.5496 4.47609C17.0423 4.96387 16.578 5.40992 16.0993 5.87031C16.5036 6.47808 16.9197 7.11845 17.3527 7.74578C17.7791 8.36268 17.847 8.99523 17.5144 9.67603C17.3657 9.98122 17.2288 10.2968 17.1231 10.6203C16.8792 11.3624 16.3654 11.7641 15.6128 11.9049C14.9581 12.0275 14.3034 12.1501 13.6578 12.3106C13.5261 12.3432 13.3539 12.5362 13.3422 12.6679C13.303 13.1205 13.307 13.5796 13.3409 14.0321C13.35 14.1534 13.5065 14.3321 13.6278 14.3634C14.1769 14.5056 14.7338 14.6464 15.2959 14.7103C16.3458 14.8303 16.9888 15.3742 17.2561 16.3902C17.3044 16.5767 17.3918 16.7567 17.4818 16.9275C17.8652 17.6487 17.7948 18.323 17.3266 18.9869C16.8884 19.6064 16.4814 20.2481 16.081 20.8493C16.5649 21.3371 17.0083 21.7857 17.4779 22.2579C17.9252 21.9592 18.426 21.6801 18.863 21.3227C19.7955 20.5598 20.7528 20.3641 21.8157 21.0293C21.9644 21.1219 22.147 21.161 22.3152 21.221C23.0052 21.4662 23.403 21.9449 23.536 22.6687C23.6781 23.446 23.8503 24.2181 24.0068 24.9798C24.6902 24.9798 25.3189 24.9798 25.971 24.9798C26.134 24.1659 26.2918 23.3704 26.4548 22.5761C26.5866 21.9396 26.9439 21.4936 27.5608 21.2575C27.9247 21.1193 28.2886 20.9784 28.6394 20.8102C29.3189 20.4854 29.9528 20.5363 30.5723 20.9628C31.2139 21.4049 31.8674 21.8301 32.4477 22.2174C32.9407 21.744 33.4063 21.2993 33.8915 20.835C33.5342 20.2976 33.1964 19.7212 32.7907 19.1969C32.1739 18.3974 32.2352 17.6435 32.5534 16.6993C33.0086 15.3481 33.8276 14.7116 35.1957 14.6021C35.6705 14.5643 36.333 14.533 36.5495 14.2356C36.7934 13.9017 36.6304 13.2705 36.6447 12.7683C36.646 12.7357 36.6578 12.6927 36.6421 12.6731C36.5391 12.544 36.4504 12.3406 36.32 12.308C35.6744 12.1488 35.0184 12.0275 34.3636 11.9063C33.6137 11.7667 33.0907 11.3741 32.8481 10.6294C32.7477 10.3216 32.6264 10.0164 32.4777 9.7295C32.1112 9.02001 32.1765 8.36137 32.6303 7.71318C33.0672 7.08976 33.4781 6.44808 33.8824 5.84031C33.3985 5.36297 32.9407 4.9117 32.4621 4.43958C31.9873 4.7565 31.4487 5.06691 30.9674 5.44904C30.108 6.13246 29.2354 6.28114 28.269 5.69424C28.0786 5.57816 27.8464 5.5286 27.6339 5.45035C26.9661 5.20646 26.5709 4.74085 26.4392 4.03657C26.2931 3.25534 26.1249 2.47802 25.9631 1.68897C25.3071 1.68766 24.6759 1.68766 24.0068 1.68766ZM17.5366 41.6921C17.2627 43.1567 17.9696 44.2066 19.5764 44.1793C23.2308 44.1153 26.8878 44.1245 30.5423 44.178C31.8361 44.1975 32.7894 43.2493 32.4138 41.6921C27.4656 41.6921 22.5122 41.6921 17.5366 41.6921Z" fill="url(#paint0_linear_3603_29661)"/>
<path d="M12.4707 38.3346C8.31938 38.3124 4.96622 34.9332 4.98839 30.791C5.00926 26.6527 8.39893 23.3191 12.5594 23.3399C16.6703 23.3621 20.0209 26.757 19.9948 30.877C19.97 34.9919 16.5751 38.3568 12.4707 38.3346ZM12.4903 36.6626C15.7039 36.6613 18.3384 34.0254 18.3293 30.821C18.3202 27.6321 15.7026 25.012 12.5151 25.0028C9.30146 24.9937 6.66171 27.6139 6.65388 30.821C6.64475 34.028 9.27798 36.6639 12.4903 36.6626Z" fill="url(#paint1_linear_3603_29661)"/>
<path d="M37.4951 38.3345C33.3842 38.3449 29.9998 34.98 29.9815 30.8665C29.9633 26.7269 33.3334 23.3425 37.4769 23.3398C41.6048 23.3372 44.9683 26.6774 44.9892 30.8013C45.0088 34.937 41.64 38.3241 37.4951 38.3345ZM37.5069 36.6625C40.7296 36.6442 43.3472 34.0058 43.3224 30.8C43.2976 27.5851 40.6605 24.9871 37.4391 25.0027C34.2633 25.0184 31.6405 27.6633 31.647 30.8443C31.6522 34.054 34.2985 36.6807 37.5069 36.6625Z" fill="url(#paint2_linear_3603_29661)"/>
<path d="M11.2696 43.3449C11.6766 43.3449 12.0835 43.3319 12.4891 43.3489C12.9743 43.3684 13.2977 43.6893 13.3134 44.1353C13.329 44.584 13.0277 44.9713 12.5543 44.9896C11.6779 45.0222 10.7975 45.0222 9.92107 44.987C9.45286 44.9687 9.15028 44.5696 9.16984 44.1262C9.1894 43.6762 9.50764 43.3658 10.0019 43.3475C10.4232 43.3319 10.8458 43.3449 11.2696 43.3449Z" fill="url(#paint3_linear_3603_29661)"/>
<path d="M5.8271 44.1629C5.8297 44.6103 5.43322 45.0054 4.98718 45.0015C4.5307 44.9976 4.16682 44.6155 4.17595 44.1486C4.18377 43.6921 4.52157 43.3556 4.97674 43.3478C5.43974 43.34 5.82449 43.709 5.8271 44.1629Z" fill="url(#paint4_linear_3603_29661)"/>
<path d="M8.31034 44.1477C8.31947 44.6134 7.95689 44.9968 7.49911 45.002C7.05307 45.0072 6.65658 44.6121 6.65919 44.1647C6.6605 43.7291 7.01916 43.3639 7.45868 43.3483C7.93603 43.3313 8.30121 43.6743 8.31034 44.1477Z" fill="url(#paint5_linear_3603_29661)"/>
<path d="M31.6433 13.3404C31.642 17.0274 28.6488 20.0206 24.9735 20.0089C21.2969 19.9971 18.3233 16.9961 18.335 13.3065C18.3454 9.64161 21.3204 6.66929 24.9813 6.66407C28.6579 6.65885 31.6433 9.65074 31.6433 13.3404ZM29.9765 13.3169C29.9687 10.5624 27.7045 8.30869 24.9683 8.33347C22.2059 8.35826 19.9914 10.5989 19.9992 13.3586C20.007 16.1119 22.2685 18.3616 25.0087 18.3421C27.7658 18.3225 29.9843 16.078 29.9765 13.3169Z" fill="url(#paint6_linear_3603_29661)"/>
<path d="M10.7962 32.2034C12.2191 30.7753 13.5599 29.4293 14.9019 28.0834C14.9932 27.9908 15.0832 27.8969 15.1784 27.8082C15.5788 27.4391 16.0574 27.413 16.3965 27.7391C16.7578 28.0886 16.7539 28.5777 16.3444 28.9911C15.0062 30.3423 13.6577 31.683 12.313 33.0264C12.0261 33.3133 11.747 33.6094 11.447 33.8846C11.0284 34.2693 10.6097 34.2693 10.1963 33.8728C9.65762 33.355 9.1281 32.8268 8.61163 32.2869C8.25819 31.9178 8.25819 31.4352 8.57511 31.1053C8.90769 30.7596 9.4033 30.7531 9.78804 31.1261C10.1219 31.4535 10.4297 31.8108 10.7962 32.2034Z" fill="url(#paint7_linear_3603_29661)"/>
<path d="M37.4784 31.977C36.8094 32.6604 36.2016 33.2917 35.5795 33.9099C35.2821 34.2046 34.9222 34.2672 34.5557 34.0403C34.2153 33.8277 34.077 33.4964 34.1944 33.1156C34.2531 32.9252 34.4031 32.7504 34.5466 32.6031C35.1152 32.024 35.6969 31.4593 36.3438 30.8202C35.6904 30.1837 35.063 29.5812 34.4448 28.9708C34.1305 28.6604 34.0588 28.2939 34.2975 27.9092C34.5126 27.5609 34.8557 27.4527 35.2287 27.5675C35.4178 27.6248 35.5925 27.7774 35.7399 27.9222C36.306 28.4817 36.8563 29.0569 37.4641 29.6777C37.961 29.1808 38.4266 28.7152 38.8935 28.2496C39.054 28.0891 39.2078 27.9196 39.3787 27.7696C39.7517 27.4435 40.246 27.4488 40.5629 27.7722C40.8864 28.1022 40.8916 28.5795 40.5382 28.9512C40.0113 29.5042 39.4622 30.035 38.9235 30.5776C38.8453 30.6558 38.7735 30.7406 38.6627 30.8632C39.2744 31.4671 39.8821 32.0527 40.4729 32.6539C40.872 33.0595 40.906 33.5108 40.5955 33.8695C40.2604 34.2555 39.7582 34.2738 39.3513 33.8773C38.7383 33.2721 38.1436 32.6513 37.4784 31.977Z" fill="url(#paint8_linear_3603_29661)"/>
<defs>
<linearGradient id="paint0_linear_3603_29661" x1="-2.08676" y1="13.3683" x2="48.3215" y2="38.8658" gradientUnits="userSpaceOnUse">
<stop stop-color="#20D4FE"/>
<stop offset="1" stop-color="#B722FF"/>
</linearGradient>
<linearGradient id="paint1_linear_3603_29661" x1="4.36173" y1="27.349" x2="19.4896" y2="35.01" gradientUnits="userSpaceOnUse">
<stop stop-color="#20D4FE"/>
<stop offset="1" stop-color="#B722FF"/>
</linearGradient>
<linearGradient id="paint2_linear_3603_29661" x1="29.3548" y1="27.3489" x2="44.4833" y2="35.0109" gradientUnits="userSpaceOnUse">
<stop stop-color="#20D4FE"/>
<stop offset="1" stop-color="#B722FF"/>
</linearGradient>
<linearGradient id="paint3_linear_3603_29661" x1="8.99589" y1="43.7874" x2="11.0386" y2="46.347" gradientUnits="userSpaceOnUse">
<stop stop-color="#20D4FE"/>
<stop offset="1" stop-color="#B722FF"/>
</linearGradient>
<linearGradient id="paint4_linear_3603_29661" x1="4.10684" y1="43.7899" x2="5.77309" y2="44.6317" gradientUnits="userSpaceOnUse">
<stop stop-color="#20D4FE"/>
<stop offset="1" stop-color="#B722FF"/>
</linearGradient>
<linearGradient id="paint5_linear_3603_29661" x1="6.59023" y1="43.79" x2="8.2567" y2="44.6317" gradientUnits="userSpaceOnUse">
<stop stop-color="#20D4FE"/>
<stop offset="1" stop-color="#B722FF"/>
</linearGradient>
<linearGradient id="paint6_linear_3603_29661" x1="17.7793" y1="10.232" x2="31.2144" y2="17.0118" gradientUnits="userSpaceOnUse">
<stop stop-color="#20D4FE"/>
<stop offset="1" stop-color="#B722FF"/>
</linearGradient>
<linearGradient id="paint7_linear_3603_29661" x1="7.9945" y1="29.2924" x2="15.5231" y2="34.0505" gradientUnits="userSpaceOnUse">
<stop stop-color="#20D4FE"/>
<stop offset="1" stop-color="#B722FF"/>
</linearGradient>
<linearGradient id="paint8_linear_3603_29661" x1="33.8756" y1="29.3025" x2="40.5838" y2="32.6955" gradientUnits="userSpaceOnUse">
<stop stop-color="#20D4FE"/>
<stop offset="1" stop-color="#B722FF"/>
</linearGradient>
</defs>
</svg>
